<?xml version="1.0" encoding="iso-8859-1"?>
<!-- Generator: Adobe Illustrator 27.1.0, SVG Export Plug-In . SVG Version: 6.00 Build 0)  -->
<svg version="1.1" xmlns="http://www.w3.org/2000/svg" xmlns:xlink="http://www.w3.org/1999/xlink" x="0px" y="0px"
	 viewBox="0 0 750 500" style="enable-background:new 0 0 750 500;" xml:space="preserve">
<g id="BACKGROUND">
</g>
<g id="OBJECTS">
	<g>
		<g>
			<path style="fill:#EFF8FA;" d="M347.379,182.766c-17.556,8.805-14.054,31.355-12.987,46.525
				c1.067,15.17-24.673,20.024-20.836,35.451c3.837,15.426,18.067,18.179,30.582,22.698c12.516,4.519,2.475,35.35,23.718,38.18
				c21.242,2.829,32.124-32.649,36.531-45.139c4.408-12.49,34.739-24.065,32.307-42.921c-2.432-18.855-22.586-18.047-40.933-26.349
				C377.416,202.906,364.935,173.961,347.379,182.766z"/>
		</g>
		<g>
			<path style="fill:#B6DCE3;" d="M394.466,293.822c2.542-10.883,6.963-28.674,11.057-39.75
				c3.698-10.006,9.532-20.994,13.645-28.254c2.747-4.856,1.513-10.998-2.926-14.372c-6.217-4.718-16.947-9.174-24.75-12.535
				c-2.601-1.12-5.426-2.098-8.308-2.926c0,0,0,0-0.012-0.004c-0.196-0.615-4.189-12.564-10.615-13.247
				c-6.606-0.696-9.081,10.436-9.081,10.436c-4.442,0.104-8.128,3.422-8.71,7.822c-0.917,6.987-2.594,17.356-5.093,24.116
				c-2.856,7.725-14.881,30.204-21.745,42.835c-2.725,5.01-0.898,11.266,4.079,14.044c7.567,4.212,18.417,9.955,26.398,12.906
				c7.492,2.77,17.073,5.042,24.144,6.518C387.924,302.539,393.213,299.178,394.466,293.822z M373.444,187.347
				c1.431,0.529,2.157,2.106,1.632,3.526c-0.529,1.431-2.107,2.157-3.538,1.628c-1.419-0.525-2.157-2.106-1.628-3.537
				C370.436,187.544,372.025,186.822,373.444,187.347z"/>
			<path style="fill:#FF555F;" d="M384.525,291.88c-2.055,2.877-18.794-2.026-28.331-5.882c-9.549-3.86-20.564-11.2-19.167-14.981
				c1.398-3.781,13.769-24.334,15.04-33.782l0.028-0.003c0.718,0.133,13.742,2.462,22.827,6.468
				c9.36,4.121,22.397,13.569,22.397,13.569s-5.679,11.786-7.204,19.487C388.592,284.457,386.581,289.003,384.525,291.88z"/>
			<path style="fill:#E83540;" d="M397.32,257.268c0,0-11.084-3.106-23.554-7.543c-12.465-4.449-21.699-12.491-21.699-12.491
				l0.028-0.003c0.718,0.133,13.742,2.462,22.827,6.468C384.282,247.82,397.32,257.268,397.32,257.268z"/>
			<path style="fill:#FFFFFF;" d="M408.338,219.591c0,0-3.586,5.658-5.809,11.673l-13.814,37.369
				c-15.547,1.526-39.766-14.7-39.766-14.7l3.693-10.312l9.005-21.458c0,0,1.786-3.4,2.451-6.632
				c0.666-3.232,1.621-11.155,1.621-11.155s8.406-0.592,22.827,5.4C402.967,215.769,408.338,219.591,408.338,219.591z"/>
			<g>
				
					<ellipse transform="matrix(0.9084 -0.4181 0.4181 0.9084 -64.3818 179.5604)" style="fill:#FF555F;" cx="377.639" cy="236.726" rx="11.917" ry="11.917"/>
				<polygon style="fill:#FFFFFF;" points="385.929,237.89 384.693,241.233 378.693,239.015 376.475,245.015 373.131,243.78 
					375.349,237.779 369.349,235.561 370.585,232.218 376.585,234.436 378.803,228.436 382.147,229.672 379.929,235.672 				"/>
			</g>
			<path style="fill:#5CBCCC;" d="M371.087,191.289c-1.019-0.033-1.828-0.887-1.79-1.918c0.068-2.117-0.325-8.636-2.87-10.767
				c-0.474-0.4-1.298-0.89-2.863-0.556c-1.107,0.239-1.914,0.813-2.535,1.814c-2.219,3.57-1.075,11.028-0.373,13.959
				c-1.367,0.513-2.549,1.385-3.173,1.895c-0.178-0.198-0.3-0.441-0.369-0.718c-0.3-1.156-2.774-11.42,0.753-17.098
				c1.151-1.862,2.814-3.033,4.912-3.487c2.312-0.494,4.4-0.026,6.036,1.345c4.394,3.674,4.228,12.711,4.195,13.73
				C372.973,190.518,372.118,191.327,371.087,191.289z"/>
		</g>
	</g>
</g>
<g id="DESIGNED_BY_FREEPIK">
</g>
</svg>
