<?xml version="1.0" encoding="iso-8859-1"?>
<!-- Generator: Adobe Illustrator 27.1.0, SVG Export Plug-In . SVG Version: 6.00 Build 0)  -->
<svg version="1.1" xmlns="http://www.w3.org/2000/svg" xmlns:xlink="http://www.w3.org/1999/xlink" x="0px" y="0px"
	 viewBox="0 0 750 500" style="enable-background:new 0 0 750 500;" xml:space="preserve">
<g id="BACKGROUND">
</g>
<g id="OBJECTS">
	<g>
		<path style="fill:#EFF8FA;" d="M349.855,195.199c-13.887,5.784-12.424,23.202-12.424,34.85c0,11.648-19.928,13.974-17.825,25.966
			c2.103,11.993,12.827,14.861,22.147,18.987c9.32,4.126-0.009,27.143,16.069,30.447c16.078,3.304,26.3-23.219,30.339-32.526
			c4.039-9.306,40.635-0.881,42.326-24.58c1.691-23.699-31.621-21.48-45.193-28.811S363.743,189.415,349.855,195.199z"/>
		<g>
			<g>
				<g>
					<path style="fill:#FF555F;" d="M370.506,238.95v48.107c0,1.152-0.591,2.168-1.484,2.76c-0.529,0.342-1.152,0.54-1.826,0.54
						h-4.606c-1.826,0-3.299-1.473-3.299-3.299V238.95H370.506z"/>
					<rect x="359.288" y="224.74" style="fill:#D8E5EB;" width="11.215" height="14.215"/>
					<rect x="359.288" y="216.957" style="fill:#281F58;" width="11.215" height="4.405"/>
				</g>
				<path style="fill:#FF6B74;" d="M370.506,238.95v48.107c0,1.152-0.591,2.168-1.484,2.76c-5.955-5.167-4.803-40.036-4.295-50.867
					H370.506z"/>
				<g>
					<path style="fill:#FF555F;" d="M400.271,250.819v36.239c0,1.058-0.498,2.002-1.276,2.604c-0.56,0.436-1.266,0.695-2.033,0.695
						h-4.606c-1.826,0-3.299-1.473-3.299-3.299v-36.239H400.271z"/>
					<rect x="389.051" y="224.74" style="fill:#D8E5EB;" width="11.215" height="26.078"/>
					<rect x="389.051" y="216.957" style="fill:#281F58;" width="11.215" height="4.405"/>
				</g>
				<rect x="352.683" y="220.335" style="fill:#281F58;" width="52.288" height="4.405"/>
				<path style="fill:#FF6B74;" d="M400.271,250.819v36.239c0,1.058-0.498,2.002-1.276,2.604
					c-5.281-7.003-4.855-30.253-4.492-38.843H400.271z"/>
			</g>
		</g>
	</g>
</g>
<g id="DESIGNED_BY_FREEPIK">
</g>
</svg>
