<?xml version="1.0" encoding="iso-8859-1"?>
<!-- Generator: Adobe Illustrator 27.1.0, SVG Export Plug-In . SVG Version: 6.00 Build 0)  -->
<svg version="1.1" id="&#x421;&#x43B;&#x43E;&#x439;_1"
	 xmlns="http://www.w3.org/2000/svg" xmlns:xlink="http://www.w3.org/1999/xlink" x="0px" y="0px" viewBox="0 0 3000 2000"
	 style="enable-background:new 0 0 3000 2000;" xml:space="preserve">
<g>
	<g>
		<path style="fill:#EBF3FA;" d="M1181.722,1223.209c0,0-86.887-90.418-14.694-188.308c64.055-86.855,138.736-80.918,193.528-45.671
			c23.337,15.012,90.62,1.85,147.886-86.528c78.095-120.524,348.802-47.426,299.443,138.003
			c-23.886,89.735,72.694,92.996,23.483,182.695L1181.722,1223.209z"/>
		<path style="fill:#ED7D2B;" d="M1302.867,924.339l-55.276,285.771c-1.124,5.812,3.328,11.209,9.249,11.209h29.153
			L1302.867,924.339z"/>
		<path style="fill:#78ACEA;" d="M1303.531,923.183l-36.638,280.582c-1.215,9.304,6.028,17.554,15.411,17.554h53.748
			l-30.304-299.149L1303.531,923.183z"/>
		<path style="fill:#699DEE;" d="M1303.531,923.183l-16.401,278.793c-0.617,10.494,7.726,19.343,18.239,19.343h80.161
			L1303.531,923.183z"/>
		<path style="fill:#5288D8;" d="M1302.916,925.459l7.974,276.517c-0.617,10.494,7.726,19.343,18.239,19.343h80.161
			L1302.916,925.459z"/>
		<path style="fill:#D7E9FF;" d="M1686.709,1221.319h-316.068c-7.892,0-14.656-5.64-16.075-13.402l-48.094-263.012
			c-2.184-11.941,6.988-22.942,19.127-22.942h312.347c7.892,0,14.656,5.639,16.076,13.402l48.763,266.673
			C1704.62,1212.074,1696.912,1221.319,1686.709,1221.319z"/>
		<path style="fill:#F99746;" d="M1312.728,979.062h349.503l-8.962-49.658c-0.778-4.308-4.527-7.442-8.905-7.442h-338.534
			c-1.85,0-3.248,1.677-2.914,3.496L1312.728,979.062z"/>
		<g>
			<g>
				<g>
					<path style="fill:#78ACEA;" d="M1320.9,907.019c-8.356,0-15.153,6.794-15.153,15.149h2.911c0-6.751,5.491-12.242,12.242-12.242
						s12.245,5.491,12.245,12.242c0,1.356-0.221,2.658-0.63,3.875c-1.203,3.598-4.032,6.456-7.612,7.694
						c-1.046,0.363-2.153,0.591-3.306,0.655v2.911c1.345-0.06,2.64-0.295,3.872-0.687c4.915-1.555,8.754-5.559,10.082-10.573
						c0.327-1.238,0.502-2.537,0.502-3.875C1336.053,913.813,1329.256,907.019,1320.9,907.019z"/>
				</g>
				<path style="fill:#78ACEA;" d="M1325.587,935.741c0,0.302-0.043,0.598-0.117,0.875c-0.384,1.388-1.655,2.406-3.164,2.406
					c-1.811,0-3.281-1.47-3.281-3.281s1.47-3.281,3.281-3.281c1.057,0,1.996,0.502,2.598,1.278
					C1325.334,934.293,1325.587,934.987,1325.587,935.741z"/>
			</g>
			<g>
				<g>
					<path style="fill:#78ACEA;" d="M1375.227,907.019c-8.356,0-15.153,6.794-15.153,15.149h2.908
						c0-6.751,5.495-12.242,12.246-12.242c6.751,0,12.242,5.491,12.242,12.242c0,1.356-0.221,2.658-0.63,3.875
						c-1.203,3.598-4.032,6.456-7.609,7.694c-1.046,0.363-2.157,0.591-3.31,0.655v2.911c1.345-0.06,2.641-0.295,3.872-0.687
						c4.918-1.555,8.758-5.559,10.085-10.573c0.327-1.238,0.502-2.537,0.502-3.875
						C1390.38,913.813,1383.583,907.019,1375.227,907.019z"/>
				</g>
				<path style="fill:#78ACEA;" d="M1379.91,935.741c0,0.302-0.043,0.598-0.117,0.875c-0.384,1.388-1.651,2.406-3.164,2.406
					c-1.811,0-3.281-1.47-3.281-3.281s1.47-3.281,3.281-3.281c1.06,0,2,0.502,2.601,1.278
					C1379.658,934.293,1379.91,934.987,1379.91,935.741z"/>
			</g>
			<g>
				<g>
					<path style="fill:#78ACEA;" d="M1429.554,907.019c-8.356,0-15.153,6.794-15.153,15.149h2.907
						c0-6.751,5.491-12.242,12.245-12.242c6.751,0,12.242,5.491,12.242,12.242c0,1.356-0.221,2.658-0.63,3.875
						c-1.203,3.598-4.032,6.456-7.609,7.694c-1.046,0.363-2.156,0.591-3.31,0.655v2.911c1.342-0.06,2.641-0.295,3.872-0.687
						c4.918-1.559,8.755-5.559,10.082-10.573c0.327-1.238,0.502-2.537,0.502-3.875
						C1444.704,913.813,1437.906,907.019,1429.554,907.019z"/>
				</g>
				<path style="fill:#78ACEA;" d="M1434.238,935.741c0,0.302-0.043,0.598-0.117,0.875c-0.384,1.388-1.655,2.406-3.164,2.406
					c-1.811,0-3.281-1.47-3.281-3.281s1.47-3.281,3.281-3.281c1.057,0,1.997,0.502,2.602,1.278
					C1433.985,934.293,1434.238,934.987,1434.238,935.741z"/>
			</g>
			<g>
				<g>
					<path style="fill:#78ACEA;" d="M1483.878,907.019c-8.356,0-15.15,6.794-15.15,15.149h2.908c0-6.751,5.491-12.242,12.242-12.242
						c6.751,0,12.245,5.491,12.245,12.242c0,1.356-0.221,2.658-0.63,3.875c-1.203,3.598-4.032,6.456-7.612,7.694
						c-1.047,0.363-2.153,0.591-3.306,0.655v2.911c1.341-0.06,2.641-0.295,3.872-0.687c4.918-1.559,8.754-5.559,10.082-10.573
						c0.327-1.238,0.502-2.537,0.502-3.875C1499.031,913.813,1492.234,907.019,1483.878,907.019z"/>
				</g>
				<path style="fill:#78ACEA;" d="M1488.565,935.741c0,0.302-0.043,0.598-0.117,0.875c-0.384,1.388-1.655,2.406-3.164,2.406
					c-1.812,0-3.281-1.47-3.281-3.281s1.47-3.281,3.281-3.281c1.057,0,1.996,0.502,2.598,1.278
					C1488.312,934.293,1488.565,934.987,1488.565,935.741z"/>
			</g>
			<g>
				<g>
					<path style="fill:#78ACEA;" d="M1538.205,907.019c-8.356,0-15.153,6.794-15.153,15.149h2.908
						c0-6.751,5.495-12.242,12.245-12.242c6.751,0,12.242,5.491,12.242,12.242c0,1.356-0.221,2.658-0.63,3.875
						c-1.203,3.598-4.032,6.456-7.612,7.694c-1.043,0.363-2.153,0.591-3.306,0.655v2.911c1.345-0.06,2.641-0.295,3.872-0.687
						c4.918-1.555,8.758-5.559,10.086-10.573c0.328-1.238,0.502-2.537,0.502-3.875
						C1553.358,913.813,1546.561,907.019,1538.205,907.019z"/>
				</g>
				<path style="fill:#78ACEA;" d="M1542.889,935.741c0,0.302-0.043,0.598-0.118,0.875c-0.384,1.388-1.651,2.406-3.164,2.406
					c-1.811,0-3.281-1.47-3.281-3.281s1.47-3.281,3.281-3.281c1.061,0,2,0.502,2.598,1.278
					C1542.636,934.293,1542.889,934.987,1542.889,935.741z"/>
			</g>
			<g>
				<g>
					<path style="fill:#78ACEA;" d="M1592.532,907.019c-8.356,0-15.153,6.794-15.153,15.149h2.908
						c0-6.751,5.491-12.242,12.245-12.242c6.751,0,12.242,5.491,12.242,12.242c0,1.356-0.221,2.658-0.63,3.875
						c-1.203,3.598-4.032,6.456-7.612,7.694c-1.042,0.363-2.153,0.591-3.306,0.655v2.911c1.345-0.06,2.641-0.295,3.872-0.687
						c4.915-1.555,8.754-5.559,10.082-10.573c0.327-1.238,0.501-2.537,0.501-3.875
						C1607.682,913.813,1600.885,907.019,1592.532,907.019z"/>
				</g>
				<path style="fill:#78ACEA;" d="M1597.216,935.741c0,0.302-0.043,0.598-0.117,0.875c-0.385,1.388-1.655,2.406-3.164,2.406
					c-1.812,0-3.281-1.47-3.281-3.281s1.47-3.281,3.281-3.281c1.057,0,1.996,0.502,2.598,1.278
					C1596.963,934.293,1597.216,934.987,1597.216,935.741z"/>
			</g>
			<g>
				<g>
					<path style="fill:#78ACEA;" d="M1646.856,907.019c-8.356,0-15.15,6.794-15.15,15.149h2.907c0-6.751,5.491-12.242,12.242-12.242
						c6.751,0,12.245,5.491,12.245,12.242c0,1.356-0.22,2.658-0.63,3.875c-1.203,3.598-4.032,6.456-7.612,7.694
						c-1.046,0.363-2.153,0.591-3.306,0.655v2.911c1.345-0.06,2.641-0.295,3.872-0.687c4.915-1.555,8.755-5.559,10.082-10.573
						c0.327-1.238,0.502-2.537,0.502-3.875C1662.009,913.813,1655.212,907.019,1646.856,907.019z"/>
				</g>
				<path style="fill:#78ACEA;" d="M1651.543,935.741c0,0.302-0.043,0.598-0.118,0.875c-0.384,1.388-1.655,2.406-3.164,2.406
					c-1.812,0-3.281-1.47-3.281-3.281s1.47-3.281,3.281-3.281c1.057,0,1.996,0.502,2.598,1.278
					C1651.291,934.293,1651.543,934.987,1651.543,935.741z"/>
			</g>
		</g>
		<g>
			<path style="fill:#AFCDFB;" d="M1514.842,1072.35h-17.668c-2.042,0-4.036-1.671-4.43-3.714l-3.408-17.668
				c-0.394-2.042,0.955-3.714,2.997-3.714h17.668c2.043,0,4.036,1.671,4.43,3.714l3.408,17.668
				C1518.234,1070.679,1516.885,1072.35,1514.842,1072.35z"/>
			<path style="fill:#AFCDFB;" d="M1559.426,1072.35h-17.668c-2.042,0-4.036-1.671-4.43-3.714l-3.408-17.668
				c-0.394-2.042,0.955-3.714,2.997-3.714h17.668c2.042,0,4.036,1.671,4.43,3.714l3.408,17.668
				C1562.817,1070.679,1561.468,1072.35,1559.426,1072.35z"/>
			<path style="fill:#78ACEA;" d="M1604.009,1072.35h-17.668c-2.043,0-4.036-1.671-4.43-3.714l-3.408-17.668
				c-0.394-2.042,0.955-3.714,2.997-3.714h17.668c2.043,0,4.036,1.671,4.43,3.714l3.408,17.668
				C1607.4,1070.679,1606.051,1072.35,1604.009,1072.35z"/>
			<path style="fill:#AFCDFB;" d="M1381.093,1072.35h-17.668c-2.042,0-4.036-1.671-4.43-3.714l-3.408-17.668
				c-0.394-2.042,0.955-3.714,2.997-3.714h17.668c2.042,0,4.036,1.671,4.43,3.714l3.408,17.668
				C1384.484,1070.679,1383.135,1072.35,1381.093,1072.35z"/>
			<path style="fill:#F99746;" d="M1361.729,1019.307h-7.592c-0.878,0-1.734-0.718-1.904-1.596l-1.465-7.593
				c-0.169-0.878,0.41-1.596,1.288-1.596h7.593c0.878,0,1.734,0.718,1.904,1.596l1.465,7.593
				C1363.186,1018.589,1362.607,1019.307,1361.729,1019.307z"/>
			<path style="fill:#AFCDFB;" d="M1425.676,1072.35h-17.668c-2.042,0-4.036-1.671-4.43-3.714l-3.408-17.668
				c-0.394-2.042,0.955-3.714,2.997-3.714h17.668c2.042,0,4.036,1.671,4.43,3.714l3.408,17.668
				C1429.067,1070.679,1427.719,1072.35,1425.676,1072.35z"/>
			<path style="fill:#AFCDFB;" d="M1470.259,1072.35h-17.668c-2.042,0-4.036-1.671-4.43-3.714l-3.408-17.668
				c-0.394-2.042,0.955-3.714,2.997-3.714h17.668c2.043,0,4.036,1.671,4.43,3.714l3.408,17.668
				C1473.65,1070.679,1472.302,1072.35,1470.259,1072.35z"/>
			<path style="fill:#78ACEA;" d="M1648.592,1072.35h-17.668c-2.042,0-4.036-1.671-4.43-3.714l-3.408-17.668
				c-0.394-2.042,0.955-3.714,2.997-3.714h17.668c2.043,0,4.036,1.671,4.43,3.714l3.408,17.668
				C1651.983,1070.679,1650.634,1072.35,1648.592,1072.35z"/>
			<path style="fill:#AFCDFB;" d="M1507.44,1033.977h-17.668c-2.042,0-4.036-1.671-4.43-3.714l-3.408-17.668
				c-0.394-2.043,0.955-3.714,2.997-3.714h17.668c2.042,0,4.036,1.671,4.43,3.714l3.408,17.668
				C1510.832,1032.305,1509.483,1033.977,1507.44,1033.977z"/>
			<path style="fill:#AFCDFB;" d="M1552.024,1033.977h-17.668c-2.043,0-4.036-1.671-4.43-3.714l-3.408-17.668
				c-0.394-2.043,0.955-3.714,2.997-3.714h17.668c2.043,0,4.036,1.671,4.43,3.714l3.408,17.668
				C1555.415,1032.305,1554.066,1033.977,1552.024,1033.977z"/>
			<path style="fill:#78ACEA;" d="M1596.607,1033.977h-17.668c-2.043,0-4.036-1.671-4.43-3.714l-3.408-17.668
				c-0.394-2.043,0.955-3.714,2.997-3.714h17.668c2.042,0,4.036,1.671,4.43,3.714l3.408,17.668
				C1599.998,1032.305,1598.649,1033.977,1596.607,1033.977z"/>
			<path style="fill:#78ACEA;" d="M1641.19,1033.977h-17.668c-2.042,0-4.036-1.671-4.43-3.714l-3.408-17.668
				c-0.394-2.043,0.955-3.714,2.997-3.714h17.668c2.042,0,4.036,1.671,4.43,3.714l3.408,17.668
				C1644.581,1032.305,1643.232,1033.977,1641.19,1033.977z"/>
			<path style="fill:#AFCDFB;" d="M1522.688,1113.021h-17.668c-2.042,0-4.036-1.671-4.43-3.714l-3.408-17.668
				c-0.394-2.042,0.954-3.714,2.997-3.714h17.668c2.043,0,4.036,1.671,4.43,3.714l3.408,17.668
				C1526.079,1111.35,1524.73,1113.021,1522.688,1113.021z"/>
			<path style="fill:#AFCDFB;" d="M1567.271,1113.021h-17.668c-2.042,0-4.036-1.671-4.43-3.714l-3.408-17.668
				c-0.394-2.042,0.955-3.714,2.997-3.714h17.668c2.043,0,4.036,1.671,4.43,3.714l3.408,17.668
				C1570.662,1111.35,1569.313,1113.021,1567.271,1113.021z"/>
			<path style="fill:#78ACEA;" d="M1611.854,1113.021h-17.668c-2.042,0-4.036-1.671-4.43-3.714l-3.408-17.668
				c-0.394-2.042,0.955-3.714,2.997-3.714h17.668c2.042,0,4.036,1.671,4.43,3.714l3.408,17.668
				C1615.245,1111.35,1613.897,1113.021,1611.854,1113.021z"/>
			<path style="fill:#AFCDFB;" d="M1388.938,1113.021h-17.668c-2.042,0-4.036-1.671-4.43-3.714l-3.408-17.668
				c-0.394-2.042,0.955-3.714,2.997-3.714h17.668c2.042,0,4.036,1.671,4.43,3.714l3.408,17.668
				C1392.33,1111.35,1390.981,1113.021,1388.938,1113.021z"/>
			<path style="fill:#AFCDFB;" d="M1433.521,1113.021h-17.668c-2.042,0-4.036-1.671-4.43-3.714l-3.408-17.668
				c-0.394-2.042,0.955-3.714,2.997-3.714h17.668c2.042,0,4.036,1.671,4.43,3.714l3.408,17.668
				C1436.913,1111.35,1435.564,1113.021,1433.521,1113.021z"/>
			<path style="fill:#AFCDFB;" d="M1478.105,1113.021h-17.668c-2.043,0-4.036-1.671-4.43-3.714l-3.408-17.668
				c-0.394-2.042,0.955-3.714,2.997-3.714h17.668c2.042,0,4.036,1.671,4.43,3.714l3.408,17.668
				C1481.496,1111.35,1480.147,1113.021,1478.105,1113.021z"/>
			<path style="fill:#78ACEA;" d="M1656.437,1113.021h-17.668c-2.043,0-4.036-1.671-4.43-3.714l-3.408-17.668
				c-0.394-2.042,0.955-3.714,2.997-3.714h17.668c2.042,0,4.036,1.671,4.43,3.714l3.408,17.668
				C1659.828,1111.35,1658.48,1113.021,1656.437,1113.021z"/>
			<path style="fill:#AFCDFB;" d="M1530.533,1153.693h-17.668c-2.043,0-4.036-1.671-4.43-3.714l-3.408-17.668
				c-0.394-2.042,0.955-3.714,2.997-3.714h17.668c2.042,0,4.036,1.671,4.43,3.714l3.408,17.668
				C1533.925,1152.022,1532.576,1153.693,1530.533,1153.693z"/>
			<path style="fill:#AFCDFB;" d="M1575.116,1153.693h-17.668c-2.043,0-4.036-1.671-4.43-3.714l-3.408-17.668
				c-0.394-2.042,0.954-3.714,2.997-3.714h17.668c2.043,0,4.036,1.671,4.43,3.714l3.408,17.668
				C1578.508,1152.022,1577.159,1153.693,1575.116,1153.693z"/>
			<path style="fill:#78ACEA;" d="M1619.699,1153.693h-17.668c-2.042,0-4.036-1.671-4.43-3.714l-3.408-17.668
				c-0.394-2.042,0.955-3.714,2.997-3.714h17.668c2.043,0,4.036,1.671,4.43,3.714l3.408,17.668
				C1623.091,1152.022,1621.742,1153.693,1619.699,1153.693z"/>
			<path style="fill:#AFCDFB;" d="M1396.784,1153.693h-17.668c-2.042,0-4.036-1.671-4.43-3.714l-3.408-17.668
				c-0.394-2.042,0.955-3.714,2.997-3.714h17.668c2.042,0,4.036,1.671,4.43,3.714l3.408,17.668
				C1400.175,1152.022,1398.826,1153.693,1396.784,1153.693z"/>
			<path style="fill:#F99746;" d="M1441.367,1153.693h-17.668c-2.042,0-4.036-1.671-4.43-3.714l-3.408-17.668
				c-0.394-2.042,0.955-3.714,2.997-3.714h17.668c2.042,0,4.036,1.671,4.43,3.714l3.408,17.668
				C1444.758,1152.022,1443.409,1153.693,1441.367,1153.693z"/>
			<path style="fill:#AFCDFB;" d="M1485.95,1153.693h-17.668c-2.043,0-4.036-1.671-4.43-3.714l-3.408-17.668
				c-0.394-2.042,0.955-3.714,2.997-3.714h17.668c2.042,0,4.036,1.671,4.43,3.714l3.408,17.668
				C1489.341,1152.022,1487.993,1153.693,1485.95,1153.693z"/>
			<path style="fill:#78ACEA;" d="M1664.283,1153.693h-17.668c-2.042,0-4.036-1.671-4.43-3.714l-3.408-17.668
				c-0.394-2.042,0.955-3.714,2.997-3.714h17.668c2.043,0,4.036,1.671,4.43,3.714l3.408,17.668
				C1667.674,1152.022,1666.325,1153.693,1664.283,1153.693z"/>
			<path style="fill:#AFCDFB;" d="M1537.935,1192.066h-17.668c-2.043,0-4.036-1.671-4.43-3.714l-3.408-17.668
				c-0.394-2.042,0.955-3.714,2.997-3.714h17.668c2.042,0,4.036,1.671,4.43,3.714l3.408,17.668
				C1541.327,1190.395,1539.978,1192.066,1537.935,1192.066z"/>
			<path style="fill:#AFCDFB;" d="M1582.519,1192.066h-17.668c-2.043,0-4.036-1.671-4.43-3.714l-3.408-17.668
				c-0.394-2.042,0.955-3.714,2.997-3.714h17.668c2.042,0,4.036,1.671,4.43,3.714l3.408,17.668
				C1585.91,1190.395,1584.561,1192.066,1582.519,1192.066z"/>
			<path style="fill:#78ACEA;" d="M1627.102,1192.066h-17.668c-2.043,0-4.036-1.671-4.43-3.714l-3.408-17.668
				c-0.394-2.042,0.955-3.714,2.997-3.714h17.668c2.043,0,4.036,1.671,4.43,3.714l3.408,17.668
				C1630.493,1190.395,1629.144,1192.066,1627.102,1192.066z"/>
			<path style="fill:#AFCDFB;" d="M1404.186,1192.066h-17.668c-2.043,0-4.036-1.671-4.43-3.714l-3.408-17.668
				c-0.394-2.042,0.955-3.714,2.997-3.714h17.668c2.042,0,4.036,1.671,4.43,3.714l3.408,17.668
				C1407.577,1190.395,1406.228,1192.066,1404.186,1192.066z"/>
			<path style="fill:#AFCDFB;" d="M1448.769,1192.066h-17.668c-2.042,0-4.036-1.671-4.43-3.714l-3.408-17.668
				c-0.394-2.042,0.955-3.714,2.997-3.714h17.668c2.043,0,4.036,1.671,4.43,3.714l3.408,17.668
				C1452.16,1190.395,1450.811,1192.066,1448.769,1192.066z"/>
			<path style="fill:#AFCDFB;" d="M1493.352,1192.066h-17.668c-2.042,0-4.036-1.671-4.43-3.714l-3.408-17.668
				c-0.394-2.042,0.955-3.714,2.997-3.714h17.668c2.042,0,4.036,1.671,4.43,3.714l3.408,17.668
				C1496.743,1190.395,1495.395,1192.066,1493.352,1192.066z"/>
			<path style="fill:#AFCDFB;" d="M1415.279,1012.335h-46.807c-0.69,0-1.254-0.564-1.254-1.254l0,0c0-0.69,0.564-1.254,1.254-1.254
				h46.807c0.69,0,1.254,0.565,1.254,1.254l0,0C1416.533,1011.77,1415.968,1012.335,1415.279,1012.335z"/>
			<path style="fill:#AFCDFB;" d="M1416.702,1018.003h-46.807c-0.69,0-1.254-0.564-1.254-1.254l0,0c0-0.69,0.564-1.254,1.254-1.254
				h46.807c0.69,0,1.254,0.564,1.254,1.254l0,0C1417.956,1017.439,1417.392,1018.003,1416.702,1018.003z"/>
		</g>
		<g>
			<path style="fill:#FFFFFF;" d="M1365.078,970.122h-16.062c-1.316,0-2.392-1.076-2.392-2.392l0,0c0-1.316,1.077-2.392,2.392-2.392
				h16.062c1.316,0,2.392,1.077,2.392,2.392l0,0C1367.47,969.046,1366.394,970.122,1365.078,970.122z"/>
			<path style="fill:#FFFFFF;" d="M1409.152,970.122h-16.062c-1.316,0-2.392-1.076-2.392-2.392l0,0c0-1.316,1.076-2.392,2.392-2.392
				h16.062c1.316,0,2.392,1.077,2.392,2.392l0,0C1411.544,969.046,1410.468,970.122,1409.152,970.122z"/>
			<path style="fill:#FFFFFF;" d="M1453.226,970.122h-16.062c-1.316,0-2.392-1.076-2.392-2.392l0,0c0-1.316,1.077-2.392,2.392-2.392
				h16.062c1.316,0,2.392,1.077,2.392,2.392l0,0C1455.618,969.046,1454.541,970.122,1453.226,970.122z"/>
			<path style="fill:#FFFFFF;" d="M1497.299,970.122h-16.062c-1.316,0-2.392-1.076-2.392-2.392l0,0c0-1.316,1.077-2.392,2.392-2.392
				h16.062c1.316,0,2.392,1.077,2.392,2.392l0,0C1499.692,969.046,1498.615,970.122,1497.299,970.122z"/>
			<path style="fill:#FFFFFF;" d="M1541.373,970.122h-16.062c-1.316,0-2.392-1.076-2.392-2.392l0,0c0-1.316,1.076-2.392,2.392-2.392
				h16.062c1.316,0,2.392,1.077,2.392,2.392l0,0C1543.765,969.046,1542.689,970.122,1541.373,970.122z"/>
			<path style="fill:#FFFFFF;" d="M1585.447,970.122h-16.062c-1.316,0-2.392-1.076-2.392-2.392l0,0c0-1.316,1.077-2.392,2.392-2.392
				h16.062c1.316,0,2.392,1.077,2.392,2.392l0,0C1587.839,969.046,1586.762,970.122,1585.447,970.122z"/>
			<path style="fill:#FFFFFF;" d="M1629.52,970.122h-16.062c-1.316,0-2.392-1.076-2.392-2.392l0,0c0-1.316,1.076-2.392,2.392-2.392
				h16.062c1.316,0,2.392,1.077,2.392,2.392l0,0C1631.913,969.046,1630.836,970.122,1629.52,970.122z"/>
		</g>
		<g>
			<path style="fill:#C65447;" d="M1527.933,1034.324c-3.547,0-6.13-1.126-7.537-3.311c-2.699-4.19-0.616-10.062,6.193-17.456
				c4.973-5.399,10.779-9.678,10.838-9.72c0.227-0.167,0.549-0.118,0.716,0.11c0.167,0.228,0.118,0.549-0.11,0.716
				c-0.227,0.167-22.609,16.739-16.775,25.794c1.848,2.869,5.805,3.059,8.802,2.712c5.545-0.641,12.776-3.628,19.341-7.989
				c6.796-4.514,11.583-9.601,13.134-13.957c1.017-2.858,0.703-4.882-0.937-6.016c-2.117-1.466-6.541-1.467-11.832-0.004
				c-5.068,1.401-10.169,3.924-13.312,6.584c-0.216,0.183-0.54,0.155-0.723-0.061c-0.183-0.216-0.156-0.539,0.06-0.722
				c3.249-2.749,8.499-5.351,13.701-6.789c5.664-1.566,10.289-1.512,12.689,0.149c1.422,0.983,2.804,3.032,1.319,7.203
				c-1.624,4.56-6.557,9.834-13.533,14.467c-6.694,4.446-14.093,7.494-19.791,8.153
				C1529.393,1034.279,1528.644,1034.324,1527.933,1034.324z"/>
		</g>
		<g>
			<path style="fill:#FFB27D;" d="M1620.677,1005.2l-1.823-3.44c0,0,0.905-6.13-6.776-10.007c0,0-2.807-1.143-4.392,1.146
				c-1.459,2.109,2.782,1.728,2.554,5.336c-0.227,3.608,1.484,5.724,3.868,6.9l1.97,2.282L1620.677,1005.2z"/>
			<path style="fill:#233862;" d="M1693.263,996.976c0,0-6.596,32.374-42.893,42.952c-11.331,3.302-37.072-34.001-37.072-34.001
				s0.905-3.439,6.575-2.649c0,0,25.064,16.593,28.219,18.395c2.8,1.6,21.213-20.56,29.607-24.135
				C1686.092,993.963,1693.263,996.976,1693.263,996.976z"/>
			<g>
				
					<rect x="1603.616" y="976.575" transform="matrix(-0.1821 -0.9833 0.9833 -0.1821 920.3857 2758.9001)" style="fill:#C65447;" width="7.988" height="40.181"/>
				<polygon style="fill:#FFB27D;" points="1578.67,1002.024 1588.582,1004.25 1587.128,996.396 				"/>
				<path style="fill:#FFB27D;" d="M1631.713,990.835l0.46,2.483c0.282,1.527-0.726,2.995-2.254,3.278l-1.827,0.338l-1.455-7.854
					l1.988-0.368C1630.064,988.445,1631.446,989.396,1631.713,990.835z"/>
			</g>
			<g>
				<path style="fill:#233862;" d="M1736.598,1200.489c0,0,4.503,4.11,3.624,7.029c-0.879,2.92-4.942,4.867-5.491,8.435
					c-0.549,3.569-2.746,5.515-4.723,5.515c-1.977,0-9.425,0-9.425,0s-1.455-2.511,2.059-3.268c3.514-0.757,4.84-4.951,4.62-8.844
					c-0.22-3.893,0.329-9.084,0.329-9.084l7.468-1.73L1736.598,1200.489z"/>
				<path style="fill:#233862;" d="M1681.355,1211.117c0,0,0.808,9.352-1.169,10.325l-25.3-0.052c0,0,0-2.92,4.064-3.569
					s11.202-3.028,12.411-8.327C1672.569,1204.196,1681.355,1211.117,1681.355,1211.117z"/>
				<path style="fill:#F99746;" d="M1659.995,1079.01c0,0,1.334,16.393,2.903,36.099c2.132,26.768,4.695,59.649,4.949,65.878
					c0.438,10.817,2.198,28.118,2.198,28.118s4.172,4.11,12.52,2.378c0,0,7.44-24.699,9.565-50.831
					c0.033-0.428,0.066-0.859,0.099-1.291c1.977-26.603,5.051-82.622,5.051-82.622L1659.995,1079.01z"/>
				<path style="fill:#ED7D2B;" d="M1659.995,1079.01c0,0,1.334,16.393,2.903,36.099l29.232,45.543
					c0.033-0.428,0.066-0.859,0.099-1.291c1.977-26.603,5.051-82.622,5.051-82.622L1659.995,1079.01z"/>
				<path style="fill:#F99746;" d="M1666.089,1080.956c0,0,24.052,59.37,39.867,87.271c15.815,27.901,20.757,35.687,20.757,35.687
					s9.061-3.569,9.885-6.002c0,0-6.048-53.864-16.639-66.995c-5.985-7.419-13.015-29.685-13.344-37.471
					c-0.329-7.786-2.142-23.196-2.142-23.196L1666.089,1080.956z"/>
			</g>
			<path style="fill:#FFB27D;" d="M1697.735,989.462c0,0-16.274,7.852-25.656,4.939c0,0,2.309-2.913,6.351-5.081
				c-0.325-1.883-0.577-3.518-0.722-4.903c-0.397-3.198-0.397-5.01-0.397-5.01l6.279-4.938l5.954-4.726
				C1689.074,983.031,1697.735,989.462,1697.735,989.462z"/>
			<path style="fill:#2B478B;" d="M1658.967,1080.363c0.287,0.25,0.613,0.389,0.977,0.389c3.535-0.072,13.819,1.881,22.513,0.994
				c7.362-0.711,13.857-2.841,20.821-5.895c0.939-0.427,3.07-1.565,3.032-2.558c-0.038-1.137-0.144-2.736-0.287-4.799
				c-0.292-4.059-0.702-9.823-0.833-16.656c-0.097-5.066-0.042-10.719,0.326-16.707c0.021-0.402,0.042-0.808,0.059-1.214
				c0.106-2.195,0.156-4.406,0.156-6.567c0.038-6.965-0.465-13.608-1.476-19.54c-1.772-10.305-5.091-18.369-9.996-21.959
				c-0.651-0.499-4.694,1.455-8.444,3.269c-3.429,1.67-6.855,1.848-10.102,1.209l-3.247,2.841
				c-3.937,3.586-8.267,8.525-10.178,15.988c-1.586,6.326-2.524,17.764-3.032,29.634c-0.249,5.4-0.431,10.8-0.503,15.95v0.177
				c-0.038,0.533-0.038,1.07-0.038,1.603C1658.536,1069.703,1658.714,1080.186,1658.967,1080.363z"/>
			<path style="fill:#ED985F;" d="M1689.651,974.824c0,0-4.114,7.497-11.944,9.593c-0.397-3.198-0.397-5.01-0.397-5.01l6.279-4.938
				L1689.651,974.824z"/>
			<path style="fill:#FFB27D;" d="M1674.448,979.191c0,0,15.525,2.539,16.982-7.005c1.457-9.544,4.442-15.644-5.408-17.669
				c-9.851-2.025-12.337,1.331-13.611,4.4C1671.138,961.986,1670.447,978.284,1674.448,979.191z"/>
			<path style="fill:#2C3A64;" d="M1697.072,953.374c0.141-0.161,0.466-0.292,1.19-0.331c0,0-0.578-0.362-1.352-0.381
				c-0.151-1.006-0.686-2.786-2.418-3.219c0,0,0.93,0.496,1.052,1.565c-2.005-2.06-6.302-3.559-18.2-2.619
				c-15.68,1.238-10.512,11.277-8.482,12.474c2.03,1.197,7.14-2.084,10.922-1.784c3.782,0.3,4.502,5.766,5.785,6.515
				c1.283,0.75,0.779-0.576,2.515-1.361c1.736-0.785,1.901,2.092,1.4,3.962c-0.501,1.87,1.884,4.337,1.884,4.337s0,0,2.41-2.596
				c2.41-2.596,4.682-13.592,3.587-15.936C1697.267,953.795,1697.171,953.585,1697.072,953.374z"/>
			<path style="fill:#FFB27D;" d="M1618.82,1001.597c0,0,0.534-2.11-0.93-3.058c-1.464-0.949-2.81-3.528-3.427-3.178
				c-1.278,0.724,0.7,2.974,0.338,5.782C1614.674,1002.125,1616.963,1004.7,1618.82,1001.597z"/>
			<path style="fill:#233862;" d="M1705.19,1051.837c-0.097-5.066-0.042-10.719,0.326-16.707c0.021-0.402,0.042-0.808,0.059-1.214
				c-1.476-7.311-3.708-13.798-6.994-14.009C1698.581,1019.907,1688.791,1035.291,1705.19,1051.837z"/>
			<path style="fill:#FFB27D;" d="M1718.139,1078.366c0,0-0.816,7.933-1.711,9.433c-0.895,1.5-4.707,6.295-6.331,7.236
				c-1.624,0.941,0.991-6.318,0.661-7.73c-0.331-1.413-1.337,2.578-2.052,2.671c-0.716,0.094-0.532-3.497-0.557-4.804
				c-0.026-1.307,3.482-4.533,4.719-7.316C1714.103,1075.073,1718.139,1078.366,1718.139,1078.366z"/>
			<path style="fill:#2B478B;" d="M1694.251,985.771c0,0,9.823,4.651,14.533,11.802c7.306,11.092,15.773,51.517,15.93,55.261
				c0.156,3.743-6.181,30.172-6.181,30.172s-6.427-0.424-8.085-3.668c0,0,1.284-27.154,0.47-28.9
				c-0.813-1.746-26.795-36.425-23.873-43.825C1689.967,999.213,1694.251,985.771,1694.251,985.771z"/>
			<polygon style="fill:#C65447;" points="1583.749,998.644 1584.267,1003.281 1578.67,1002.024 			"/>
		</g>
		<path style="fill:#2E3552;" d="M1885.25,1223.271h-840.659c-0.615,0-1.118-0.503-1.118-1.118v0c0-0.615,0.503-1.118,1.118-1.118
			h840.659c0.615,0,1.118,0.503,1.118,1.118l0,0C1886.368,1222.768,1885.865,1223.271,1885.25,1223.271z"/>
	</g>
</g>
</svg>
