<?xml version="1.0" encoding="iso-8859-1"?>
<!-- Generator: Adobe Illustrator 27.1.0, SVG Export Plug-In . SVG Version: 6.00 Build 0)  -->
<svg version="1.1" id="Calque_1" xmlns="http://www.w3.org/2000/svg" xmlns:xlink="http://www.w3.org/1999/xlink" x="0px" y="0px"
	 viewBox="0 0 595.276 841.89" style="enable-background:new 0 0 595.276 841.89;" xml:space="preserve">
<g>
	<path style="fill:#F46291;" d="M330.104,395.911c-6.548-6.548-17.155-6.548-23.702,0l-2.582,2.595l-2.595-2.595
		c-6.548-6.548-17.168-6.548-23.702,0c-3.274,3.274-4.911,7.559-4.911,11.844c0,4.299,1.637,8.584,4.911,11.858l5.55,5.55
		l12.909,12.909c0.022,0.023,0.045,0.045,0.068,0.067c4.251,4.204,11.278,4.204,15.529,0c0.023-0.022,0.045-0.045,0.068-0.067
		l12.909-12.909l5.55-5.55c3.274-3.274,4.911-7.559,4.911-11.858C335.014,403.47,333.377,399.185,330.104,395.911z"/>
	<g>
		<polygon style="fill:#FAF7F9;" points="317.018,412.389 308.398,412.389 308.398,403.768 299.685,403.768 299.685,412.389 
			291.065,412.389 291.065,421.102 299.685,421.102 299.685,429.722 308.398,429.722 308.398,421.102 317.018,421.102 		"/>
	</g>
</g>
</svg>
