<?xml version="1.0" encoding="iso-8859-1"?>
<!-- Generator: Adobe Illustrator 27.1.0, SVG Export Plug-In . SVG Version: 6.00 Build 0)  -->
<svg version="1.1" id="Layer_1" xmlns="http://www.w3.org/2000/svg" xmlns:xlink="http://www.w3.org/1999/xlink" x="0px" y="0px"
	 viewBox="0 0 450 450" style="enable-background:new 0 0 450 450;" xml:space="preserve">
<g id="_x36_">
	<g id="woman_1_">
		<g id="hand_x5F_L_3_">
			<path style="fill:#904679;" d="M246.778,136.456l-7.101,38.989c-1.94-0.947-14.542-3.109-16.731-4.635l-7.416,9.61
				c2.158,1.786,31.689,13.283,31.689,13.283l1.627-6.358l14.218-54.52l-7.054-1.805
				C251.961,129.984,247.836,132.413,246.778,136.456z"/>
			<path style="fill:#FFA187;" d="M224.062,174.327c0,3.937-3.59,7.128-8.019,7.128c-4.428,0-8.018-3.191-8.018-7.128
				c0-3.936,3.59-7.127,8.018-7.127C220.472,167.2,224.062,170.391,224.062,174.327z"/>
		</g>
		<g id="hair_x5F_back_4_">
			<path style="fill:#913E00;" d="M262.082,123.577c-1.084,9.67-5.733,17.086-10.384,16.565c-4.651-0.521-7.543-8.783-6.459-18.453
				c1.084-9.67,5.733-17.086,10.384-16.565C260.274,105.646,263.165,113.907,262.082,123.577z"/>
			<path style="fill:#913E00;" d="M272.421,83.767c0.866,5.013-3.037,9.874-8.718,10.856c-5.681,0.982-10.989-2.286-11.856-7.3
				c-0.867-5.013,3.037-9.874,8.718-10.856C266.247,75.486,271.555,78.754,272.421,83.767z"/>
			<path style="fill:#913E00;" d="M283.058,80.631c0,0,9.719,11.889,0,32.443c-9.719,20.554,7.071,19.251,7.071,19.251
				s-6.341,12.303-17.79,4.632c-11.449-7.671,6.934-47.187,6.934-47.187L283.058,80.631z"/>
		</g>
		<g id="head_6_">
			<g id="neck_6_">
				
					<rect x="259.486" y="108.208" transform="matrix(0.9837 0.1796 -0.1796 0.9837 25.9698 -45.8024)" style="fill:#FFA187;" width="12.907" height="24.629"/>
				<path id="shadow_10_" style="fill:#EF485D;" d="M258.913,123.076c4.891,0.228,9.824-3.239,13.104-8.825l0.908-4.971
					l-11.122-2.03L258.913,123.076z"/>
			</g>
			<path id="face_7_" style="fill:#FFA187;" d="M277.307,102.897c-2.462,10.803-10.477,18.189-17.902,16.497
				c-7.425-1.693-11.447-11.822-8.985-22.625c2.462-10.803,10.477-18.189,17.902-16.497
				C275.748,81.964,279.77,92.094,277.307,102.897z"/>
			<g id="hair_x5F_1_1_">
				<path style="fill:#913E00;" d="M286.321,95.968c-3.438,5.954-12.484,7.166-20.206,2.708
					c-7.722-4.459-11.196-12.899-7.758-18.853c3.438-5.954,12.484-7.166,20.206-2.708C286.285,81.574,289.759,90.014,286.321,95.968
					z"/>
			</g>
			<path id="body_3_" style="fill:#FFA187;" d="M276.41,131.502l-22.681,14.507l-1.065-17.284c3.612-0.273,7.57-0.202,11.671,0.259
				C268.681,129.473,272.769,130.336,276.41,131.502z"/>
			<g id="nose_7_">
				<path style="fill:#FFA187;" d="M254.725,105.472c-2.749,1.07-5.414,0.817-5.952-0.565c-0.538-1.382,1.255-3.37,4.004-4.44
					L254.725,105.472z"/>
				<path style="fill:#912336;" d="M251.478,106.703c-0.21,0-0.414-0.01-0.613-0.029c-1.349-0.128-2.28-0.682-2.621-1.562
					c-0.661-1.699,1.239-3.972,4.327-5.175c0.292-0.114,0.621,0.031,0.736,0.323c0.114,0.293-0.031,0.621-0.323,0.736
					c-2.622,1.021-4.044,2.771-3.681,3.704c0.175,0.451,0.784,0.759,1.671,0.843c1.036,0.097,2.295-0.117,3.545-0.601
					c0.292-0.114,0.621,0.031,0.736,0.323c0.114,0.293-0.031,0.621-0.323,0.735C253.751,106.46,252.549,106.703,251.478,106.703z"/>
			</g>
			<g id="ear_6_">
				<path style="fill:#FFA187;" d="M281.436,105.098c0,3.089-2.504,5.594-5.594,5.594c-3.089,0-5.594-2.505-5.594-5.594
					c0-3.089,2.504-5.594,5.594-5.594C278.932,99.505,281.436,102.009,281.436,105.098z"/>
				<path style="fill:#912336;" d="M277.381,107.464c-0.105,0-0.212-0.029-0.307-0.09l-3.076-1.978
					c-0.17-0.11-0.268-0.301-0.261-0.503c0.009-0.202,0.124-0.384,0.304-0.478l3.077-1.618c0.275-0.145,0.621-0.042,0.767,0.239
					c0.147,0.277,0.04,0.621-0.238,0.766l-2.213,1.164l2.257,1.451c0.264,0.17,0.34,0.522,0.171,0.786
					C277.751,107.372,277.568,107.464,277.381,107.464z"/>
			</g>
		</g>
		<g id="legs_1_">
			<g id="leg_x5F_1_1_">
				<path style="fill:#FFA187;" d="M234.942,273.281c1.863,3.408,3.113,9.588,3.113,16.666v0.034c0,3.272-0.273,6.35-0.75,9.054
					c-1.772,10.213-2.852,36.456-2.852,36.456c-1.136,1.5-2.59,3.044-4.442,4.59c-9.554,7.907-22.687,9.305-22.687,9.305l7.089-7.43
					c4.022-4.215,6.067-9.94,5.635-15.746l-4.635-60.95c-0.216-2.726,0.841-5.407,2.851-7.259l0.318-0.295l6.26-5.749l15.678-14.417
					l13.303,14.473l-18.824,17.314L234.942,273.281z"/>
				<path style="fill:#EF485D;" d="M234.999,269.328l-0.057,3.954c1.863,3.408,3.113,9.588,3.113,16.666v0.034
					c-18.279-11.202-21.688-28.424-21.688-28.424l8.475-9.6l15.678-14.417l13.303,14.473L234.999,269.328z"/>
				<path style="fill:#0234C1;" d="M234.606,335.376c-0.054,0-0.106,0.04-0.158,0.058v-0.058c-0.021,0.027-0.045,0.055-0.066,0.082
					c-0.239,0.113-0.462,0.394-0.66,0.822c-1.011,1.216-2.224,2.454-3.71,3.685c-9.554,7.914-22.685,9.307-22.685,9.307
					c-6.04,0-10.936,3.104-10.936,6.933h17.012c6.514,0,12.675-2.958,16.749-8.04l0.091,8.04h3.124l0.222-1.719
					c0.418-3.233,1.23-6.393,2.21-9.502c0.304-0.963,0.538-2.11,0.538-3.345C236.338,338.18,235.562,335.376,234.606,335.376z"/>
			</g>
			<g id="leg_x5F_2_1_">
				<path style="fill:#FFA187;" d="M277.641,297.005c-1.102,8.395-1.818,38.376-1.818,38.376c-1.136,1.5-2.579,3.045-4.442,4.579
					c-9.555,7.918-22.687,9.315-22.687,9.315l8.407-8.805c3.135-3.294,4.68-7.793,4.26-12.326
					c-0.761-8.134-1.443-16.268-2.079-24.403c-0.909-10.542-1.545-21.108-2.329-31.673c-0.159-2.602-0.409-5.214-0.511-7.827v-0.091
					l-0.216-7.93c-0.159-5.294-0.239-10.577-0.341-15.871c-0.193-10.577-0.25-21.165-0.148-31.741l19.654-0.25
					c0.67,17.95,0.784,35.9,0.738,53.861c-0.011,3.135-0.023,6.26-0.034,9.395c-0.012,1.341-0.023,2.681-0.023,4.01
					c1.238,3.556,2.022,8.589,2.022,14.178C278.095,292.348,277.936,294.779,277.641,297.005z"/>
				<path style="fill:#EF485D;" d="M276.13,260.401c-3.965,1.079-10.509,2.261-19.688,2.022v-0.091l-0.216-7.93
					c-0.159-5.294-0.239-10.577-0.341-15.871c-0.193-10.577-0.25-21.165-0.148-31.741l19.654-0.25
					C276.061,224.491,276.175,242.44,276.13,260.401z"/>
				<path style="fill:#0234C1;" d="M275.977,335.377c-0.054,0-0.158,0-0.158,0c-0.021,0.027-0.527,0.475-0.725,0.903
					c-1.011,1.216-2.224,2.454-3.71,3.685c-9.554,7.914-22.685,9.307-22.685,9.307c-6.04,0-10.936,3.104-10.936,6.932h17.012
					c6.514,0,12.675-2.957,16.749-8.04l0.091,8.04h3.125l0.222-1.719c0.418-3.233,1.23-6.393,2.21-9.502
					c0.304-0.963,0.538-2.11,0.538-3.345C277.709,338.181,276.933,335.377,275.977,335.377z"/>
			</g>
		</g>
		<path id="skirt" style="fill:#0234C1;" d="M280.334,226.854c0-11.922-4.306-21.587-9.617-21.587c-1.366,0-2.664,0.649-3.841,1.801
			l-27.885-8.695l-47.532,53.869c0,0,5.387,27.251,38.976,35.49s49.899,0,49.899,0l-0.203-2.056
			c-1.757-17.762-2.136-35.689-0.1-53.422C280.229,230.529,280.334,228.719,280.334,226.854z"/>
		<g id="blouse_5_">
			<path style="fill:#B16DE2;" d="M276.41,131.502l-22.681,14.507l-1.065-17.284c-0.579,0.041-1.296,0.123-2.056,0.225
				c-0.279,0.038-0.555,0.089-0.825,0.153c-3.687,0.869-6.184,4.332-6.284,8.119l-0.134,5.042c-0.065,2.459-0.735,4.863-1.951,7.001
				l-2.721,4.785c-1.592,2.8-1.841,6.278-0.289,9.102c0.15,0.272,0.313,0.538,0.491,0.797l3.666,5.345l-1.669,13.589
				c-0.148-0.061-0.295-0.125-0.444-0.185c-1.556-0.671-3.085-1.409-4.634-2.109l-10.65-6.173l-6.654,10.039l11.658,6.88
				c1.653,0.882,3.29,1.799,4.965,2.651c1.385,0.66,2.753,1.357,4.151,1.998l-0.293,2.39l38.232,11.113l0.431-5.157
				c1.677-1.019,2.951-2.693,3.374-4.767l0.019-0.092l9.897-48.555l1.073-3.844c0.256-0.572,0.43-1.166,0.498-1.782
				C293.104,140.022,286.455,134.683,276.41,131.502z"/>
			<g id="add_19_">
				<path style="fill:#904679;" d="M262.702,171.133c-0.109,0-0.219-0.031-0.315-0.095c-3.322-2.213-5.891-5.291-7.236-8.667
					c-0.115-0.291,0.027-0.622,0.319-0.738c0.291-0.113,0.621,0.027,0.738,0.318c1.259,3.163,3.678,6.054,6.81,8.141
					c0.261,0.174,0.332,0.527,0.158,0.788C263.065,171.044,262.885,171.133,262.702,171.133z"/>
				<path style="fill:#904679;" d="M266.135,189.377c-0.02,0-0.041-0.001-0.062-0.004c-1.327-0.145-2.494-0.298-3.566-0.468
					c-3.216-0.5-16.264-3.558-22.343-6.379c-0.284-0.132-0.407-0.469-0.275-0.755c0.131-0.283,0.468-0.411,0.755-0.275
					c5.984,2.777,18.862,5.792,22.04,6.286c0.912,0.144,1.895,0.277,2.99,0.402l6.296-33.673c0.058-0.309,0.356-0.511,0.662-0.454
					c0.309,0.058,0.511,0.354,0.454,0.662l-6.392,34.192C266.643,189.185,266.406,189.377,266.135,189.377z"/>
			</g>
			<path style="fill:#B16DE2;" d="M277.222,209.487c-0.656,2.236-9.763,1.533-20.342-1.57c-10.579-3.103-18.623-7.43-17.968-9.666
				c0.656-2.236,9.763-1.533,20.342,1.57C269.834,202.924,277.878,207.251,277.222,209.487z"/>
			<path style="fill:#904679;" d="M225.107,175.492c-0.297,1.092-1.16,2.792-2.374,4.586c-1.673,2.495-3.439,4.316-4.195,4.356
				c-0.081,0-0.148-0.014-0.202-0.054c-0.04-0.027-0.081-0.068-0.094-0.121c-0.324-0.647,0.688-3.021,2.414-5.584
				c1.16-1.74,2.374-3.143,3.264-3.857c0.513-0.405,0.917-0.58,1.133-0.445C225.255,174.507,225.255,174.912,225.107,175.492z"/>
		</g>
		<g id="phone">
			<path style="fill:#008EF8;" d="M218.718,173.673H206.95c-1.506,0-2.923-0.711-3.823-1.918l-12.588-16.885
				c-0.903-1.212-0.038-2.936,1.473-2.936h11.532c1.285,0,2.494,0.607,3.262,1.637l13.149,17.637
				C220.714,172.226,219.988,173.673,218.718,173.673z"/>
			<path style="fill:#0234C1;" d="M216.857,173.673h-11.768c-1.506,0-2.923-0.711-3.823-1.918l-12.588-16.885
				c-0.903-1.212-0.038-2.936,1.473-2.936h11.532c1.285,0,2.494,0.607,3.262,1.637l13.149,17.637
				C218.852,172.226,218.126,173.673,216.857,173.673z"/>
		</g>
		<g id="hand_x5F_L_4_">
			<g>
				<path style="fill:#FFA187;" d="M225.107,175.492c-0.297,1.092-1.16,2.792-2.374,4.586c-1.673,2.495-3.439,4.316-4.195,4.356
					l-0.297-0.175l-3.601-2.077l5.503-9.549l3.776,2.185L225.107,175.492z"/>
				<path style="fill:#FFA187;" d="M202.757,166.578c0.092,0.033,0.184,0.076,0.271,0.126c0.084,0.046,0.192,0.129,0.173,0.115
					l0.066,0.049l0.114,0.085l0.202,0.151l0.392,0.29l0.783,0.564c0.524,0.369,1.055,0.723,1.59,1.06
					c1.062,0.675,2.154,1.225,3.342,1.795c2.33,1.11,4.762,2.136,7.162,3.051l0.023,0.009c1.045,0.398,1.57,1.568,1.172,2.614
					c-0.398,1.045-1.568,1.57-2.614,1.172c-0.053-0.02-0.108-0.044-0.158-0.068c-2.463-1.186-4.822-2.429-7.173-3.802
					c-1.149-0.675-2.37-1.426-3.478-2.273c-0.554-0.417-1.091-0.847-1.616-1.287l-0.777-0.666l-0.38-0.335l-0.183-0.163l-0.079-0.07
					l-0.031-0.028c-0.035-0.027,0.056,0.044,0.123,0.079c0.07,0.039,0.145,0.07,0.22,0.091c-0.707-0.236-1.088-0.999-0.853-1.706
					C201.286,166.725,202.05,166.343,202.757,166.578z"/>
				<path style="fill:#FFA187;" d="M199.588,167.019c0.166,0.063,0.333,0.158,0.475,0.272l0.115,0.098l0.125,0.108l0.226,0.198
					l0.443,0.388l0.884,0.765c0.59,0.506,1.185,1.004,1.785,1.485c1.205,0.957,2.409,1.897,3.637,2.519
					c2.725,1.381,5.623,2.609,8.482,3.704l0.03,0.012c1.045,0.4,1.567,1.571,1.167,2.616c-0.4,1.044-1.571,1.567-2.616,1.167
					c-0.053-0.02-0.108-0.044-0.158-0.068c-2.924-1.415-5.732-2.896-8.504-4.607c-1.527-0.923-2.762-2.014-3.964-3.086
					c-0.601-0.54-1.185-1.09-1.762-1.644l-0.859-0.833l-0.424-0.416l-0.208-0.204l-0.094-0.092c0.008,0.005-0.083-0.075,0.005-0.001
					c0.104,0.083,0.234,0.147,0.361,0.178c-0.707-0.236-1.089-0.999-0.853-1.706C198.117,167.166,198.881,166.783,199.588,167.019z"
					/>
				<path style="fill:#FFA187;" d="M223.373,173.627c-0.166-0.19-8.917-6.789-8.992-6.786c0,0-5.13-2.697-5.99-1.984
					c-0.86,0.713-0.979,1.989-0.266,2.849c0.166,0.176,2.686,1.964,4.364,2.808l2.922,4.82c-0.768,0.796-1.342,1.669-1.71,2.532
					l-10.599-5.715l-0.642,1.391c-0.238,0.516,0.252,1.458,2.09,3.295c1.838,1.837,9.832,5.457,9.832,5.457v-0.029
					c1.608,1.143,4.519,0.56,6.886-1.501C223.881,178.487,224.824,175.292,223.373,173.627z"/>
			</g>
			<g id="add_20_">
				<g>
					<path style="fill:#912336;" d="M211.1,176.183c-0.092,0-0.185-0.022-0.272-0.07c-0.827-0.451-1.648-0.914-2.468-1.393
						c-1.166-0.685-6.098-4.439-6.307-4.599c-0.25-0.19-0.299-0.546-0.108-0.796c0.19-0.251,0.549-0.298,0.796-0.107
						c0.051,0.039,5.087,3.872,6.194,4.521c0.81,0.475,1.622,0.932,2.438,1.378c0.276,0.15,0.377,0.495,0.226,0.77
						C211.495,176.076,211.301,176.183,211.1,176.183z"/>
				</g>
				<path style="fill:#912336;" d="M209.873,178.658c-0.091,0-0.183-0.022-0.27-0.068c-1.496-0.804-2.877-1.6-4.225-2.431
					c-1.601-0.969-2.898-2.126-4.043-3.147c-0.608-0.546-1.197-1.099-1.778-1.658l-0.861-0.835c-0.224-0.218-0.23-0.578-0.011-0.803
					c0.217-0.224,0.577-0.231,0.803-0.011l0.859,0.833c0.57,0.548,1.15,1.093,1.746,1.628c1.106,0.988,2.362,2.107,3.877,3.023
					c1.333,0.822,2.695,1.605,4.172,2.4c0.276,0.148,0.38,0.494,0.231,0.77C210.27,178.549,210.075,178.658,209.873,178.658z"/>
			</g>
		</g>
	</g>
	<g id="lamp">
		<path id="bottom" style="fill:#0234C1;" d="M174.027,155.807c-0.53-1.147-1.826-1.681-2.998-1.299l1.795-0.829
			c1.236-0.572,1.775-2.037,1.203-3.273c-0.177-0.384-0.447-0.69-0.763-0.928c-0.414-0.33-0.934-0.533-1.506-0.525l-13.297,0.187
			c-1.311,0.019-2.359,1.096-2.341,2.408l0.002,0.183c0.019,1.311,1.097,2.359,2.408,2.341l1.742-0.025l-2.708,1.251
			c-1.236,0.571-1.775,2.036-1.204,3.273c0.53,1.146,1.827,1.681,2.998,1.298l-1.795,0.83c-1.079,0.499-1.626,1.679-1.368,2.794
			c0.197,1.131,1.183,1.987,2.368,1.97l13.34-0.188c1.313-0.019,2.363-1.098,2.344-2.411l-0.002-0.176
			c-0.018-1.313-1.098-2.363-2.411-2.344l-1.803,0.025l2.79-1.29C174.059,158.509,174.598,157.043,174.027,155.807z"/>
		<g id="bulb">
			<path style="fill:#FFCD52;" d="M188.113,115.134c0-13.28-10.264-24.046-22.925-24.046c-12.661,0-22.925,10.766-22.925,24.046
				c0,4.952,1.428,9.553,3.874,13.378l5.369,8.715c1.674,2.717,2.56,5.846,2.56,9.037c0,1.477,1.197,2.674,2.674,2.674h16.897
				c1.477,0,2.674-1.197,2.674-2.674c0-3.191,0.886-6.32,2.56-9.037l5.369-8.715C186.686,124.687,188.113,120.086,188.113,115.134z"
				/>
			<g>
				<path style="fill:#912039;" d="M170.225,139.357l-1.1-0.284l5.332-20.853c-5.908-2.558-12.616-2.558-18.525,0v0.117
					l5.332,20.735l-1.1,0.284l-5.37-20.88l0.009-0.997l0.33-0.15c6.395-2.887,13.728-2.887,20.123,0l0.331,0.15l0.009,0.997
					l-0.019,0.072L170.225,139.357z"/>
			</g>
		</g>
		<g id="light">
			<path style="fill:#FFCD52;" d="M132.357,120.199l-15.415,0.858l15.122-3.111c0.616-0.127,1.219,0.27,1.346,0.886
				c0.127,0.616-0.27,1.218-0.886,1.345C132.469,120.189,132.409,120.196,132.357,120.199z"/>
			<path style="fill:#FFCD52;" d="M134.005,102.98l-13.119-8.139l14.172,6.125c0.577,0.249,0.843,0.92,0.594,1.497
				c-0.25,0.578-0.92,0.844-1.498,0.594C134.104,103.036,134.05,103.007,134.005,102.98z"/>
			<path style="fill:#FFCD52;" d="M145.538,87.321l-7.529-13.478l9.426,12.228c0.384,0.498,0.291,1.214-0.207,1.598
				c-0.499,0.384-1.214,0.292-1.598-0.207C145.598,87.418,145.565,87.367,145.538,87.321z"/>
			<path style="fill:#FFCD52;" d="M201.81,117.946l15.122,3.111l-15.415-0.858c-0.628-0.035-1.109-0.573-1.074-1.201
				c0.035-0.628,0.572-1.109,1.201-1.074C201.699,117.927,201.758,117.936,201.81,117.946z"/>
			<path style="fill:#FFCD52;" d="M198.816,100.967l14.172-6.125l-13.119,8.139c-0.535,0.332-1.237,0.167-1.569-0.367
				c-0.331-0.535-0.167-1.237,0.368-1.569C198.714,101.015,198.768,100.988,198.816,100.967z"/>
			<path style="fill:#FFCD52;" d="M186.439,86.07l9.426-12.228l-7.529,13.478c-0.307,0.549-1.001,0.746-1.55,0.439
				c-0.549-0.307-0.746-1.001-0.439-1.55C186.373,86.162,186.407,86.112,186.439,86.07z"/>
			<path style="fill:#FFCD52;" d="M166.63,80.277l1.027-15.404l1.245,15.388c0.051,0.627-0.416,1.176-1.044,1.227
				c-0.627,0.051-1.177-0.417-1.227-1.044C166.627,80.39,166.627,80.33,166.63,80.277z"/>
		</g>
	</g>
</g>
</svg>
