<?xml version="1.0" encoding="utf-8"?>
<!-- Generator: Adobe Illustrator 27.1.0, SVG Export Plug-In . SVG Version: 6.00 Build 0)  -->
<svg version="1.1" id="Calque_1" xmlns="http://www.w3.org/2000/svg" xmlns:xlink="http://www.w3.org/1999/xlink" x="0px" y="0px"
	 viewBox="0 0 750 500" style="enable-background:new 0 0 750 500;" xml:space="preserve">
<style type="text/css">
	.st0{fill:#EFF8FA;}
	.st1{fill:#D5EEF2;}
	.st2{fill:#4BB8D7;}
	.st3{fill:#9AD0D9;}
	.st4{fill:#3C2772;}
	.st5{fill:#5C4596;}
	.st6{fill:#87CDD9;}
	.st7{fill:#FB8D8D;}
	.st8{fill:#071651;}
	.st9{fill:#FB7B7B;}
	.st10{fill:#553AD6;}
	.st11{fill:#FB4141;}
	.st12{fill:#192B75;}
	.st13{fill:#654CDB;}
	.st14{fill:#FB9E9E;}
	.st15{fill:#E5EEF0;}
	.st16{fill:#FAFFF9;}
	.st17{fill:#FFB857;}
	.st18{fill:#331D68;}
	.st19{fill:#FB696A;}
	.st20{fill:#1A76B0;}
	.st21{fill:#308CC7;}
	.st22{fill:#5FCEEB;}
	.st23{fill:#84DFF1;}
	.st24{fill:#0FACD5;}
	.st25{fill:#281F58;}
	.st26{fill:#FF555F;}
	.st27{fill:#D8E5EB;}
</style>
<g id="BACKGROUND">
</g>
<g id="OBJECTS">
	<g>
		<path class="st0" d="M215.1,345.3c0,0-10.7-22,15.7-48.3c26.4-26.3-57.4-98-33.4-125.6c24-27.7,45,7.5,84.8,4.6
			c39.8-2.8,39.6-71.4,92.5-68.9c52.9,2.4,23.9,58.9,46.9,71.6s64.4-71.2,105.1-51.7s3.3,128,4.1,149.3s15.8,65.1,15.8,65.1
			L215.1,345.3z"/>
		<path class="st1" d="M185.4,345.5c0,6.5,83.4,11.7,186.3,11.7c102.9,0,186.3-5.3,186.3-11.7s-83.4-11.7-186.3-11.7
			S185.4,339,185.4,345.5z"/>
		<g>
			<path d="M374.7,346.4c0,1.8,22.2,3.2,49.6,3.2c27.4,0,49.6-1.4,49.6-3.2s-22.2-3.2-49.6-3.2S374.7,344.6,374.7,346.4z"/>
			<ellipse cx="329.2" cy="344.7" rx="19" ry="1.5"/>
			<path d="M487.8,344.8c0,1,9.7,1.9,21.6,1.9c11.9,0,21.6-0.8,21.6-1.9s-9.7-1.9-21.6-1.9C497.4,342.9,487.8,343.8,487.8,344.8z"/>
			<g>
				<g>
					<g>
						<path class="st2" d="M439.9,238.8c-0.2-2-1.8-3.5-3.8-3.4c-8.7,0.3-48.9,0.9-49.8,3.8c-1.2,3.6-1.7,10.2,1.7,11
							c3.5,0.9,52.2-2.4,52.2-5.9C440.2,242.7,440,240.6,439.9,238.8z"/>
						<path class="st2" d="M366,293c0.4,5,1.8,9.5,1.8,9.5s2.1,0.4,5.8,0.9c1.9,0.3,4.2,0.6,6.9,0.9h0c1.8,0.2,3.7,0.4,5.7,0.6
							c3.6,0.3,7.5,0.7,11.6,0.9c0.1,0,0.3,0,0.4,0c0.7,0,1.3,0.1,2,0.1c7.7,0.4,16.1,0.4,24.4-0.3c3.4-0.3,6.6-0.8,9.7-1.5
							c4.2-1,8.1-2.4,11.8-4.2c0.9-0.4,1.9-0.9,2.8-1.4c0.4-0.2,0.7-0.4,1.1-0.6c1.3-0.8,2.6-1.6,3.9-2.4
							c12.6-8.4,22.4-21.3,30.2-36.4c10.4-20.2,11.8-58.3,12-72.7c0-3.8-2.4-7.1-5.9-8.3c-1.5-0.5-3.3-1-5.5-1.5
							c-0.6-0.1-1.2-0.3-1.9-0.4c-0.7-0.1-1.5-0.3-2.3-0.4c-0.6-0.1-1.2-0.2-1.8-0.3c-0.1,0-0.2,0-0.3,0c-0.8-0.1-1.6-0.2-2.5-0.3
							s-1.7-0.2-2.6-0.3c-0.1,0-0.1,0-0.2,0c-0.4,0-0.8-0.1-1.2-0.1c-1.3-0.1-2.5-0.2-3.8-0.3c-0.3,0-0.6,0-0.8-0.1
							c-0.6,0-1.1-0.1-1.7-0.1c-1.6-0.1-3.2-0.2-4.7-0.3c-0.5,0-1-0.1-1.5-0.1c-0.5,0-0.9,0-1.4-0.1h0c-1.1,0-2.1-0.1-3-0.1
							c-0.3,0-0.6,0-0.9,0c-0.1,0-0.3,0-0.4,0c-0.2,0-0.4,0-0.6,0c-1.6,0-2.6-0.1-2.6-0.1c-0.9,0.4-1.9,1-2.8,2
							c-0.1,0.1-0.2,0.2-0.3,0.3c-0.2,0.2-0.4,0.5-0.7,0.7c-0.4,0.5-0.8,1-1.2,1.5c0,0-0.1,0.1-0.1,0.1c-0.2,0.3-0.4,0.6-0.7,0.9
							c0,0.1-0.1,0.1-0.1,0.2c-0.1,0.2-0.3,0.4-0.4,0.7c-0.1,0.2-0.3,0.5-0.5,0.7c-0.1,0.2-0.3,0.5-0.4,0.7
							c-0.7,1.2-1.5,2.5-2.2,3.9c-0.2,0.5-0.5,1-0.7,1.4c-0.9,1.9-1.8,3.9-2.8,6c-0.3,0.7-0.6,1.3-0.9,2c0,0,0,0.1,0,0.1
							c-0.2,0.5-0.4,1-0.7,1.6l-0.3,0.8c-0.3,0.8-0.7,1.6-1,2.4c-0.5,1.3-1,2.6-1.5,3.9c0,0.1-0.1,0.2-0.1,0.3
							c-0.2,0.6-0.4,1.1-0.6,1.7c-0.4,1.1-0.8,2.3-1.2,3.4c-0.2,0.5-0.4,1-0.5,1.5c0,0.1,0,0.1-0.1,0.2c-0.4,1.1-0.8,2.3-1.2,3.4
							c-0.1,0.3-0.2,0.6-0.3,1c-0.2,0.5-0.4,1.1-0.5,1.6c-0.3,1-0.7,2-1,3c-0.1,0.4-0.3,0.8-0.4,1.3c-0.2,0.6-0.4,1.1-0.5,1.7
							c-0.2,0.5-0.3,1-0.5,1.5c-0.1,0.3-0.2,0.6-0.3,0.9c-0.3,1.1-0.7,2.1-1,3.2c0,0.1,0,0.1-0.1,0.2c-0.1,0.4-0.3,0.9-0.4,1.3
							c-0.1,0.5-0.3,1-0.5,1.5c-0.1,0.2-0.1,0.5-0.2,0.7s-0.1,0.5-0.2,0.7c-0.1,0.5-0.3,1-0.4,1.4c0,0.1,0,0.1-0.1,0.2
							c-0.1,0.3-0.2,0.6-0.3,0.9c-0.5,1.5-0.9,3-1.3,4.3c-0.1,0.5-0.3,0.9-0.4,1.4c-0.2,0.8-0.5,1.6-0.6,2.3
							c-0.1,0.2-0.1,0.4-0.2,0.6c-0.7,2.6-1.2,4.3-1.4,5c0,0.1,0,0.1,0,0.2c0,0.1,0,0.1,0,0.1S377,275.9,369.7,280
							C366,282.1,365.6,287.8,366,293z"/>
						<g>
							<path class="st3" d="M366,293c0.4,5,1.8,9.5,1.8,9.5s2.1,0.4,5.8,0.9c1.9,0.3,4.2,0.6,6.9,0.9c5.5-4.1,6.7-9.9,8.1-11.8
								c22.5,2.5,49.5-0.5,63.4-17.4c12-14.6,18.9-33.4,24.2-51.3c2.5-8.7,4.7-17.6,6.3-26.5c1.1-6,3-13.3,2.3-19.4
								c-0.2-2.1-1.5-1.7-3.6-1.9c-2.9-0.4-5.9-0.7-8.8-1c-5.9-0.6-11.8-0.9-17.8-1c-1.4,0-2.8,0-4.1,0.4c-3.3,1.2-5.3,5.1-6.9,7.9
								c-2.2,3.6-3.9,7.5-5.6,11.4c-7.7,17.9-13.7,36.9-18.6,55.8c0,0-42.4,26.5-49.6,30.7C366,282.1,365.6,287.8,366,293z"/>
						</g>
						<path class="st4" d="M450.9,340.9l-4.2-9.2c0,0,5.2-5.4,4.9-10.3c-0.2-4.9-5.6-8.4-5.6-8.4L450,298c-0.4,0.2-0.7,0.4-1.1,0.6
							c-0.9,0.5-1.8,1-2.8,1.4c-3.7,1.8-7.7,3.2-11.8,4.2c-3.1,0.7-6.3,1.3-9.7,1.5c-8.3,0.7-16.7,0.7-24.4,0.3
							c-0.7,0-1.4-0.1-2-0.1c-0.1,0-0.3,0-0.4,0l3.7,7.1c0,0-3.9,1.6-4.9,8.4c-0.5,3.3,0.6,5.8,1.9,7.5c1.4,1.9,3,2.8,3,2.8
							l-5.6,9.2L450.9,340.9L450.9,340.9z"/>
						<path class="st5" d="M398.5,328.9C419.9,321.6,450,298,450,298c-0.4,0.2-0.7,0.4-1.1,0.6c-0.9,0.5-1.8,1-2.8,1.4
							c-3.7,1.8-7.7,3.2-11.8,4.2c-3.1,0.7-6.3,1.3-9.7,1.5c-8.3,0.7-16.7,0.7-24.4,0.3c-0.7,0-1.4-0.1-2-0.1c-0.1,0-0.3,0-0.4,0
							l3.7,7.1c0,0-3.9,1.6-4.9,8.4C396.1,324.6,397.2,327.1,398.5,328.9z"/>
						<path class="st6" d="M388.1,346.1h72.8c2.2,0,2.9-3,0.9-4l-5.1-2.4h-63.3l-6.1,2.4C385.1,342.8,385.7,346.1,388.1,346.1z"/>
					</g>
					<g>
						<g>
							<path class="st7" d="M430.6,225c-1.8,3.9-6.4,12.5-7.9,14.6c-1.3,1.9-7.3,8.3-9.3,10.4c-0.1,0-0.2,0-0.3,0.1
								c0,0-0.1,0.1-0.3,0.1L385.7,263l0.3,1.1c-0.3,0.2-0.6,0.3-1,0.5c-4.4,2.5-8.4,4.4-11.6,6c0,0,0,0-0.1,0c0.2-0.3,3.1-4.4,6-7
								c2.9-2.7,27.8-15,31.4-17.8s16-24.6,16-24.6L430.6,225z"/>
							<g>
								<path class="st8" d="M333.2,326.6c0,0-3.2,7.6-6,8c-2.5,0.3-13.7-4-15.9-5.9c-0.3-0.2-0.4-0.5-0.4-0.6
									c0.5-1.2,2.6-0.7,5.6-0.5c0.1,0,0.3,0,0.4,0c3.2,0.1,11.5-2.6,11.5-2.6l0.1,0l2.7,1L333.2,326.6z"/>
								<path class="st9" d="M432,262.1l-18.5,8.4l-22.8,10.3L379,286c0,0-3.4,8.5-11.7,17.1c-3.6,3.7-10.4,8.6-17,13
									c-8.7,5.7-17,10.5-17,10.5s-1.7,0.4-3,0c-1.3-0.4-1.6-1.6-1.6-1.6s6.4-7,13.8-15.8c7.1-8.4,15.2-18.4,19.3-25.3
									c2.4-4,4.1-7,4.7-8.4c0.6-1.4,3.2-2.9,7-4.9l0,0c0,0,0,0,0.1,0c3.2-1.6,7.2-3.6,11.6-6c0.3-0.2,0.6-0.4,1-0.5
									c1.5-0.8,3-1.7,4.6-2.5c10.4-5.6,20.4-10.6,22.2-11.5c0.2-0.1,0.3-0.1,0.3-0.1c1-0.3,2.5,0.2,4.4,1.2
									c0.3,0.2,0.6,0.3,0.9,0.5C424.2,255.1,432,262.1,432,262.1z"/>
								<path class="st10" d="M421.7,256.6l-8.2,13.8l-22.8,10.3l-4.4-15.3l-0.7-2.3l27.4-13c1-0.3,2.5,0.2,4.4,1.2l0.5,0.7
									L421.7,256.6z"/>
								<path class="st7" d="M361.7,284c7.5-0.8,10.5-8.6,11.7-13.2c-3.8,2-6.4,3.5-7,4.9C365.8,276.9,364.1,280,361.7,284z"/>
								<path class="st11" d="M350.3,316.1c-8.7,5.7-17,10.5-17,10.5s-1.7,0.4-3,0c-1.3-0.4-1.6-1.6-1.6-1.6s6.4-7,13.8-15.8
									L350.3,316.1z"/>
							</g>
							<g>
								<path class="st12" d="M403.6,337.5c0,0,0.1,0.4,0.1,1c0.2,2.2,4.4,6.6,2.7,7.9c-2.2,1.8-20.8,5.3-21.1,3.9
									c0-0.1,0-0.2,0-0.3c0.2-1.1,2-1.7,4.4-2.9c0.2-0.1,0.4-0.2,0.6-0.3c2.8-1.6,8.4-8.2,8.4-8.2l1.9-0.4l0.6-0.1L403.6,337.5z"
									/>
								<path class="st7" d="M445.7,263.9c0,0-7,17.5-34,23.9c-15.8,3.8-20.1,3.7-20.1,3.7s2,2.4,3.4,14.6c0.4,3.1,2.4,11,4.4,18.2
									c2,7.3,4,13.9,4,13.9s-0.6,1.3-2.2,1.5c-1.6,0.2-2.4-0.7-2.4-0.7s-3.6-5.6-8.2-13.2c-6-10.1-13.8-23.7-17.1-32.7
									c-0.3-0.9-0.5-1.7-0.6-2.6c-0.3-3.5,1.2-6.6,2.1-7.9c0.1-0.2,0.2-0.3,0.3-0.4l0.2-0.2c0.8-0.7,3.3-2.5,6.8-4.9
									c12-8.1,35-22.8,35-22.8S448.9,258,445.7,263.9z"/>
								<path class="st13" d="M393.7,269.2l14.2,25.1c0,0,31.7-11,34-21.4c2.2-10.4,1.3-14.4,1.3-14.4l-25.1-6.2L393.7,269.2z"/>
								<path class="st14" d="M382.4,277.1c-0.8,2.4-3.7,10.5-9.4,13.4c-0.3-3.5,1.2-6.6,2.1-7.9c0.1-0.2,0.2-0.3,0.3-0.4l0.2-0.2
									C376.4,281.3,378.9,279.5,382.4,277.1z"/>
								<path class="st11" d="M403.4,338.2c0,0-0.6,1.3-2.2,1.5c-1.6,0.2-2.4-0.7-2.4-0.7s-3.6-5.6-8.2-13.2l8.8-1.5
									C401.5,331.7,403.4,338.2,403.4,338.2z"/>
							</g>
							<path class="st2" d="M471.8,264.8c-0.2-2-1.8-3.5-3.8-3.4c-8.7,0.3-48.9,0.9-49.8,3.8c-1.2,3.6-1.7,10.2,1.7,11
								c3.5,0.9,52.2-2.4,52.2-5.9C472.1,268.7,472,266.6,471.8,264.8z"/>
							<g>
								<path class="st7" d="M413.5,269.4c0.1,2.2,1.4,7.1,3,6.3c1.7-0.8,1.5-3.8,1.4-5.9c0-2.1,0-4.1,1.1-4.8
									c1.8-1.1,20.6,2.6,27.5,0.4c7.8-2.5,18.3-19.9,18.3-19.9c0.1-0.2,0.1-0.3,0.1-0.5c-2.5-1-5.5-2.4-7.7-4.1
									c-0.5-0.4-1-0.8-1.4-1.2c-1.5-1.7-2.6-3.2-3.3-4.3c-0.3,0.7-0.8,1.8-1.4,3.2c0,0,0,0,0,0c-2.7,5.9-8.8,17.6-8.9,17.6
									c-0.9,0.6-6.2,0.7-11.7,1.8c-0.8,0.2-1.7,0.4-2.5,0.6c-4.8,1.2-9.1,1.4-11.2,2.6c-0.8,0.5-1.4,1.1-1.9,1.7
									C413.6,265,413.4,267.6,413.5,269.4z"/>
								<path class="st14" d="M414.9,263c4.2-0.6,12.6-1.6,23.3-2.3c12.3-0.9,17.9-16.3,19-19.7c-0.5-0.4-1-0.8-1.4-1.2
									c-1.5-1.7-2.6-3.2-3.3-4.3c-0.3,0.7-0.8,1.8-1.4,3.2c0,0,0,0,0,0c-2.7,5.9-8.8,17.6-8.9,17.6c-0.9,0.6-6.2,0.7-11.7,1.8
									c-0.8,0.2-1.7,0.4-2.5,0.6c-4.8,1.2-9.1,1.4-11.2,2.6C416,261.7,415.4,262.3,414.9,263z"/>
							</g>
							<g>
								<path class="st15" d="M435.4,231.5c0,0-12.6-5.2-13.7-9.3s27.6-28.4,33.3-25.8C460.6,199,435.4,231.5,435.4,231.5z"/>
								<path class="st16" d="M473.3,218.4c-0.1,1.8-1.4,17.8-2.9,25.7c-0.1,0.6-0.2,1.3-0.7,1.7c-0.2,0.2-0.4,0.3-0.6,0.3
									c-0.2,0-0.3,0-0.5-0.1c-1.6-0.3-3.3-0.8-4.8-1.4c-0.2-0.1-0.3-0.2-0.5-0.2c-0.3-0.1-0.6-0.3-0.9-0.4
									c-0.5-0.3-1.1-0.5-1.6-0.9c-0.2-0.2-0.5-0.3-0.7-0.4c-0.2-0.1-0.4-0.2-0.6-0.4c-0.2-0.1-0.4-0.2-0.6-0.4
									c-0.2-0.2-0.5-0.3-0.7-0.5c-0.5-0.4-1-0.8-1.5-1.3c-1.6-1.4-3-3-4.1-4.8c-3,6.8-6.1,13.4-9.5,20c-0.3,0.5-0.6,1.1-1.1,1.4
									c-0.4,0.3-1,0.3-1.5,0.4c-2.8,0.3-5.6,0.6-8.5,0.9c-0.9,0.1-1.8,0.4-2.7,0.5c-0.9,0.1-1.9,0.1-2.8,0
									c-1.4-0.2-2.8-0.5-4.2-0.9c-3.2-1-6.1-2.8-8.5-5.2c-0.5-0.5-1-1-1.1-1.7c0,0,0.2-0.2,0.7-0.7c2-2.1,8-8.5,9.3-10.4
									c1.5-2.2,6.1-10.7,7.9-14.6c0.5-1,0.8-1.7,0.8-1.9c0,0-0.1-4,0-8.4c0.1-3.8,18.4-16.5,22.6-19.6c2.7-0.1,5.5,0.3,8.2,0.6
									c0.7,0.1,1.5,0.2,2.2,0.4c0.3,0.1,0.5,0.2,0.8,0.3c0.1,0.1,0.3,0.1,0.4,0.2c0.5,0.3,1,0.8,1.5,1.2c1.2,1.1,2.3,2.2,3.3,3.4
									c0,0,0.1,0,0.1,0.1c0.8,0.8,1.5,1.7,2.2,2.6C474.6,207.7,473.4,214.5,473.3,218.4z"/>
								<path class="st0" d="M474.7,219.2c-0.1,1.9-1.6,29.6-4.7,31.8s-6.7-0.2-8.1-0.8c-4-1.8-8.1-5.7-10.8-9.3
									c-2.2-2.9,4.8-12.5,8.3-22c4.1-11,5.2-21.9,5.3-22.1c0.2-0.6,3.7,2.6,5.8,4.7c0,0,0,0,0.1,0.1c0.7,0.7,1.3,1.3,1.5,1.5
									c0.3,0.3,0.6,0.7,0.8,1.2C475,208,474.9,215.2,474.7,219.2z"/>
							</g>
							<g>
								<path class="st7" d="M449.3,179.6c0.1,4.7,1.2,8.2,4,9.7c0.8,0.4,1.6,0.6,2.6,0.7c4.7,0.2,8.8-3.8,11.3-7.1
									c1.8-2.3,2.8-4.3,2.8-4.3s0.2,0.1,0.5,0.2c1.1,0.4,3.4,0.9,4.4-1c1.6-3-1.3-4-3.6-4.1c-0.7,0-1.4,0.1-2,0.4
									c0,0,0.4-1.1,0.6-2.7c0.2-1.8,0.1-4.3-1.5-6.1c-1.3-1.4-6.9-4.2-11.4-4.3c-2.6,0-4.8,0.8-5.5,3.4c-1.1,4.2-1.8,8.4-2.1,12.1
									C449.3,177.6,449.3,178.7,449.3,179.6z"/>
								<path class="st17" d="M443.8,168.2c0,0,3.7-0.3,5.5,0.1c2.8,0.5,6.3-2.6,9-1.5c3.1,1.3,5.4-0.3,5.7-1.1c0,0,1.5,1.7,1.2,3.8
									c-0.4,3.5,1.3,5.6,3.7,4.9c4.4-1.3,6,0.8,6,0.8s3.9-9.3-1.5-16.4c-4.6-6-14.8-8-21.4-3.5c-1.7,1.1-4.9,2.3-6,4.2
									C444.7,161.7,443.9,164.7,443.8,168.2z"/>
								<path class="st17" d="M481.3,161.6c0,2.7-2.2,4.9-4.9,4.9s-4.9-2.2-4.9-4.9c0-1.3,0.5-2.5,1.3-3.3c-1.3-0.1-2.4-0.8-3.1-1.8
									c-0.2,0.1-0.4,0.1-0.7,0.1c-1.4,0-2.6-1.2-2.6-2.6c0-1.4,1.2-2.6,2.6-2.6c0.2,0,0.3,0,0.5,0c0.8-1.3,2.2-2.1,3.9-2.1
									c2.4,0,4.4,1.9,4.5,4.3c1.6,0.1,2.9,1.5,2.9,3.1c0,0.7-0.2,1.3-0.6,1.8C480.9,159.4,481.3,160.4,481.3,161.6z"/>
								<path class="st18" d="M472.3,177.9c0,0.3-0.2,0.6-0.6,0.6c-0.3,0-0.6-0.2-0.6-0.6c0-0.3,0.2-0.6,0.6-0.6
									S472.3,177.6,472.3,177.9z"/>
								<g>
									<path class="st7" d="M464.7,196.7c0,0-1.5,1.4-5.2,1.2c-3.7-0.2-4.7-2-4.7-2c0-0.5,0.1-1.2,0.2-1.9c0-0.5,0.1-1,0.1-1.4
										c0-0.6,0.1-1.2,0.1-1.8c0-0.2,0-0.4,0-0.6c0.1-0.3,0.3-0.2,0.7-0.2c2.3,0,4.6-0.9,6.4-2.2c0.6-0.4,1.2-0.9,1.7-1.4
										c0.3-0.3,0.6-0.6,0.9-0.9c0.4-0.4,0.8-1,1.2-1.4c0.2-0.3,0.9-0.8,1-1.2C467.4,183,464.7,196.7,464.7,196.7z"/>
									<path class="st19" d="M464.1,186.4c-3,3.5-6.9,7.5-9.1,7.6c0-0.5,0.1-1,0.1-1.4c0-0.6,0.1-1.2,0.1-1.8c0-0.2,0-0.4,0-0.6
										c0.1-0.3,0.3-0.2,0.7-0.2c2.3,0,4.6-0.9,6.4-2.2C463,187.3,463.6,186.9,464.1,186.4z"/>
								</g>
							</g>
						</g>
					</g>
				</g>
				<g>
					<rect x="507.5" y="126.8" class="st6" width="2.9" height="214.5"/>
					<rect x="492.8" y="341.4" class="st6" width="32" height="3.6"/>
					<rect x="481.9" y="125.1" class="st3" width="53.6" height="3.1"/>
				</g>
			</g>
		</g>
		<g>
			<path d="M208.4,345.3c0,1.5,16,2.7,35.7,2.7s35.7-1.2,35.7-2.7s-16-2.7-35.7-2.7C224.3,342.6,208.4,343.8,208.4,345.3z"/>
			<g>
				<g>
					<g>
						<path class="st8" d="M263.7,343.2c0,2.4-18.3,1.8-22.1,1.4c-3.8-0.4-3.1-2.1-3.1-4c0.1-1.9,3.1-6,3.1-6h6.4
							C247.5,337.5,263.7,340.8,263.7,343.2z"/>
						<path class="st7" d="M248,334.6c-4.4,5.7-6.4,0-6.4,0H248z"/>
						<path class="st20" d="M235.3,287.8c0,0-2.3,17.2,0,25.1s6.3,21.6,6.3,21.6h6.4l11.5-68.9L235.3,287.8z"/>
					</g>
					<g>
						<path class="st21" d="M238.5,284.3l-8.8,50.3h-6.4c0,0-3-13.3-5.4-21.2c-2.3-7.9,0-25.1,0-25.1L238.5,284.3z"/>
						<path class="st12" d="M245.4,343.2c0,2.4-18.3,1.8-22.1,1.4c-3.8-0.4-3.1-2.1-3.1-4c0.1-1.9,3.1-6,3.1-6h6.4
							C229.2,337.5,245.4,340.8,245.4,343.2z"/>
						<path class="st7" d="M229.7,334.6c-4.4,5.7-6.4,0-6.4,0H229.7z"/>
					</g>
					<g>
						<path class="st7" d="M273.3,178.6l9.6,10.2c0,0,28.1,2.2,29.8,0.9c1.7-1.3-1.9-2.3-1.9-3.8c0-0.7,4.3,1.7,9.7,1.8
							c6.2,0.1,13.6-2,13.6-2s-4.1,5.4-11.7,5.3c-7.5-0.1-28.3,11.5-42.8,10.4c-5.7-0.4-19.6-12.6-19.6-12.6L273.3,178.6z"/>
						<path class="st22" d="M274,284.3c0,0-3.6,0.4-9.4,1c-0.8,0.1-1.5-0.3-1.8-1c-0.6-1.3-1.2-16.9-1.4-17.8
							c0.1,1.5-5.2,17.3-6.4,18.7c-0.4,0.5-1,0.7-1.6,0.8c-1,0.1-2,0.2-3,0.3c-21.6,2-44.1,4.2-45.3-1.9c-1.8-9,3.8-45,13.8-74.9
							c10-29.9,22-49.5,21.9-59.8c0-5.1,4.3-6.1,8.7-5.9c4.6,0.2,9.3,1.9,9.3,1.9s15.3,13.2,15.2,30.9c-0.1,19-7,35.4-3.1,47.7
							C274.9,236.6,274,284.3,274,284.3z"/>
						<path class="st23" d="M274,284.3c0,0-3.6,0.4-9.4,1c-0.8,0.1-1.5-0.3-1.8-1c-0.6-1.3-1.2-16.9-1.4-17.8
							c0.1,1.5-5.2,17.3-6.4,18.7c-0.4,0.5-1,0.7-1.6,0.8c-1,0.1-2,0.2-3,0.3c-22.8-39.7-2.9-77.1,0.6-94.4
							c4.4-21.8-5.7-47.5-5.7-47.5l4.1-0.6c4.6,0.2,9.3,1.9,9.3,1.9s16.8,16.1,16.8,30.4c0,19-8.6,35.9-4.6,48.2
							C274.9,236.6,274,284.3,274,284.3z"/>
						<g>
							<path class="st14" d="M273.3,187.7l9.6,10.2c0,0,31.2-6.9,32.9-8.3c1.7-1.3-3.2-3-1.9-3.8s4.6,1.1,8.6,1.1
								c6.8,0,14-2.3,14.7-1.3s-4.1,5.4-11.7,5.3c-7.5-0.1-31.4,20.7-45.9,19.5c-5.7-0.4-19.6-12.6-19.6-12.6L273.3,187.7z"/>
							<path class="st24" d="M249.4,153.7c5.7-2.1,9.3,1.4,15.3,12.2c6,10.8,12.2,16.2,12.2,20.1c0,3.9-12.9,14.3-21.6,11.5
								C238.9,192.1,243.7,155.9,249.4,153.7z"/>
						</g>
						<g>
							<path class="st24" d="M262.7,154c0,0.3-0.3,0.6-0.6,0.6s-0.6-0.3-0.6-0.6c0-0.3,0.3-0.6,0.6-0.6S262.7,153.6,262.7,154z"/>
							<circle class="st24" cx="266.5" cy="161.1" r="0.6"/>
							<path class="st24" d="M269.7,169c0,0.3-0.3,0.6-0.6,0.6s-0.6-0.3-0.6-0.6c0-0.3,0.3-0.6,0.6-0.6S269.7,168.7,269.7,169z"/>
							<circle class="st24" cx="262.1" cy="209.4" r="0.6"/>
							<path class="st24" d="M264.3,224.6c0,0.3-0.3,0.6-0.6,0.6s-0.6-0.3-0.6-0.6c0-0.3,0.3-0.6,0.6-0.6
								C264,224,264.3,224.3,264.3,224.6z"/>
							<path class="st24" d="M264.9,239.1c0,0.3-0.3,0.6-0.6,0.6s-0.6-0.3-0.6-0.6c0-0.3,0.3-0.6,0.6-0.6
								C264.6,238.5,264.9,238.8,264.9,239.1z"/>
							<path class="st24" d="M264.3,254.9c0,0.3-0.3,0.6-0.6,0.6s-0.6-0.3-0.6-0.6c0-0.3,0.3-0.6,0.6-0.6S264.3,254.5,264.3,254.9z"
								/>
						</g>
						<path class="st24" d="M228.9,232.6l21.2,1.4c0,0,3.5,21.4-14.4,21.4C222.6,255.4,228.9,232.6,228.9,232.6z"/>
					</g>
					<g>
						<path class="st22" d="M262.4,112.8l3-7.5c0,0-14.4-6.5-21.3-2.7l1.5,6.3L262.4,112.8z"/>
						<g>
							<g>
								<path class="st7" d="M259,147.5c0,0-1,1.9-4.7,2c-3.7,0.2-5.2-1.2-5.2-1.2s-1.3-6.7-2-10.8c-0.2-0.9-0.3-1.8-0.4-2.3
									c-0.1-0.5-0.1-0.8-0.1-0.8c0,0.2,0.4,0.6,0.7,0.9c0.1,0.1,0.2,0.2,0.3,0.3c0.4,0.4,0.7,1,1.2,1.4c0.3,0.3,0.6,0.6,0.9,0.9
									c0,0,0.1,0.1,0.1,0.1c0.5,0.5,1,0.9,1.6,1.3c1.9,1.3,4.1,2.2,6.4,2.2c0.4,0,0.6-0.1,0.7,0.2c0.1,0.2,0,0.4,0,0.6
									c0,0.4,0.1,0.9,0.1,1.3c0,0.2,0,0.3,0,0.5c0,0.4,0.1,0.8,0.1,1.4c0,0.2,0,0.4,0.1,0.6C258.9,146.7,258.9,147.2,259,147.5z"
									/>
								<path class="st19" d="M258.9,146.2c0,0-7.9-1.5-9-8c0.5,0.5,1,0.9,1.6,1.3c1.9,1.3,4.1,2.2,6.4,2.2c0.4,0,0.6-0.1,0.7,0.2
									c0.1,0.2,0,0.4,0,0.6c0,0.4,0.1,0.9,0.1,1.3c0,0.2,0,0.3,0,0.5c0,0.4,0.1,0.8,0.1,1.4C258.8,145.8,258.8,146,258.9,146.2z"
									/>
							</g>
							<path class="st7" d="M264.5,131.4c-0.1,4.7-1.2,8.2-4,9.7c-0.8,0.4-1.6,0.6-2.6,0.7c-4.7,0.2-8.8-3.8-11.3-7.1
								c-1.8-2.3-2.8-4.3-2.8-4.3s-0.2,0.1-0.4,0.2c-1.1,0.4-3.4,0.9-4.4-1c-1.6-3,1.3-4,3.6-4.1c0.7,0,1.4,0.1,2,0.4
								c0,0-0.4-1.1-0.6-2.7c-0.2-1.8-0.1-4.3,1.5-6.1c1.3-1.4,6.9-4.2,11.4-4.3c2.6,0,4.8,0.8,5.5,3.4c1.1,4.2,1.8,8.4,2.1,12.1
								C264.5,129.4,264.5,130.4,264.5,131.4z"/>
						</g>
						<g>
							<path class="st25" d="M265.1,122.5c-2.8,0-6.4-5.9-7.9-8.5c-1.8,2.6-6.1,8.5-10.7,10.9c-4.8,2.5-8.9,0.5-8,3.7
								c0.9,3.3,5.2,1.7,5.2,1.7s5.2,2.9,4.9,8.6c-0.5,10,13.4,14.4-2.1,19.9c-6.4,2.3-2.2,25.4-21,22.4
								c-9.6-1.5-14.2-21.3,2.3-35.8c5.7-5,1.2-13.5,4.2-18.2c7.5-11.8-0.1-13.4,11.9-17.7c8.7-3.1,12.2,0,13.5,2
								c4.3-5.5,8.6-1,9.3,4.4C267.1,119.8,266.5,122.5,265.1,122.5z"/>
						</g>
					</g>
				</g>
				<g>
					<rect x="293.5" y="182.9" class="st25" width="58" height="3"/>
					<g>
						<g>
							<path class="st26" d="M312.3,182.9h-0.5c-0.9,0-1.7-0.8-1.7-1.7V165h3.9v16.2C314,182.2,313.2,182.9,312.3,182.9z"/>
							<rect x="310.1" y="160" class="st27" width="3.9" height="5"/>
							<rect x="310.1" y="157.3" class="st25" width="3.9" height="1.5"/>
						</g>
						<g>
							<path class="st26" d="M322.7,182.9h-0.5c-0.9,0-1.7-0.8-1.7-1.7v-12.1h3.9v12.1C324.4,182.2,323.6,182.9,322.7,182.9z"/>
							<rect x="320.4" y="160" class="st27" width="3.9" height="9.1"/>
							<rect x="320.4" y="157.3" class="st25" width="3.9" height="1.5"/>
						</g>
						<g>
							<path class="st26" d="M333.2,182.9h-0.5c-0.9,0-1.7-0.8-1.7-1.7v-17.8h3.9v17.8C334.9,182.2,334.1,182.9,333.2,182.9z"/>
							<rect x="331" y="160" class="st27" width="3.9" height="3.4"/>
							<rect x="331" y="157.3" class="st25" width="3.9" height="1.5"/>
						</g>
						<rect x="307.7" y="158.5" class="st25" width="29.5" height="1.5"/>
					</g>
				</g>
			</g>
		</g>
	</g>
</g>
<g id="DESIGNED_BY_FREEPIK">
</g>
</svg>
