<?xml version="1.0" encoding="iso-8859-1"?>
<!-- Generator: Adobe Illustrator 27.1.0, SVG Export Plug-In . SVG Version: 6.00 Build 0)  -->
<svg version="1.1" xmlns="http://www.w3.org/2000/svg" xmlns:xlink="http://www.w3.org/1999/xlink" x="0px" y="0px"
	 viewBox="0 0 750 500" style="enable-background:new 0 0 750 500;" xml:space="preserve">
<g id="BACKGROUND">
</g>
<g id="OBJECTS">
	<g>
		<path style="fill:#EFF8FA;" d="M284.046,368.863c0,0-82.353-85.558-36.968-128.299c31.997-30.133-2.796-117.427,61.509-121.154
			c64.305-3.728,90.4,82.012,125.814,104.379c35.414,22.367,47.841,7.145,70.207,34.482c31.558,38.571-9.32,109.971-9.32,109.971
			L284.046,368.863z"/>
		<ellipse style="fill:#D5EEF2;" cx="382.627" cy="368.198" rx="129.853" ry="12.511"/>
		<g>
			<ellipse cx="382.834" cy="369.174" rx="52.811" ry="3.417"/>
			<g>
				<g>
					<path style="fill:#D2E5E9;" d="M444.944,312.232c-0.471,5.36-1.875,10.141-1.875,10.141s-2.275,0.418-6.186,0.987
						c-2.027,0.293-4.497,0.622-7.315,0.96h-0.009c-1.893,0.222-3.938,0.444-6.115,0.667c-3.786,0.365-7.955,0.693-12.39,0.933
						c-0.142,0.009-0.293,0.018-0.444,0.027c-0.711,0.035-1.431,0.071-2.151,0.107c-8.23,0.373-17.19,0.382-26.024-0.32
						c-3.573-0.275-6.995-0.827-10.292-1.609c-4.435-1.049-8.639-2.542-12.595-4.435c-1.004-0.462-1.991-0.969-2.969-1.493
						c-0.382-0.204-0.764-0.409-1.138-0.622c-1.422-0.8-2.818-1.662-4.177-2.551c-13.43-8.924-23.882-22.647-32.157-38.797
						c-11.057-21.563-12.612-62.11-12.799-77.451c-0.044-4,2.507-7.582,6.32-8.799c1.573-0.498,3.502-1.031,5.84-1.573
						c0.631-0.142,1.289-0.293,1.973-0.436c0.755-0.16,1.564-0.311,2.418-0.453c0.613-0.098,1.262-0.196,1.92-0.293
						c0.107-0.018,0.213-0.036,0.32-0.044c0.844-0.116,1.715-0.222,2.613-0.329c0.898-0.107,1.813-0.205,2.738-0.293
						c0.062-0.009,0.115-0.018,0.178-0.018c0.409-0.035,0.818-0.08,1.227-0.115c1.351-0.116,2.711-0.231,4.071-0.329
						c0.293-0.027,0.587-0.044,0.88-0.062c0.595-0.035,1.182-0.08,1.76-0.115c1.733-0.107,3.431-0.204,5.031-0.276
						c0.533-0.027,1.058-0.053,1.564-0.071c0.507-0.027,1.004-0.045,1.484-0.062h0.009c1.147-0.044,2.213-0.08,3.164-0.116
						c0.32-0.009,0.622-0.018,0.907-0.027c0.151-0.009,0.284-0.009,0.427-0.009c0.204-0.009,0.409-0.018,0.595-0.018
						c1.707-0.044,2.729-0.062,2.729-0.062c0.969,0.373,1.973,1.102,2.995,2.124c0.116,0.107,0.231,0.222,0.338,0.347
						c0.231,0.24,0.462,0.498,0.693,0.764c0.427,0.498,0.853,1.04,1.28,1.627c0.035,0.044,0.071,0.089,0.107,0.142
						c0.231,0.32,0.471,0.658,0.702,1.004c0.035,0.053,0.08,0.116,0.115,0.178c0.151,0.222,0.311,0.462,0.462,0.702
						c0.16,0.24,0.32,0.498,0.48,0.755c0.151,0.24,0.293,0.489,0.444,0.738c0.782,1.289,1.555,2.693,2.338,4.204
						c0.258,0.498,0.516,1.013,0.782,1.538c0.978,1.982,1.964,4.115,2.942,6.355c0.311,0.711,0.622,1.422,0.924,2.151
						c0.009,0.027,0.027,0.053,0.036,0.08c0.231,0.551,0.462,1.111,0.702,1.68l0.347,0.853c0.347,0.853,0.693,1.715,1.04,2.595
						c0.533,1.36,1.067,2.738,1.591,4.142c0.036,0.098,0.08,0.196,0.116,0.293c0.222,0.596,0.444,1.2,0.675,1.804
						c0.436,1.209,0.88,2.418,1.315,3.635c0.187,0.525,0.373,1.058,0.56,1.582c0.027,0.08,0.053,0.16,0.089,0.24
						c0.427,1.218,0.844,2.435,1.262,3.653c0.116,0.338,0.231,0.676,0.347,1.013c0.187,0.569,0.382,1.138,0.578,1.706
						c0.347,1.058,0.693,2.107,1.04,3.146c0.142,0.444,0.293,0.898,0.435,1.333c0.187,0.596,0.382,1.182,0.569,1.769
						c0.178,0.551,0.347,1.093,0.524,1.635c0.098,0.32,0.204,0.64,0.302,0.96c0.364,1.146,0.711,2.275,1.058,3.377
						c0.018,0.071,0.044,0.142,0.062,0.213c0.151,0.48,0.293,0.951,0.444,1.422c0.16,0.542,0.329,1.075,0.489,1.6
						c0.08,0.267,0.16,0.524,0.24,0.782c0.08,0.258,0.151,0.516,0.231,0.773c0.151,0.516,0.302,1.022,0.453,1.52
						c0.027,0.08,0.053,0.16,0.071,0.249c0.098,0.329,0.195,0.658,0.293,0.987c0.489,1.627,0.933,3.155,1.342,4.577
						c0.151,0.507,0.293,1.004,0.427,1.475c0.249,0.862,0.48,1.662,0.684,2.418c0.071,0.231,0.133,0.453,0.196,0.684
						c0.764,2.729,1.28,4.613,1.475,5.342c0.018,0.08,0.036,0.151,0.053,0.195c0.027,0.098,0.035,0.142,0.035,0.142
						s45.134,28.291,52.884,32.673C444.962,300.668,445.433,306.757,444.944,312.232z"/>
					<path style="fill:#9AD0D9;" d="M444.944,312.232c-0.471,5.36-1.875,10.141-1.875,10.141s-2.275,0.418-6.186,0.987
						c-2.027,0.293-4.497,0.622-7.315,0.96h-0.009c-5.822-4.382-7.108-10.528-8.618-12.617
						c-23.963,2.684-52.781-0.555-67.615-18.527c-23.074-27.962-34.921-86.135-34.859-104.773c0.631-0.142,1.289-0.293,1.973-0.436
						c0.755-0.16,1.564-0.311,2.418-0.453c0.613-0.107,1.262-0.205,1.92-0.293c0.107-0.018,0.213-0.036,0.32-0.044
						c0.844-0.116,1.715-0.222,2.613-0.329c0.898-0.107,1.813-0.205,2.738-0.293c0.062-0.009,0.115-0.018,0.178-0.018
						c0.409-0.035,0.818-0.08,1.227-0.115c1.342-0.125,2.711-0.231,4.071-0.329c0.293-0.027,0.587-0.044,0.88-0.062
						c0.595-0.044,1.173-0.08,1.76-0.115c1.733-0.107,3.431-0.204,5.031-0.276c0.533-0.027,1.058-0.053,1.564-0.071
						c0.507-0.027,1.004-0.045,1.484-0.062h0.009c1.147-0.044,2.213-0.08,3.164-0.116c0.32-0.009,0.622-0.018,0.907-0.027
						c0.151-0.009,0.284-0.009,0.427-0.009c0.204-0.009,0.409-0.018,0.595-0.018c1.707-0.044,2.729-0.062,2.729-0.062
						c0.969,0.373,1.973,1.102,2.995,2.124c0.116,0.107,0.231,0.222,0.338,0.347c0.231,0.24,0.462,0.498,0.693,0.764
						c0.427,0.498,0.853,1.04,1.28,1.627c0.035,0.044,0.071,0.089,0.107,0.142c0.231,0.32,0.462,0.658,0.702,1.004
						c0.035,0.053,0.08,0.116,0.115,0.178c0.151,0.222,0.311,0.462,0.462,0.702c0.16,0.24,0.32,0.498,0.48,0.755
						c0.151,0.24,0.293,0.489,0.444,0.738c0.782,1.289,1.555,2.693,2.338,4.204c0.258,0.498,0.516,1.013,0.782,1.538
						c0.978,1.982,1.964,4.115,2.942,6.355c0.311,0.711,0.622,1.422,0.924,2.151c0.009,0.027,0.027,0.053,0.036,0.08
						c0.231,0.551,0.462,1.111,0.702,1.68l0.347,0.853c0.347,0.853,0.693,1.715,1.04,2.595c0.533,1.36,1.067,2.738,1.591,4.142
						c0.036,0.098,0.08,0.196,0.116,0.293c0.222,0.596,0.444,1.2,0.675,1.804c0.436,1.209,0.88,2.418,1.315,3.635
						c0.187,0.525,0.373,1.058,0.56,1.582c0.027,0.08,0.053,0.16,0.089,0.24c0.427,1.218,0.844,2.444,1.262,3.653
						c0.116,0.338,0.231,0.676,0.347,1.013c0.187,0.569,0.382,1.138,0.578,1.706c0.347,1.058,0.693,2.107,1.04,3.146
						c0.142,0.444,0.293,0.898,0.435,1.333c0.187,0.596,0.382,1.182,0.569,1.769c0.178,0.551,0.347,1.093,0.524,1.635
						c0.098,0.32,0.204,0.64,0.302,0.96c0.364,1.146,0.711,2.275,1.058,3.377c0.018,0.071,0.044,0.142,0.062,0.213
						c0.151,0.48,0.293,0.951,0.444,1.422c0.16,0.542,0.329,1.075,0.489,1.6c0.08,0.267,0.16,0.524,0.24,0.782
						c0.071,0.267,0.151,0.525,0.231,0.773c0.151,0.516,0.302,1.022,0.453,1.52c0.027,0.08,0.053,0.16,0.071,0.249
						c0.098,0.329,0.195,0.658,0.293,0.987c0.489,1.627,0.933,3.155,1.342,4.577c0.151,0.507,0.293,1.004,0.427,1.475
						c0.249,0.862,0.48,1.662,0.684,2.418c0.071,0.231,0.133,0.453,0.196,0.684c0.764,2.729,1.28,4.613,1.475,5.342
						c0.018,0.08,0.036,0.142,0.053,0.195c0.027,0.098,0.035,0.142,0.035,0.142s45.134,28.291,52.884,32.673
						C444.962,300.668,445.433,306.757,444.944,312.232z"/>
					<path style="fill:#D2E5E9;" d="M369.071,207.899c-7.635-5.004-15.91-14.212-22.425-22.398c4.604-0.178,7.822-0.231,7.822-0.231
						C358.992,187.029,364.165,196.273,369.071,207.899z"/>
				</g>
				<g>
					<path style="fill:#3C2772;" d="M354.521,363.272l4.506-9.759c0,0-5.511-5.759-5.253-11.012c0.249-5.253,6-9.004,6-9.004
						l-4.337-15.928c0.373,0.213,0.755,0.418,1.138,0.622c0.978,0.524,1.964,1.031,2.969,1.493
						c3.955,1.893,8.159,3.386,12.595,4.435c3.297,0.782,6.719,1.333,10.293,1.609c8.835,0.702,17.794,0.693,26.024,0.32
						c0.72-0.036,1.44-0.071,2.151-0.107c0.151-0.009,0.302-0.018,0.444-0.027l-3.982,7.582c0,0,4.133,1.751,5.253,9.004
						c0.542,3.475-0.64,6.142-2.009,7.982c-1.511,2.009-3.244,3.031-3.244,3.031l5.999,9.759H354.521z"/>
					<path style="fill:#5C4596;" d="M410.312,350.482c-22.834-7.742-54.875-32.913-54.875-32.913
						c0.373,0.213,0.755,0.418,1.138,0.622c0.978,0.524,1.964,1.031,2.969,1.493c3.955,1.893,8.159,3.386,12.595,4.435
						c3.297,0.782,6.719,1.333,10.293,1.609c8.835,0.702,17.794,0.693,26.024,0.32c0.72-0.036,1.44-0.071,2.151-0.107
						c0.151-0.009,0.302-0.018,0.444-0.027l-3.982,7.582c0,0,4.133,1.751,5.253,9.004
						C412.863,345.976,411.681,348.642,410.312,350.482z"/>
				</g>
				<path style="fill:#87CDD9;" d="M421.464,368.81H343.85c-2.395,0-3.129-3.246-0.968-4.277l5.469-2.608h67.412l6.518,2.543
					C424.597,365.371,423.95,368.81,421.464,368.81z"/>
			</g>
			<g>
				<g>
					<path style="fill:#FB5859;" d="M423.218,284.47c0,0.009-0.009,0.009-0.009,0.018c-13.306-8.924-28.362-17.927-28.362-17.927
						c0.409-2.489-23.989-30.984-23.989-30.984s0.018-0.009,0.062-0.027c0.186-0.062,0.48-0.178,0.862-0.4
						c0.809-0.453,2.035-1.369,3.608-3.209c0.116-0.133,0.213-0.258,0.293-0.373c0.391-0.489,0.72-1.013,1.013-1.555
						c0.373-0.684,0.693-1.387,0.96-2.08l18.843,30.291c0,0,1.929,1.849,4.586,4.337c5.235,4.924,13.288,12.354,14.834,13.03
						C418.249,276.595,425.706,279.03,423.218,284.47z"/>
					<path style="fill:#FB696A;" d="M401.086,262.561l-9.004-1.191c0,0-14.31-18.158-20.3-26.22
						c0.809-0.453,2.035-1.369,3.608-3.209c0.116-0.133,0.213-0.258,0.293-0.373c0.391-0.489,0.72-1.013,1.013-1.555
						c0.373-0.684,0.693-1.387,0.96-2.08l18.843,30.291C396.5,258.223,398.429,260.072,401.086,262.561z"/>
				</g>
				<g>
					<g>
						<path style="fill:#071651;" d="M493.647,349.664c-2.498,1.831-14.763,5.466-17.385,4.959c-2.96-0.578-5.751-8.968-5.751-8.968
							l5.093-1.351l0.089-0.027c0,0,8.524,3.635,11.963,3.76c3.44,0.124,5.991-0.4,6.426,1.013
							C494.136,349.211,493.976,349.424,493.647,349.664z"/>
						<path style="fill:#FB696A;" d="M475.697,344.278c0,0-1.427,5.214-5.183,1.377L475.697,344.278z"/>
						<path style="fill:#3C2772;" d="M475.702,344.278l-4.977,1.849c0,0-32.673-27.713-34.148-30.389
							c-1.475-2.684-5.448-10.915-5.448-10.915L374.6,279.315c0,0,15.91-14.185,20.185-12.781c0,0,15.839,7.777,29.855,15.546
							c4.764,2.649,9.057,4.728,12.435,6.462c4.08,2.098,6.817,3.698,7.457,5.173c0.604,1.395,2.471,4.666,5.022,8.906
							C458.477,317.48,475.702,344.278,475.702,344.278z"/>
						<path style="fill:#5C4596;" d="M449.553,302.62c-7.973-0.827-11.235-9.128-12.479-14.079c4.08,2.098,6.817,3.698,7.457,5.173
							C445.136,295.109,447.002,298.38,449.553,302.62z"/>
						<path style="fill:#102885;" d="M493.647,349.664c-2.275,0.213-5.502,0.098-9.537-0.213c-6.16-0.471-7.982-3.662-8.506-5.146
							l0.089-0.027c0,0,8.524,3.635,11.963,3.76c3.44,0.124,5.991-0.4,6.426,1.013C494.136,349.211,493.976,349.424,493.647,349.664
							z"/>
					</g>
					<g>
						<path style="fill:#192B75;" d="M479.426,357.575c0.435,1.413-14.852,6.151-17.821,5.573c-2.32-0.462-4.533-5.724-5.386-7.973
							c-0.231-0.613-0.364-1.004-0.364-1.004l3.164-0.836l2.018-0.533c0,0,8.524,3.635,11.963,3.769
							c3.138,0.107,5.537-0.329,6.266,0.675C479.337,357.335,479.391,357.45,479.426,357.575z"/>
						<path style="fill:#213CA6;" d="M479.266,357.246c-3.378,0.898-11.03,0-15.661-0.498c-3.182-0.347-4.24-2.213-4.586-3.413
							l2.018-0.533c0,0,8.524,3.635,11.963,3.769C476.138,356.677,478.537,356.242,479.266,357.246z"/>
						<path style="fill:#FB696A;" d="M461.038,352.804c0,0-1.375,4.916-4.82,2.373c-0.231-0.614-0.362-1.004-0.362-1.004
							L461.038,352.804z"/>
						<path style="fill:#654CDB;" d="M461.046,352.802l-4.826,2.373c0,0-19.474-19.723-22.478-25.704
							c-3.004-5.982-11.03-19.82-11.03-19.82s-9.661,1.147-26.451-2.871c-28.807-6.879-36.264-25.518-36.264-25.518
							c-3.333-6.266,30.193-10.257,30.193-10.257s24.531,15.679,37.286,24.327c3.697,2.507,6.399,4.417,7.235,5.191
							c0.96,0.889,3.173,4.791,5.928,10.097C448.593,325.898,461.046,352.802,461.046,352.802z"/>
						<path style="fill:#745EDB;" d="M440.639,310.619c-0.107-0.018-0.222-0.036-0.338-0.053
							c-7.884-1.44-11.892-12.328-12.826-15.234c3.697,2.507,6.399,4.417,7.235,5.191
							C435.67,301.411,437.883,305.313,440.639,310.619z"/>
					</g>
				</g>
				<g>
					<path style="fill:#FFB857;" d="M395.158,267.076c0,0.035-0.009,0.071-0.009,0.107c-0.115,0.72-0.622,1.307-1.138,1.831
						c-2.507,2.551-5.662,4.462-9.057,5.564c-1.458,0.48-2.969,0.809-4.489,0.987c-0.987,0.116-2.053,0.178-3.013,0.027
						c-0.987-0.151-1.875-0.471-2.862-0.569c-3.013-0.302-6.026-0.604-9.03-0.907c-0.542-0.053-1.111-0.116-1.573-0.4
						c-0.533-0.338-0.844-0.924-1.129-1.475c-3.6-6.995-6.968-14.106-10.115-21.314c-3.804,5.911-10.159,10.133-17.083,11.35
						c-0.427,0.071-0.915,0.124-1.271-0.133c-0.338-0.249-0.436-0.702-0.507-1.111c-1.929-10.71-3.866-21.411-5.795-32.113
						c-0.276-1.538-0.551-3.111-0.356-4.666c0.311-2.435,1.751-4.568,3.271-6.497c1.92-2.444,4.035-4.737,6.319-6.853
						c0.498-0.471,1.013-0.924,1.591-1.289c0.142-0.098,0.293-0.178,0.453-0.258c0.978-0.489,2.08-0.631,3.164-0.764
						c3.653-0.471,7.342-0.933,11.004-0.524c5.084,0.569,9.866,2.818,14.061,5.733c4.195,2.924,7.884,6.515,11.546,10.088
						c0.533,0.524,1.111,1.111,1.218,1.858c0.089,0.56-0.107,1.12-0.302,1.653c-1.244,3.378-3.271,7.057-6.799,7.75
						c6.577,8.515,12.861,17.261,18.825,26.22c0.729,1.093,1.458,2.195,2.178,3.298C394.74,265.396,395.238,266.214,395.158,267.076
						z"/>
					<path style="fill:#FFAB38;" d="M392.083,261.37c-27.909-1.831-47.098-38.459-53.169-51.756
						c0.142-0.098,0.293-0.178,0.453-0.258c0.978-0.489,2.08-0.631,3.164-0.764c3.653-0.471,7.342-0.933,11.004-0.524
						c5.084,0.569,9.866,2.818,14.061,5.733c4.195,2.924,7.884,6.515,11.546,10.088c0.533,0.524,1.111,1.111,1.218,1.858
						c0.089,0.56-0.107,1.12-0.302,1.653c-1.244,3.378-3.271,7.057-6.799,7.75C379.835,243.665,386.119,252.41,392.083,261.37z"/>
				</g>
				<g>
					<path style="fill:#D2E5E9;" d="M332.175,282.198c0.164-2.106,1.95-3.705,4.061-3.641c9.302,0.281,52.129,0.987,53.122,4.1
						c1.238,3.883,1.864,10.821-1.864,11.753c-3.728,0.932-55.604-2.589-55.604-6.317
						C331.889,286.33,332.028,284.08,332.175,282.198z"/>
					<path style="fill:#FB696A;" d="M392.076,279.939c0,0,2.295-0.836,2.951-0.777c0.854,0.078,0.647,1.89-1.398,2.485
						C391.465,282.277,392.076,279.939,392.076,279.939z"/>
					<path style="fill:#FB696A;" d="M394.331,287.083c-0.124,2.364-1.458,7.537-3.217,6.702c-1.76-0.827-1.547-4.009-1.52-6.24
						c0.027-2.222,0-4.346-1.218-5.093c-1.955-1.209-22.007,2.738-29.26,0.462c-8.31-2.613-19.465-21.225-19.465-21.225
						c-0.062-0.178-0.107-0.347-0.124-0.524c2.711-1.049,5.911-2.533,8.213-4.364c0.533-0.418,1.022-0.862,1.44-1.324
						c1.644-1.813,2.773-3.36,3.529-4.568c0.311,0.72,0.853,1.929,1.529,3.44c0.009,0.009,0.009,0.018,0.009,0.027
						c2.835,6.311,9.421,18.763,9.484,18.807c0.933,0.613,6.648,0.773,12.479,1.964c0.871,0.178,1.76,0.382,2.649,0.596
						c5.155,1.244,9.75,1.449,11.972,2.72c0.853,0.489,1.511,1.129,2,1.849C394.287,282.417,394.42,285.234,394.331,287.083z"/>
					<path style="fill:#FB8081;" d="M392.829,280.31c-4.48-0.622-13.466-1.671-24.807-2.471
						c-13.083-0.916-19.109-17.421-20.283-21.038c0.533-0.418,1.022-0.862,1.44-1.324c1.644-1.813,2.773-3.36,3.529-4.568
						c0.311,0.72,0.853,1.929,1.529,3.44c0.009,0.009,0.009,0.018,0.009,0.027c2.835,6.311,9.421,18.763,9.484,18.807
						c0.933,0.613,6.648,0.773,12.479,1.964c0.871,0.178,1.76,0.382,2.649,0.596c5.155,1.244,9.75,1.449,11.972,2.72
						C391.683,278.95,392.34,279.59,392.829,280.31z"/>
				</g>
				<g>
					<g>
						<path style="fill:#FB696A;" d="M356.214,191.46c-0.089,4.969-1.315,8.773-4.231,10.292c-0.8,0.427-1.733,0.676-2.8,0.729
							c-5.004,0.24-9.359-4-12.088-7.519c-1.893-2.453-3.004-4.551-3.004-4.551s-0.178,0.08-0.48,0.178
							c-1.129,0.382-3.928,1.067-4.648-1.084c-0.711-2.116,1.342-4.24,3.857-4.346c0.702-0.035,1.449,0.098,2.178,0.427
							c0,0-0.462-1.209-0.658-2.871c-0.24-1.955-0.116-4.551,1.564-6.488c1.333-1.538,7.404-4.48,12.195-4.56
							c2.8-0.044,5.155,0.889,5.848,3.662c1.129,4.497,1.929,8.932,2.186,12.87C356.205,189.327,356.241,190.42,356.214,191.46z"/>
						<path style="fill:#FB8D8D;" d="M356.214,191.46c-1.858,1.004-3.449,1.538-3.982,0.951
							c-1.556-1.707-12.426-17.785-12.426-17.785l8.293-2.96c2.8-0.044,5.155,0.889,5.848,3.662
							c1.129,4.497,1.929,8.932,2.186,12.87C356.205,189.327,356.241,190.42,356.214,191.46z"/>
					</g>
					<path style="fill:#FB696A;" d="M350.319,208.721c0,0-1.04,1.973-4.977,2.178c-3.946,0.204-5.591-1.244-5.591-1.244
						s-2.658-14.695-2.659-14.697c0.068,0.369,0.804,1.006,1.061,1.308c0.405,0.475,0.824,0.938,1.259,1.385
						c0.875,0.899,1.815,1.738,2.839,2.465c2.01,1.428,4.371,2.4,6.869,2.357c0.393-0.007,0.594-0.133,0.727,0.202
						c0.069,0.174,0.033,0.467,0.046,0.653c0.045,0.632,0.089,1.263,0.134,1.895C350.091,206.129,350.255,207.814,350.319,208.721z"
						/>
					<g>
						<path style="fill:#331D68;" d="M335.931,185.052c0,0.009,0,0.009,0,0.009s3.315,5.6,6.622,5.6
							c1.191,0,4.151-0.533,7.342-1.182c2.72-0.551,5.599-1.191,7.697-1.644c0.027-0.009,2.204,5.048,0.062,10.284
							c-0.062,0.169-0.133,0.338-0.213,0.507c-1.111,2.391-4.862,3.404-7.564,3.742c-0.018,0.009-0.036,0.009-0.053,0.009
							c-5.324,0.631-9.715-3.52-12.728-7.413c-1.893-2.453-3.004-4.551-3.004-4.551l-1.299-4.937
							c-1.235-0.169-2.278,0.388-2.278,0.388s-1-3.54-1.738-7.273c-0.231-1.209-0.684-5.893,3.626-8.648
							c1.111-0.711,2.338-1.484,3.626-2.275c9.999-6.124,24.105-13.421,23.091-2.284c-1.102,12.097-12.914,11.324-18.559,10.248
							c-1.804-0.347-2.977-0.72-2.977-0.72S337.585,182.145,335.931,185.052z"/>
						<path style="fill:#4D348A;" d="M357.654,198.117c-2.684-2.755-5.306-5.715-7.759-8.639c2.72-0.551,5.599-1.191,7.697-1.644
							C357.618,187.825,359.796,192.882,357.654,198.117z"/>
						<path style="fill:#4D348A;" d="M359.121,165.382c-1.102,12.097-12.914,11.324-18.559,10.248
							c-1.689-2.729-3.306-5.502-4.533-7.964C346.028,161.542,360.134,154.245,359.121,165.382z"/>
					</g>
				</g>
			</g>
			<path d="M488.87,367.31c0,0.858-9.087,1.553-20.296,1.553c-11.209,0-20.296-0.695-20.296-1.553c0-0.858,9.087-1.553,20.296-1.553
				C479.783,365.756,488.87,366.452,488.87,367.31z"/>
		</g>
		<g>
			<path d="M315.215,367.465c0,1.115-10.292,2.019-22.988,2.019c-12.696,0-22.988-0.904-22.988-2.019
				c0-1.115,10.292-2.019,22.988-2.019C304.923,365.446,315.215,366.35,315.215,367.465z"/>
			<g>
				<g>
					
						<rect x="178.372" y="247.946" transform="matrix(-1.836970e-16 1 -1 -1.836970e-16 542.1563 -43.1916)" style="fill:#87CDD9;" width="228.603" height="3.072"/>
					<rect x="275.799" y="363.84" style="fill:#87CDD9;" width="34.083" height="3.789"/>
					<rect x="264.261" y="133.285" style="fill:#9AD0D9;" width="57.16" height="3.313"/>
				</g>
				<g>
					<polygon style="fill:#FFFFFF;" points="362.331,274.562 359.845,278.577 361.757,279.724 364.816,275.709 					"/>
					<path style="fill:none;stroke:#C4314A;stroke-linecap:round;stroke-miterlimit:10;" d="M308.122,206.392
						c0,0-15.688,75.799,25.629,84.808c22.891,4.991,28.269-14.135,28.269-14.135"/>
					<g>
						<path style="fill:#9AD0D9;" d="M317.444,162.751c-0.436-0.613-3.297-0.738-6.026-0.755c-2.587-0.009-5.066,0.071-5.271-0.08
							c-0.427-0.311-1.44-2.738-2.524-3.52c-1.093-0.773-2.018,0.471-2.178,1.404c-0.151,0.924-1.449,3.271-1.698,3.591
							c-0.249,0.32-1.449,0.853-1.564,1.378c-2.4,10.87,1.244,36.583,4.506,37.428c0.995,0.258,2.311,0.462,3.769,0.569
							c0.027,0.693,0.258,3.662,1.662,3.626c1.52-0.036,1.129-3.271,1.084-3.555c4.053-0.044,8.382-0.853,10.106-2.969
							c0.516-0.622,0.827-2.204,0.987-4.382C321.008,185.843,318.715,164.52,317.444,162.751z M303.108,161.445
							c-0.453,0-0.818-0.365-0.818-0.818c0-0.445,0.364-0.809,0.818-0.809c0.453,0,0.818,0.364,0.818,0.809
							C303.925,161.08,303.561,161.445,303.108,161.445z"/>
						<path style="fill:#B4D4D9;" d="M320.293,195.483c-0.036,0.009-0.071,0.027-0.107,0.036
							c-10.106,3.057-9.093-27.162-8.773-33.526c2.729,0.018,5.591,0.142,6.026,0.756
							C318.711,164.517,321.004,185.84,320.293,195.483z"/>
					</g>
					<g>
						<path style="fill:#FF555F;" d="M317.769,195.439c0,0.693-0.027,1.28-0.071,1.733c-0.311,3.173-5.368,3.671-9.572,2.898
							c-0.196-0.036-0.382-0.071-0.569-0.107c-1.076-0.24-2.08-0.551-2.906-0.924c-4.142-1.867-3.929-18.434-3.929-18.434
							s0.053-0.044,0.169-0.115c0.809-0.587,4.56-3.138,9.768-4.231c0.48-0.098,0.924-0.178,1.333-0.222
							c4.186-0.551,4.622,1.298,4.666,1.626c0.009,0.027,0.009,0.044,0.009,0.044S317.813,189.848,317.769,195.439z"/>
						<path style="fill:#FF6B74;" d="M317.769,195.439c-0.124,0.036-0.249,0.062-0.382,0.08c-5.333,0.729-5.555-13.279-5.395-19.483
							c4.186-0.551,4.622,1.298,4.666,1.626c0.009,0.027,0.009,0.044,0.009,0.044S317.813,189.848,317.769,195.439z"/>
						<path style="fill:#E83540;" d="M316.658,177.663c-1.36,0.951-3.413,1.707-6.515,1.858c-4.124,0.204-7.164,0.595-9.253,0.969
							c0.809-0.587,4.56-3.138,9.768-4.231C316.089,175.112,316.614,177.298,316.658,177.663z"/>
					</g>
					<path style="fill:#9AD0D9;" d="M301.52,135.511c0,0,0.604,25.563,1.583,25.117c0.98-0.446,0.048-25.273,0.048-25.273
						L301.52,135.511z"/>
				</g>
			</g>
		</g>
	</g>
</g>
<g id="DESIGNED_BY_FREEPIK">
</g>
</svg>
