<?xml version="1.0" encoding="iso-8859-1"?>
<!-- Generator: Adobe Illustrator 27.1.0, SVG Export Plug-In . SVG Version: 6.00 Build 0)  -->
<svg version="1.1" xmlns="http://www.w3.org/2000/svg" xmlns:xlink="http://www.w3.org/1999/xlink" x="0px" y="0px"
	 viewBox="0 0 750 500" style="enable-background:new 0 0 750 500;" xml:space="preserve">
<g id="BACKGROUND">
</g>
<g id="OBJECTS">
	<ellipse style="fill:#E6D6E6;" cx="448.117" cy="310.762" rx="36.543" ry="6.354"/>
	<g>
		<path style="fill:#ADE3CA;" d="M401.172,255.805c-0.06-0.629,0.913-0.789,0.974-0.156c1.002,10.425,4.525,20.582,10.209,29.381
			c1.598,2.473,3.364,4.834,5.278,7.071c0.388,0.454-0.257,1.019-0.679,0.691c-0.084-0.047-0.152-0.113-0.194-0.198
			c-6.822-8.012-11.677-17.637-14.111-27.873C401.951,261.787,401.461,258.807,401.172,255.805z"/>
		<path style="fill:#ADE3CA;" d="M402.194,250.183c-0.496-1.091-1.514-2.268-2.191-0.397c-0.565,1.561,0.315,4.161,0.914,5.585
			c0.204,0.483,0.705,1.045,1.142,0.756c0.129-0.085,0.206-0.228,0.268-0.37c0.659-1.509,0.478-3.3,0.118-4.86
			C402.399,250.691,402.311,250.439,402.194,250.183z"/>
		<g>
			<path style="fill:#ADE3CA;" d="M406.89,256.986c0.275-1.166,0.189-2.721-1.491-1.654c-1.401,0.89-2.296,3.485-2.692,4.978
				c-0.134,0.507-0.081,1.258,0.442,1.297c0.154,0.011,0.302-0.054,0.438-0.128c1.444-0.791,2.396-2.319,3.065-3.773
				C406.741,257.513,406.826,257.26,406.89,256.986z"/>
			<path style="fill:#ADE3CA;" d="M398.307,257.484c-1.138-0.375-2.694-0.425-1.777,1.341c0.765,1.474,3.272,2.59,4.725,3.115
				c0.493,0.178,1.246,0.19,1.33-0.327c0.025-0.152-0.028-0.306-0.09-0.448c-0.662-1.508-2.101-2.588-3.492-3.382
				C398.819,257.678,398.574,257.572,398.307,257.484z"/>
		</g>
		<g>
			<path style="fill:#ADE3CA;" d="M408.633,265.159c0.275-1.166,0.189-2.721-1.491-1.654c-1.401,0.89-2.296,3.485-2.692,4.978
				c-0.135,0.507-0.081,1.258,0.442,1.296c0.154,0.011,0.302-0.054,0.438-0.128c1.444-0.791,2.396-2.319,3.065-3.773
				C408.483,265.686,408.568,265.434,408.633,265.159z"/>
			<path style="fill:#ADE3CA;" d="M400.049,265.657c-1.138-0.375-2.694-0.425-1.777,1.342c0.765,1.474,3.272,2.59,4.725,3.115
				c0.493,0.178,1.246,0.19,1.33-0.327c0.025-0.152-0.028-0.306-0.09-0.448c-0.663-1.508-2.101-2.588-3.492-3.382
				C400.561,265.852,400.317,265.745,400.049,265.657z"/>
		</g>
		<g>
			<path style="fill:#ADE3CA;" d="M410.541,272.043c0.099-1.194-0.215-2.719-1.719-1.416c-1.254,1.087-1.755,3.786-1.926,5.321
				c-0.058,0.521,0.105,1.256,0.628,1.217c0.154-0.011,0.291-0.098,0.414-0.192c1.311-0.996,2.027-2.647,2.474-4.185
				C410.471,272.586,410.518,272.324,410.541,272.043z"/>
			<path style="fill:#ADE3CA;" d="M402.125,273.803c-1.181-0.203-2.727-0.022-1.56,1.589c0.974,1.344,3.619,2.078,5.133,2.382
				c0.514,0.103,1.26,0.004,1.267-0.52c0.002-0.154-0.072-0.299-0.155-0.43c-0.878-1.393-2.461-2.249-3.953-2.829
				C402.66,273.92,402.403,273.851,402.125,273.803z"/>
		</g>
		<g>
			<path style="fill:#ADE3CA;" d="M413.105,277.493c-0.197-1.182-0.876-2.583-2.014-0.95c-0.949,1.362-0.773,4.101-0.562,5.631
				c0.072,0.52,0.41,1.192,0.908,1.026c0.146-0.049,0.258-0.167,0.355-0.288c1.027-1.287,1.315-3.064,1.371-4.664
				C413.171,278.037,413.152,277.771,413.105,277.493z"/>
			<path style="fill:#ADE3CA;" d="M405.379,281.265c-1.195,0.093-2.649,0.648-1.122,1.924c1.274,1.064,4.018,1.127,5.561,1.05
				c0.524-0.026,1.223-0.305,1.101-0.815c-0.036-0.15-0.143-0.272-0.256-0.378c-1.193-1.135-2.938-1.577-4.527-1.772
				C405.927,281.247,405.66,281.243,405.379,281.265z"/>
		</g>
	</g>
	<path style="fill:#ADE3CA;" d="M479.025,292.533c3.225-0.033,10.05-8.823,11.365-11.464c3.991-8.016-6.372-6.414-8.267-0.515
		c2.094-3.773,4.187-7.546,6.281-11.319c4.847-8.734,9.798-19.177,5.638-28.258c-1.624-3.545-5.097-6.643-8.981-6.293
		c-2.53,0.228-4.702,1.839-6.64,3.483c-9.722,8.248-17.59,19.645-18.341,32.372c1.087-9.992-0.228-20.237-3.802-29.631
		c-2.284-6.003-6.794-12.463-13.213-12.238c-4.087,0.143-7.648,3.181-9.478,6.838c-1.83,3.657-2.218,7.855-2.336,11.943
		c-0.267,9.302,2.172,18.38,3.592,27.427c-1.129-5.65-5.13-10.838-10.76-13.951c-1.437-0.795-3.109-1.48-4.799-1.251
		c-3.172,0.431-4.551,3.629-5.119,6.331c-1.886,8.979-1.63,18.282,0.748,27.175C414.914,293.181,478.957,292.533,479.025,292.533z"
		/>
	<g>
		<g>
			<g>
				<g>
					<path style="fill:#BEE2ED;" d="M400.151,157.932L400.151,157.932c6.535,0,11.834,5.298,11.834,11.834v5.691
						c0,6.535-5.298,11.834-11.834,11.834h0c-6.535,0-11.834-5.298-11.834-11.834v-5.691
						C388.317,163.23,393.615,157.932,400.151,157.932z"/>
				</g>
				<g>
					<path style="fill:#FF6391;" d="M389.909,179.024v-12.827c0-3.68,2.994-6.673,6.674-6.673h7.136c3.56,0,6.478,2.802,6.664,6.316
						c0.006,0.119,0.01,0.237,0.01,0.356v12.827c0,3.68-2.994,6.674-6.674,6.674h-7.136
						C392.903,185.698,389.909,182.704,389.909,179.024z"/>
				</g>
				<g>
					<path style="fill:#FFF5FF;" d="M409.384,166.629c-0.239,0-0.432-0.194-0.432-0.432c0-0.094-0.003-0.188-0.008-0.281
						c-0.147-2.776-2.441-4.951-5.225-4.951c-0.239,0-0.432-0.194-0.432-0.432c0-0.239,0.194-0.432,0.432-0.432
						c3.243,0,5.917,2.535,6.088,5.77c0.006,0.108,0.009,0.217,0.009,0.326C409.816,166.436,409.622,166.629,409.384,166.629z"/>
				</g>
				<g>
					<path style="fill:#BEE2ED;" d="M403.102,185.886h2.167v2.896c0,0.598-0.485,1.083-1.083,1.083l0,0
						c-0.598,0-1.083-0.485-1.083-1.083V185.886z"/>
				</g>
				<g>
					<path style="fill:#BEE2ED;" d="M399.067,185.886h2.167v2.896c0,0.598-0.485,1.083-1.083,1.083l0,0
						c-0.598,0-1.083-0.485-1.083-1.083V185.886z"/>
				</g>
				<g>
					<path style="fill:#BEE2ED;" d="M395.033,185.886h2.167v2.896c0,0.598-0.485,1.083-1.083,1.083l0,0
						c-0.598,0-1.083-0.485-1.083-1.083V185.886z"/>
				</g>
			</g>
			<g>
				<path style="fill:#FF6391;" d="M404.185,188.959c-0.199,0-0.36-0.161-0.36-0.36v-3.545c0-0.199,0.161-0.36,0.36-0.36
					c0.199,0,0.36,0.161,0.36,0.36v3.545C404.546,188.797,404.384,188.959,404.185,188.959z"/>
			</g>
			<g>
				<path style="fill:#FF6391;" d="M396.116,188.959c-0.199,0-0.36-0.161-0.36-0.36v-3.545c0-0.199,0.161-0.36,0.36-0.36
					s0.36,0.161,0.36,0.36v3.545C396.476,188.797,396.315,188.959,396.116,188.959z"/>
			</g>
			<g>
				<path style="fill:#FF6391;" d="M400.151,188.959c-0.199,0-0.36-0.161-0.36-0.36v-3.545c0-0.199,0.161-0.36,0.36-0.36
					s0.36,0.161,0.36,0.36v3.545C400.511,188.797,400.35,188.959,400.151,188.959z"/>
			</g>
		</g>
		<g>
			<circle style="fill:#FFF5FF;" cx="400.157" cy="172.489" r="6.476"/>
		</g>
		<g>
			<polygon style="fill:#FF6391;" points="403.904,171.116 401.411,171.116 401.411,168.622 398.891,168.622 398.891,171.116 
				396.398,171.116 396.398,173.635 398.891,173.635 398.891,176.129 401.411,176.129 401.411,173.635 403.904,173.635 			"/>
		</g>
		<g>
			<path style="fill:#BEE2ED;" d="M403.536,156.333h-6.77c-1.707,0-3.091,1.384-3.091,3.091l0,0h12.952l0,0
				C406.626,157.717,405.243,156.333,403.536,156.333z"/>
		</g>
		<g>
			<path style="fill:#BEE2ED;" d="M400.151,158.099L400.151,158.099c-1.077,0-1.95-0.873-1.95-1.95v-0.957
				c0-1.077,0.873-1.95,1.95-1.95l0,0c1.077,0,1.95,0.873,1.95,1.95v0.957C402.101,157.226,401.228,158.099,400.151,158.099z"/>
		</g>
		<g>
			<path style="fill:#FFF5FF;" d="M400.887,154.935c0,0.406-0.329,0.736-0.736,0.736c-0.406,0-0.736-0.329-0.736-0.736
				c0-0.406,0.329-0.736,0.736-0.736C400.557,154.199,400.887,154.528,400.887,154.935z"/>
		</g>
	</g>
	<g>
		<g>
			<path style="fill:#B38DC4;" d="M429.209,191.779c0,0-4.915,13.422-5.293,19.661s4.159,6.049,4.159,6.049
				s6.238-10.019,6.806-12.288C435.448,202.933,429.209,191.779,429.209,191.779z"/>
			<g>
				<g>
					<g>
						<polygon style="fill:#FFBAA5;" points="462.046,300.711 457.134,300.711 457.109,305.862 463.153,305.862 						"/>
					</g>
					<g>
						<path style="fill:#AA9FFF;" d="M461.992,306.869c0,0-0.652-2.183-0.326-2.351c0.326-0.168,3.421-0.168,3.584,0.168
							c0.163,0.336-0.815,2.687-0.815,2.687L461.992,306.869z"/>
						<path style="fill:#AA9FFF;" d="M471.293,311.067c0.641,0,1.039-0.717,0.714-1.287c-0.696-1.221-1.951-2.889-3.659-3.024
							c-2.719-0.216-5.229-0.647-5.229-0.647l0.034-0.247h-6.044l-1.114,4.424c-0.1,0.395,0.19,0.781,0.586,0.781H471.293z"/>
						<path style="fill:#E8C1FC;" d="M455.995,310.286c-0.099,0.395,0.19,0.781,0.586,0.781h14.712c0.641,0,1.039-0.717,0.714-1.287
							c-0.01-0.018-0.022-0.038-0.033-0.056h-15.837L455.995,310.286z"/>
					</g>
				</g>
				<path style="fill:#A7B0E4;" d="M454.916,230.66l8.245,73.653h-6.413c-0.293-1.174-0.584-2.348-0.874-3.522
					c-1.356-5.482-2.698-10.968-3.997-16.464c-1.473-6.237-2.599-12.535-3.965-18.735c-0.755-3.424-0.743-7.153-1.177-10.636
					c-0.441-3.544-0.989-7.08-1.819-10.555c-1.095-4.58-2.189-9.16-3.284-13.74"/>
				<rect x="439.718" y="232.759" style="fill:#A7B0E4;" width="5.464" height="6.541"/>
				<g>
					<g>
						<polygon style="fill:#FFBAA5;" points="432.56,300.711 437.472,300.711 437.497,305.862 431.454,305.862 						"/>
					</g>
					<g>
						<path style="fill:#AA9FFF;" d="M432.615,306.869c0,0,0.652-2.183,0.326-2.351c-0.326-0.168-3.421-0.168-3.584,0.168
							c-0.163,0.336,0.815,2.687,0.815,2.687L432.615,306.869z"/>
						<path style="fill:#AA9FFF;" d="M423.313,311.067c-0.641,0-1.039-0.717-0.714-1.287c0.696-1.221,1.951-2.889,3.659-3.024
							c2.719-0.216,5.229-0.647,5.229-0.647l-0.034-0.247h6.044l1.114,4.424c0.1,0.395-0.19,0.781-0.586,0.781H423.313z"/>
						<path style="fill:#E8C1FC;" d="M438.611,310.286c0.1,0.395-0.19,0.781-0.586,0.781h-14.712c-0.641,0-1.039-0.717-0.714-1.287
							c0.01-0.018,0.022-0.038,0.033-0.056h15.837L438.611,310.286z"/>
					</g>
				</g>
				<path style="fill:#A7B0E4;" d="M430.231,223.357c0.035-1.58,1.288-2.843,2.822-2.843h18.295c1.446,0,2.658,1.126,2.807,2.608
					l1.047,10.371h-13.016c-0.021,0.318-0.087,1.285-0.183,2.691c0.214,0.798,0.37,1.821,0.447,3.117
					c0.622,10.442-1.988,20.711-2.22,31.12c-0.055,2.471,0.066,4.75-0.172,7.237c-0.262,2.744-0.525,5.487-0.787,8.231
					c-0.587,6.142-1.175,12.283-1.762,18.425h-5.955L430.231,223.357z"/>
				<ellipse style="fill:#341674;" cx="441.657" cy="228.762" rx="11.282" ry="3.089"/>
				<g>
					<path style="fill:#341674;" d="M440.001,263.411C440.001,263.411,440.001,263.412,440.001,263.411
						c-0.002,0.005-0.003,0.009-0.004,0.014C439.998,263.421,439.999,263.416,440.001,263.411
						C440.001,263.412,440.001,263.412,440.001,263.411z"/>
				</g>
			</g>
			<g>
				<path style="fill:#C399D8;" d="M449.528,225.566c0.035-0.122,0.074-0.258,0.117-0.403
					C449.607,225.293,449.568,225.427,449.528,225.566z"/>
				<path style="fill:#C399D8;" d="M449.508,225.636c0.007-0.024,0.014-0.047,0.02-0.07
					C449.521,225.59,449.515,225.614,449.508,225.636z"/>
				<path style="fill:#C399D8;" d="M449.663,225.1c0.05-0.173,0.104-0.358,0.159-0.549
					C449.772,224.724,449.719,224.907,449.663,225.1z"/>
				<path style="fill:#C399D8;" d="M449.942,224.137c0-0.001,0.001-0.002,0.001-0.003
					C449.942,224.135,449.942,224.136,449.942,224.137z"/>
				<path style="fill:#C399D8;" d="M449.822,224.551c0.042-0.145,0.082-0.283,0.12-0.414
					C449.902,224.276,449.861,224.415,449.822,224.551z"/>
				<path style="fill:#C399D8;" d="M449.645,225.164c0.006-0.021,0.012-0.042,0.018-0.063
					C449.657,225.122,449.651,225.143,449.645,225.164z"/>
				<path style="fill:#C399D8;" d="M449.362,226.14c0.007-0.023,0.016-0.055,0.027-0.095
					C449.38,226.078,449.371,226.108,449.362,226.14z"/>
				<path style="fill:#C399D8;" d="M449.44,225.87c0.01-0.033,0.02-0.068,0.029-0.1C449.459,225.805,449.449,225.838,449.44,225.87z
					"/>
				<path style="fill:#C399D8;" d="M449.349,226.185c0.005-0.015,0.009-0.03,0.013-0.045
					C449.354,226.169,449.349,226.185,449.349,226.185z"/>
				<path style="fill:#C399D8;" d="M449.433,225.897c0.003-0.009,0.005-0.018,0.008-0.027
					C449.438,225.879,449.435,225.888,449.433,225.897z"/>
				<path style="fill:#C399D8;" d="M449.39,226.046c0.015-0.05,0.029-0.1,0.043-0.149
					C449.416,225.954,449.402,226.004,449.39,226.046z"/>
				<path style="fill:#C399D8;" d="M449.469,225.769c0.012-0.042,0.025-0.086,0.038-0.133
					C449.495,225.681,449.483,225.724,449.469,225.769z"/>
				<path style="fill:#C399D8;" d="M450.543,222.06c0.005-0.018,0.01-0.033,0.013-0.044
					C450.552,222.027,450.548,222.042,450.543,222.06z"/>
				<path style="fill:#C399D8;" d="M450.464,222.331c0.034-0.119,0.061-0.212,0.078-0.271
					C450.527,222.115,450.501,222.205,450.464,222.331z"/>
				<path style="fill:#C399D8;" d="M450.441,222.41c0.003-0.012,0.007-0.023,0.01-0.034
					C450.448,222.388,450.445,222.398,450.441,222.41z"/>
				<path style="fill:#C399D8;" d="M449.943,224.133c0.061-0.212,0.117-0.406,0.169-0.583
					C450.056,223.741,449.999,223.938,449.943,224.133z"/>
				<path style="fill:#C399D8;" d="M450.563,221.99C450.565,221.985,450.565,221.984,450.563,221.99L450.563,221.99z"/>
				<path style="fill:#C399D8;" d="M450.556,222.016c0.003-0.012,0.006-0.021,0.008-0.026
					C450.562,221.994,450.559,222.003,450.556,222.016z"/>
				<path style="fill:#C399D8;" d="M450.451,222.376c0.005-0.016,0.009-0.031,0.013-0.046
					C450.46,222.345,450.456,222.361,450.451,222.376z"/>
				<path style="fill:#C399D8;" d="M450.112,223.547c0.02-0.068,0.039-0.133,0.057-0.196
					C450.151,223.415,450.132,223.48,450.112,223.547z"/>
				<path style="fill:#C399D8;" d="M450.111,223.551c0-0.001,0.001-0.003,0.001-0.004
					C450.112,223.548,450.112,223.549,450.111,223.551z"/>
				<path style="fill:#C399D8;" d="M450.431,222.446c0.003-0.012,0.007-0.025,0.01-0.036
					C450.438,222.422,450.435,222.434,450.431,222.446z"/>
				<path style="fill:#C399D8;" d="M450.169,223.351c0.048-0.167,0.095-0.327,0.138-0.475
					C450.266,223.015,450.221,223.174,450.169,223.351z"/>
				<path style="fill:#C399D8;" d="M450.307,222.875c0.023-0.081,0.045-0.156,0.065-0.225
					C450.351,222.722,450.33,222.797,450.307,222.875z"/>
				<path style="fill:#C399D8;" d="M450.372,222.651c0.021-0.073,0.041-0.141,0.059-0.204
					C450.413,222.508,450.394,222.575,450.372,222.651z"/>
			</g>
			<path style="fill:#FFF5FF;stroke:#000000;stroke-width:4.5413;stroke-linejoin:round;stroke-miterlimit:10;" d="M432.999,236.348
				"/>
			
				<rect x="448.415" y="221.27" transform="matrix(-1 -1.224647e-16 1.224647e-16 -1 898.6981 445.0055)" style="fill:#DFB3F1;" width="1.869" height="2.465"/>
			
				<rect x="433.933" y="221.27" transform="matrix(-1 -1.224647e-16 1.224647e-16 -1 869.7347 445.0055)" style="fill:#DFB3F1;" width="1.869" height="2.465"/>
			<path style="fill:#FFF5FF;" d="M439.676,223.735h3.464c0.334,0,0.604-0.27,0.604-0.604v-2.062c0-0.334-0.27-0.604-0.604-0.604
				h-3.463c-0.334,0-0.604,0.27-0.604,0.604v2.062C439.072,223.465,439.342,223.735,439.676,223.735z"/>
			<path style="fill:#341674;" d="M454.542,216.756"/>
			<g>
				<g>
					<path style="fill:#B38DC4;" d="M431.813,190.1h18.89c2.297,0,4.037,2.075,3.636,4.337l-0.927,5.231
						c-0.359,2.027-0.423,4.095-0.189,6.14c0.502,4.39,1.401,22.514,1.731,24.161c0.368,1.841-9.619,3.414-14.97,3.252
						c-4.063-0.123-9.959-1.553-10.256-1.85c-0.467-0.467,1.274-26.322,1.274-26.322l-1.985-11.636
						C428.723,191.681,430.057,190.1,431.813,190.1z"/>
				</g>
				<polygon style="fill:#FFBAA5;" points="438.284,190.164 444.144,190.164 443.505,182.705 438.284,184.027 				"/>
				<path style="fill:#FE87C8;" d="M438.284,188.995c0,0,5.234-0.61,5.383-4.408c0.148-3.798,0,0,0,0l-0.161-1.882l-5.31,1.913
					L438.284,188.995"/>
				<g>
					<path style="fill:#CC4F59;" d="M434.797,174.081c0,0-1.177,0.294-1.003,1.257c0.037,0.205,0.058,0.422,0.069,0.638
						c0.054,1.108,0.585,2.15,1.457,2.916l0,0L434.797,174.081z"/>
					<path style="fill:#FFBAA5;" d="M444.598,182.944c-0.262,0.102-0.763,0.131-0.763,0.131c-0.5,1.091-2.14,4.166-4.961,4.166
						c-2.208,0-3.244-2.774-3.687-4.545c-0.336-1.345,0-2.635-0.249-3.922l-0.64-3.297l9.928-0.524v5.587
						c0,0,0.588-0.443,0.932,0.073C445.501,181.13,445.243,182.692,444.598,182.944z"/>
					<path style="fill:#CC4F59;" d="M440.278,171.508c0.662,0.079,1.373,0.249,2.13,0.53c1.461,0.543,1.976,1.547,2.748,2.901
						c0.783,1.372-0.337,5.498-0.381,5.495c-0.698-0.045-1.301,0.485-1.346,1.183c-0.006,0.086-0.002,0.17,0.009,0.252
						c-0.234-0.444-0.467-1.026-0.434-1.549c0.065-1.012,0.13-2.023,0.13-2.023s-1.832-1.133-1.512-3.144
						c0,0-4.807,1.803-6.418,0.886"/>
					<path style="fill:#FE87C8;" d="M444.332,181.017c0,0-0.498,0.83-0.166,1.327c0.332,0.498,0.498-0.332,0.332-0.498
						c-0.166-0.166-0.166,0,0.166-0.166C444.996,181.514,444.332,181.017,444.332,181.017z"/>
					<path style="fill:#5B43CA;" d="M435.343,175.449c0,0,0.194,1.917-0.635,2.249l-0.664-1.825L435.343,175.449z"/>
				</g>
				<path style="fill:#CC4F59;" d="M439.485,171.571c-0.774,0.052-1.471,0.218-2.203,0.445c-0.708,0.219-1.476,0.221-2.196,0.456
					c-0.684,0.223-1.33,0.647-1.671,1.282c-1.307,2.439,2.027,5.066,4.225,5.27c-0.29-0.6-0.58-1.2-0.87-1.8
					c1.024,0.924,2.402,1.445,3.782,1.431c-0.409-0.483-0.817-0.967-1.226-1.45c1.166,0.629,2.668,0.583,3.793-0.116
					c1.495-0.928,1.776-2.645,0.619-4.007C442.672,171.828,441.077,171.465,439.485,171.571z"/>
				<path style="fill:#B38DC4;" d="M448.134,190.1c-0.925,0.972-3.581,3.38-7.203,3.38c-4.331,0-6.249-3.099-6.414-3.38H448.134z"/>
				<path style="fill:#FFBAA5;" d="M444.296,190.1c-0.43,0.863-1.664,3.002-3.348,3.002c-2.013,0-2.904-2.753-2.981-3.002H444.296z"
					/>
				<path style="fill:#FFBAA5;" d="M444.296,190.1c-0.397,0.863-1.538,3.002-3.093,3.002c-1.86,0-2.684-2.753-2.755-3.002H444.296z"
					/>
			</g>
			<g>
				<path style="fill:#A7B0E4;" d="M454.801,234.567c-0.161-0.213-5.734-2.7-5.734-2.7s-1.292,3.829,0.264,4.998
					c1.556,1.169,4.494,0.62,4.494,0.62L454.801,234.567z"/>
			</g>
			<path style="fill:#B38DC4;" d="M453.039,191.008c1.922,1.909,5.806,6.699,8.875,15.139c0.718,1.974,1.138,4.034,1.381,5.653
				c0.264,1.758-0.717,3.466-2.363,4.137l0,0c-1.495,0.609-3.213,0.226-4.302-0.966c-3.349-3.667-6.808-15.015-8.138-17.709
				c-1.414-2.865,1.591-4.853,2.136-5.883C451.105,190.478,452.316,190.29,453.039,191.008z"/>
		</g>
		<path style="fill:#FFBAA5;" d="M462.511,215.505l-10.98,18.253l-0.555-4.275c0,0,4.787-16.247,5.841-17.045
			c0.971-0.735,6.421-0.829,6.141,1.961C462.917,214.8,462.751,215.179,462.511,215.505z"/>
		<path style="fill:#FFBAA5;" d="M450.976,228.762c0,0-4.012,0.305-4.77,1.226c-0.759,0.92-2.255,2.971-1.816,3.141
			c0.44,0.169,2.242-2.017,2.661-2.057c0.42-0.04,0.094,3.168-0.401,3.534c-0.494,0.365-3.731,1.948-3.366,2.443
			c0.365,0.494,3.622-0.879,3.622-0.879s-3.507,0.974-3.142,1.468c0.365,0.494,3.798-0.154,4.442-1.17c0,0-3.372,1.278-2.797,1.752
			c0.575,0.474,3.852-0.689,5.614-3.295s1.986-3.735,1.986-3.735"/>
		<g>
			<g>
				<path style="fill:#FFBAA5;" d="M425.796,216.378c2.524,0.653,4.983-3.129,1.33-7.26c-3.605-4.076-11.884-10.571-12.129-10.749
					c-0.249-0.322-0.741-0.956-0.906-1.171c-0.225-0.292-0.01-2.431-0.46-3.014c-0.19-0.246-0.548-0.171-0.898-0.003
					c-1.279-1.581-1.987-2.649-2.973-0.521c-0.041,0.088-0.733,1.262-0.631,1.244c-0.191,0.033-0.341,0.091-0.417,0.157
					c-0.279,0.243-0.134,1.337-0.134,1.337c0.396,1.118,4.163,3.199,4.613,3.782C413.64,200.764,422.257,215.462,425.796,216.378z"
					/>
			</g>
		</g>
		<path style="fill:#8A91C5;" d="M458.485,276.279c-1.149-9.436-2.298-18.872-3.447-28.308c-0.651-5.344-1.301-10.688-1.952-16.032
			c-0.038-0.311-0.532-0.315-0.493,0c1.155,9.484,2.31,18.968,3.465,28.453c1.149,9.436,2.298,18.872,3.447,28.308
			c0.651,5.344,1.301,10.688,1.952,16.032c0.038,0.311,0.532,0.315,0.493,0C460.795,295.247,459.64,285.763,458.485,276.279z"/>
		<path style="fill:#8A91C5;" d="M443.987,239.377c-1.427-0.026-2.854-0.051-4.281-0.077c-0.318-0.006-0.318,0.488,0,0.493
			c1.427,0.026,2.854,0.051,4.281,0.077C444.304,239.876,444.304,239.383,443.987,239.377z"/>
		<path style="fill:#B37A92;" d="M462.011,208.307c-2.758-1.279-6.282-0.286-8.001,2.196c-1.695-4.441-3.39-8.882-5.085-13.323
			c-0.112-0.294-0.589-0.166-0.476,0.131c1.707,4.472,3.414,8.943,5.121,13.415c0.038,0.099,0.117,0.147,0.202,0.16
			c-0.022,0.038-0.048,0.073-0.07,0.111c-0.154,0.278,0.272,0.527,0.426,0.249c1.433-2.59,4.939-3.764,7.634-2.514
			C462.048,208.866,462.299,208.441,462.011,208.307z"/>
		<path style="fill:#B37A92;" d="M430.036,201.891c-0.079-1.306-0.159-2.612-0.238-3.918c-0.019-0.315-0.513-0.318-0.493,0
			c0.194,3.187,0.387,6.375,0.581,9.562c-0.817-1.65-2.835-2.717-4.651-2.146c-0.302,0.095-0.173,0.571,0.131,0.476
			c2.022-0.635,4.382,1.061,4.404,3.187c0.002,0.147,0.109,0.223,0.222,0.234c0.049,0.8,0.097,1.599,0.146,2.399
			c0.079,1.306,0.159,2.612,0.238,3.918c0.019,0.315,0.513,0.318,0.493,0C430.591,211.032,430.313,206.461,430.036,201.891z"/>
		<path style="fill:#B37A92;" d="M445.287,190.893c-0.219,1.95-1.717,3.645-3.562,4.25c-1.897,0.622-3.912-0.085-5.207-1.559
			c-0.615-0.7-1.041-1.562-1.194-2.48c0.007-0.006,0.016-0.008,0.022-0.014c0.043-0.047,0.075-0.109,0.072-0.174
			c-0.003-0.022-0.006-0.044-0.009-0.066c-0.012-0.042-0.033-0.078-0.063-0.109c-0.025-0.025-0.05-0.05-0.075-0.075
			c0-0.003-0.001-0.005-0.001-0.008c-0.012-0.176-0.17-0.251-0.304-0.23c-0.015-0.003-0.03-0.011-0.046-0.01
			c-0.034-0.001-0.066,0.006-0.095,0.021c-0.031,0.01-0.057,0.027-0.079,0.051c-0.043,0.047-0.075,0.109-0.072,0.174
			c0.003,0.022,0.006,0.044,0.009,0.066c0.012,0.042,0.033,0.078,0.063,0.109l0.056,0.056c0.232,2.038,1.658,3.823,3.552,4.596
			c2.059,0.84,4.385,0.192,5.9-1.388c0.844-0.88,1.39-1.996,1.527-3.209C445.816,190.578,445.322,190.581,445.287,190.893z"/>
	</g>
	<path style="fill:none;stroke:#FF6391;stroke-width:2;stroke-miterlimit:10;" d="M421.031,209.542
		c0.098,3.125,0.236,6.579-2.501,9.068c-2.573,2.34-6.65,3.477-10.437,2.642c-7.91-1.743-7.637-9.619-7.873-14.989
		c-0.284-6.468,0.419-12.937,0.091-19.405"/>
	<path style="fill:none;stroke:#FF6391;stroke-width:2.0754;stroke-miterlimit:10;" d="M411.404,547.851c0.34,0,0.681,0,1.021,0"/>
</g>
</svg>
