<?xml version="1.0" encoding="utf-8"?>
<!-- Generator: Adobe Illustrator 27.1.0, SVG Export Plug-In . SVG Version: 6.00 Build 0)  -->
<svg version="1.1" id="Calque_1" xmlns="http://www.w3.org/2000/svg" xmlns:xlink="http://www.w3.org/1999/xlink" x="0px" y="0px"
	 viewBox="0 0 500 500" style="enable-background:new 0 0 500 500;" xml:space="preserve">
<style type="text/css">
	.st0{fill:#FFFFFF;}
	.st1{fill:#E3F3FF;}
	.st2{fill:#A1CFEA;}
	.st3{fill:#1F364B;}
	.st4{fill:none;stroke:#2D5071;stroke-linecap:round;stroke-linejoin:round;stroke-miterlimit:10;}
	.st5{fill:#9D2640;}
	.st6{fill:none;stroke:#1F364B;stroke-linecap:round;stroke-linejoin:round;stroke-miterlimit:10;}
	.st7{fill:#C23757;}
	.st8{fill:#B2826F;}
	.st9{fill:#8C6352;}
	.st10{fill:none;stroke:#770C22;stroke-linecap:round;stroke-linejoin:round;stroke-miterlimit:10;}
	.st11{fill:none;stroke:#B91E3D;stroke-width:2;stroke-linecap:round;stroke-linejoin:round;stroke-miterlimit:10;}
	.st12{fill:#AF7056;}
	.st13{clip-path:url(#SVGID_00000017490063986143398250000011863138115166899355_);}
	.st14{fill:#A78374;}
	.st15{fill:#E0AF9A;}
	.st16{fill:#DB9688;}
</style>
<g id="BACKGROUND">
</g>
<g id="OBJECTS">
	<g>
		<rect y="472.8" class="st0" width="500" height="27.2"/>
		<rect x="314" y="472.8" class="st1" width="3.3" height="27.2"/>
		<rect x="387" y="472.8" class="st1" width="3.3" height="27.2"/>
		<rect x="460" y="472.8" class="st1" width="3.3" height="27.2"/>
		<rect x="241" y="472.8" class="st1" width="3.3" height="27.2"/>
		<rect x="168" y="472.8" class="st1" width="3.3" height="27.2"/>
		<rect x="95" y="472.8" class="st1" width="3.3" height="27.2"/>
		<rect x="22" y="472.8" class="st1" width="3.3" height="27.2"/>
	</g>
	<g>
		<g>
			<polygon class="st2" points="168.8,493.5 260.9,493.5 208.4,397.4 122.5,397.4 			"/>
			<path class="st1" d="M39.8,493.5l20.8-88.4c1.1-4.5,5.1-7.7,9.7-7.7h57.1c4.2,0,8,2.7,9.4,6.6l31.8,89.5H39.8z"/>
			<polygon class="st2" points="56.6,472 54.2,482.9 150.7,482.9 147.3,472 			"/>
			<path class="st2" d="M84.2,416.5c0,3.6-2.9,6.4-6.4,6.4s-6.4-2.9-6.4-6.4c0-3.6,2.9-6.4,6.4-6.4C81.3,410,84.2,412.9,84.2,416.5z
				"/>
			<path class="st2" d="M129,416.5c0,3.6-2.9,6.4-6.4,6.4s-6.4-2.9-6.4-6.4c0-3.6,2.9-6.4,6.4-6.4C126.1,410,129,412.9,129,416.5z"
				/>
		</g>
		<g>
			<g>
				<path class="st1" d="M169.7,379.6h69.7l48.4,91.1c2.6,4.9-0.9,10.7-6.4,10.7l-77.1-0.1l-38.7-93.3L169.7,379.6z"/>
				<g>
					<g>
						<path class="st0" d="M211.8,468.7l-37.3-83.7c-1.5-3.3-4.7-5.4-8.2-5.4l0,0c-6.5,0-10.9,6.7-8.3,12.6l36.6,83.8
							c1.5,3.5,5.1,5.7,9,5.4l0.7-0.1C210.5,480.9,214.4,474.4,211.8,468.7z"/>
						<path class="st0" d="M165.7,397.4H88.2c-4.7,0-8.5-3.8-8.5-8.5v-0.8c0-4.7,3.8-8.5,8.5-8.5h77.4c4.7,0,8.5,3.8,8.5,8.5v0.8
							C174.2,393.6,170.4,397.4,165.7,397.4z"/>
					</g>
				</g>
			</g>
			<g>
				<path class="st0" d="M188.5,333.7h-62.6c-4.3,0-7.7-3.5-7.7-7.7l0,0c0-4.3,3.5-7.7,7.7-7.7h62.6c4.3,0,7.7,3.5,7.7,7.7l0,0
					C196.2,330.2,192.8,333.7,188.5,333.7z"/>
				<path class="st2" d="M189.6,318.3h-64.7c-3.6,0-6.6,3-6.6,6.6l0,0h77.9l0,0C196.2,321.2,193.3,318.3,189.6,318.3z"/>
			</g>
			<g>
				<polygon class="st1" points="24.8,253.8 78.4,253.8 151.6,378.8 76.9,379.6 23.7,262.2 				"/>
				<path class="st0" d="M83.8,366.9l-50.9-108c-1.5-3.1-4.6-5.1-8.1-5.1l0,0c-6.5,0-10.8,6.8-8.1,12.7l50.5,108
					c1.5,3.1,4.6,5.1,8.1,5.1h0.5C82.3,379.6,86.6,372.8,83.8,366.9z"/>
			</g>
		</g>
		<g>
			<g>
				<path class="st3" d="M277.7,460.2l-42.3-105.9l0,0c-1-2.6-3.4-4.5-6.3-4.9l-67.1-8.3l-50.3,7.3l5.4,27.7h90.3l49.4,84.2
					L277.7,460.2L277.7,460.2z"/>
				<line class="st4" x1="250.8" y1="450.1" x2="272.9" y2="448.1"/>
				<g>
					<path class="st5" d="M295.9,463.6c-4.3-6.2-11.5-10-18.9-11.1c-7.4-1.1-15.1,0.4-22,3.4c-0.5,4.1,0.1,8.5,1.5,12.4"/>
					<g>
						<path class="st6" d="M271.3,457.3c1.9-2.7,5-4.5,8.3-4.8"/>
						<path class="st6" d="M276.8,457.8c2.3-2.5,5.6-3.9,9-3.8"/>
						<path class="st6" d="M280.7,459.1c2.3-2.3,5.6-3.4,8.8-3"/>
					</g>
				</g>
			</g>
			<g>
				<g>
					<path class="st3" d="M245.4,457.7l-22.9-96.1c-1.1-4.3-4.7-7.8-9.4-8.5l-80-12l-30.3,10.4l-1,21.6c-0.2,3.6,2.7,6.6,6.3,6.6
						l81.2,0.4l34.7,80.1L245.4,457.7z"/>
					<line class="st4" x1="221.5" y1="454.8" x2="243.6" y2="450.1"/>
					<path class="st4" d="M154.3,344.4l58.9,8.9c4.1,0.6,7.4,3.6,8.4,7.6l16.9,68"/>
					<path class="st4" d="M189.1,380.1c1.3-4.4,3.9-8.4,7.4-11.3"/>
				</g>
				<g>
					<path class="st7" d="M263.6,469.1c-3.9-6.4-10.9-10.7-18.2-12.2c-7.4-1.5-15.1-0.5-22.2,2.1c-0.7,4.1-0.4,8.5,0.8,12.5"/>
					<g>
						<path class="st6" d="M240.5,461.8c1.7-2.9,5-4.9,8.4-5"/>
						<path class="st6" d="M243.8,463.6c2.2-2.7,5.5-4.5,9-4.8"/>
						<path class="st6" d="M247.8,465.2c1.7-2.7,4.7-4.5,7.8-4.9"/>
					</g>
				</g>
			</g>
			<g>
				<g>
					<g>
						<g>
							<path class="st8" d="M203.1,318.5c-17.6,0.5-50.4,1.9-62.7-9c-10.7-9.4-28.8-31.6-19.7-45.9c1.7-1.2,3.1-1.6,5-0.6
								c5.3,2.5,9.8,6.5,13.7,10.9c3.4,3.8,6,8.1,9.1,12.1c1.1,1.4,2.6,2.2,3.7,3.6c0.8,1,1.4,2,2.2,3c0.4,0.5,1.1,1.8,1.7,2.1
								c14.1,6.6,33.5,8.8,47.9,10.9C204,306.5,203.4,318.5,203.1,318.5z"/>
						</g>
						<g>
							<path class="st9" d="M154.3,292.4c-3.1,6.8-7,13.5-7.8,21c-2.7-1.3-5.7-3.1-7.8-5.3C139,297.8,144.3,293.4,154.3,292.4z"/>
						</g>
					</g>
					<g>
						<polygon class="st5" points="140.4,310.1 154.5,292.1 151.8,288.1 144,296.4 139.1,306.3 138.4,308.2 						"/>
						<g>
							<path class="st7" d="M152.5,290c0.8-1.4,1.1-2.8,0.3-4.3c-0.8-1.6-2.7-2.5-4.4-2.1c0.7-1.6,0.4-3.5-0.6-4.9
								c-1-1.4-2.8-2.1-4.5-1.9c-5.9-7.5-14.3-12.6-22.5-17.5c-0.7,3.2-1.9,6.7-1.7,9.9c0.1,2.7-0.1,5.4,0.2,8.1
								c0.2,2.2,0.6,4.3,1.2,6.5c0.6,2.2,1.4,4.2,2.1,6.4c0.2,0.7,0.2,1.4,0.5,2c0.4,0.9,1.1,1.8,1.6,2.7c1.2,1.8,2.5,3.5,3.9,5.1
								c1.5,1.8,3.4,3.5,5.7,3.7c-0.3,0.6-0.6,1.2-0.6,1.9s0.1,1.4,0.6,1.8c0.4,0.3,0.8,0.5,1.3,0.6c1.1,0.3,2.2,0.6,3.3,0.4
								c1-0.2,1.2-0.5,1.6-1.4c1.9-4.1,4.3-7.9,7.2-11.4C148.8,294.1,151.3,292.2,152.5,290z"/>
							<g>
								<path class="st10" d="M148.6,283.9c-5.3,5-8.4,11.3-11.7,17.8"/>
								<path class="st10" d="M142.7,276.5c-3,2.6-5.8,5.5-7.8,9"/>
							</g>
						</g>
					</g>
					<g>
						<g>
							<path class="st8" d="M195.8,302.2c0.5-0.3,1-0.5,1.4-0.8c0.9-0.6,1.7-1.4,2.3-2.3c0.3-0.4,0.5-0.9,0.8-1.3
								c0.3-0.4,0.6-0.9,0.8-1.3c0.2-0.4,0.3-0.8,0.7-1c0.3-0.2,0.7-0.2,1.1-0.1c1,0.3,1.6,1.3,1.7,2.3c0.1,1-0.2,2-0.8,2.9
								c-0.5,0.9-1.2,1.6-1.9,2.3c-0.5,0.5-1,1-1.4,1.6c-0.4,0.5-0.6,0.9-0.8,1.5c-0.5,1.1-1.3,2.1-2.3,2.8
								c-1.3,0.9-2.8,1.4-4.4,1.5c-0.2,0-0.4,0-0.6-0.1c-0.1-0.1-0.2-0.2-0.2-0.4c-0.4-1.1-0.5-2.3-0.1-3.4s1-2.1,1.9-2.9
								C194.5,302.9,195.2,302.5,195.8,302.2z"/>
						</g>
						<g>
							<path class="st8" d="M209,318.6c2.6-0.8,4.9-2.8,5.5-5.4c0.2-1,0.2-2.1-0.4-2.9c-0.3-0.5-0.8-0.8-1.1-1.2
								c-0.6-0.8-0.6-1.9-0.8-2.9c-0.2-1.3-0.8-2.4-1.2-3.6c-0.4-1.1-1.1-2.1-2.1-2.7c-1-0.6-2.3-0.6-3,0.3c-0.7,0.8-0.5,2-1,3
								c-0.3,0.7-1,1.2-1.7,1.6c-0.7,0.3-1.5,0.5-2.2,0.7c-1.6,0.3-3.2,0.7-4.8,1c0.9,2.8,1.7,5.7,2.4,8.5c0.2,0.9,0.4,1.8,0.9,2.6
								c0.6,0.9,1.3,1.1,2.3,1.1c1,0,2,0.3,3,0.4C206.2,319.1,207.6,319,209,318.6z"/>
						</g>
						<path class="st6" d="M193.8,313c1.7,0.1,3.4-0.3,4.9-1.2c1.5-0.9,2.6-2.2,3.3-3.8"/>
						<path class="st7" d="M212,302.4c3,3.6,2.4,8.9-1.2,11.9s-8.9,2.4-11.9-1.2s-2.4-8.9,1.2-11.9
							C203.7,298.2,209.1,298.7,212,302.4z"/>
						<g>
							<g>
								<path class="st8" d="M214.6,304.1c0.8,2.8,0.7,6-0.1,8.8c-0.3,1-0.7,2.2-1.6,2.8c-0.9,0.6-1.9-0.1-2.5-0.8
									c0.7-2.6-3.4-2.3-5-1.7c-1.6,0.7-2.9-1.6-1.6-2.7c-2.2,0.7-3.5-2.6-1.3-3.5c-3.5,0.4-2.5-4.2,0.4-4.2c-0.5,0-0.8-0.6-0.8-1
									c-0.1-0.5,0.1-1,0.4-1.4c0.3-0.4,0.9-0.6,1.4-0.8c1.5-0.5,3-0.7,4.6-0.7c1.1,0,2.3,0.2,3.2,0.7c0.9,0.5,1.7,1.4,2.1,2.4
									C214.1,302.7,214.4,303.4,214.6,304.1z"/>
							</g>
							<path class="st6" d="M204,310.2c1.7-0.8,3.6-1.1,5.5-0.7c1.8,0.3,3.6,1.3,4.8,2.7"/>
							<path class="st6" d="M203.5,302.8c1.8-0.6,3.8-0.9,5.7-0.8c1.9,0.2,3.8,0.8,5.3,2"/>
							<path class="st6" d="M202.7,306.8c1.9-0.9,4-1.3,6-1.2c2.1,0.1,4.1,0.8,5.8,2"/>
						</g>
					</g>
				</g>
				<g>
					<path class="st11" d="M247.9,239.3c-1.1,15.6-1.7,28.2-2,36.5c-1.2,28.6-0.8,39.4-9.1,49.2c-5.5,6.5-12.1,9.4-14.8,10.6
						c-13.3,5.8-32.4,5.3-43-5.6c-4.1-4.2-7.2-9.3-10.3-14.2c-3.9-6.2-7.3-11.5-15.1-13.3"/>
					<path class="st0" d="M152.4,302c-0.4,0.4-0.6,1.1-0.3,1.6c0.2,0.4,0.6,0.6,1,0.8c1.7,0.8,3.5,1.6,5.3,2.2c0.1,0,0.1,0.1,0.2,0
						c0.1,0,0.1-0.1,0.2-0.2c0.5-0.9,1-1.7,1.5-2.6c0-0.1,0.1-0.1,0.1-0.2c0-0.1-0.1-0.1-0.1-0.2c-0.9-0.7-1.9-1.2-3-1.6
						c-1-0.3-2.2-0.6-3.3-0.5C153.4,301.4,152.8,301.6,152.4,302z"/>
				</g>
			</g>
			<g>
				<g>
					<path class="st7" d="M130.6,300.8c6.6-16,1.6-40.1-17-44.7C95,251,63.7,252,63.1,277.3c-0.4,17.3,9,31.9,19.4,44.7
						c3.3,19,3.2,43.8,20.2,56.4c11.4-17.2,29.3-34.6,51.6-34.1c1.9-3.2,9.6-3.7,13.2-2.3c-8.9-9.9-17.7-20-28.5-28
						c-0.9-0.7-10.7-7.3-10.7-7.4C129.1,304.8,129.9,302.8,130.6,300.8z"/>
					<path class="st5" d="M111.5,259.8c-0.3-3.9-4.2-5.8-7.8-5.7c-4,0.2-16.9-3.3-16.3,3.1C90,262.4,111.9,269.1,111.5,259.8z"/>
				</g>
				<path class="st5" d="M110.2,358.8c0.5-0.2,1.2-0.6,1.1-1.1c0-0.3-0.3-0.5-0.5-0.6c-0.3-0.1-0.6-0.1-0.9-0.1
					c-1.7,0.1-3.2,0.8-4.6,1.6c-3.2,1.9-5.9,4.6-7.9,7.7c-0.5,0.8-1.2,1.7-1.4,2.6c3.2-3.4,6.5-6.3,10.7-8.5
					C107.9,359.8,109,359.3,110.2,358.8z"/>
				<g>
					<path class="st10" d="M116.1,352.9c10.3-8.6,23.7-13.4,37.1-13.4"/>
					<path class="st10" d="M154.4,336.1c-4.4,1.5-9.2,2-13.8,1.4"/>
				</g>
				<path class="st0" d="M108.7,277.6c-0.1-3.1,2-6.1,5-7s6.4,0.3,8.1,2.9c1.6,2.5,1.5,5.8,0.4,8.5c-1.1,2.7-3,5-5,7.3s-4,4.4-5.3,7
					c-2.1-2.1-4.6-3.5-7.2-4.9c-2.6-1.5-5.2-3-7.1-5.2s-3.1-5.3-2.4-8.2c0.7-3,3.6-5.3,6.7-5.4C104.9,272.5,107.9,274.6,108.7,277.6
					L108.7,277.6z"/>
				<path class="st10" d="M130.3,301.7c1.3-5.3,2.5-10.7,2.7-16.2c0.2-5.5-0.6-11.1-3-16"/>
			</g>
			<g>
				<g>
					<path class="st8" d="M90.4,252.7c-0.1,0.7-0.2,1.5-0.4,2.2c5,3.5,12.2,8.2,18.2,5c-2.9-7.6-2.7-16.7-7.5-23.4
						c-2.6-3.8-8.5-4.6-10.4,0.3C90.3,242,91.3,247.4,90.4,252.7z"/>
				</g>
				<g>
					<path class="st9" d="M90.8,239.5c0.6,3.4,2.5,6.7,5.2,8.8s6.3,3.2,9.8,2.9c-0.7-3.4-1.1-6.8-2.3-10L90.8,239.5z"/>
				</g>
			</g>
			<g>
				<g>
					<path class="st8" d="M84.4,236.9c5.8,15.8,36.7,9.3,28.9-6.4c-2.8-6-5.8-13.9-12.3-16.7C89.1,212.3,79,226.1,84.4,236.9z"/>
				</g>
				<path class="st3" d="M87.8,238.5c0.8-0.5,1.4-1.2,1.6-2c0.5-1.8-0.3-4-1.9-5.1c4.8-2.2,7.7-8.5,7-13.6c3.2,1.8,8.7,2,11.5-0.4
					c-0.7-2.1-2.6-3.6-4.5-4.6c-2-1.1-4.2-1.8-6.4-2.1c-5.3-0.7-10.8,0.4-15.1,3.5c-4.3,3.1-7.2,8.3-7.1,13.6c0,3.2,1.1,6.5,3.3,8.8
					s5.6,3.6,8.7,3C85.9,239.5,86.9,239.1,87.8,238.5z"/>
				<g>
					<path class="st8" d="M80.9,242.2c2.3,5.3,12.3,3.6,9.3-2.8C86,229.2,77.6,234.7,80.9,242.2z"/>
					<g>
						<path class="st6" d="M83.3,239.3c0.8,0.6,1.8,0.8,2.7,0.5"/>
						<path class="st6" d="M85,237.6c1,1.1,1.6,2.7,1.6,4.2"/>
					</g>
				</g>
				<g>
					<path class="st6" d="M101.4,226.3c0.7,1.5,2,2.6,3.5,3c0.3,0.1,0.6,0.1,0.8,0.3s0.5,0.3,0.6,0.6c0.1,0.4-0.1,0.8-0.4,1.1
						c-0.5,0.5-1.4,0.7-2.1,0.4"/>
					<g>
						<path class="st3" d="M106.9,226.2c2,0.1,0.4-3.6-0.9-2C105.5,224.9,106.1,226,106.9,226.2z"/>
						<path class="st6" d="M103,223.4c0.2-0.8,0.7-1.5,1.4-1.8c0.7-0.4,1.5-0.4,2.3-0.1"/>
					</g>
					<g>
						<path class="st3" d="M97.7,230.8c2,0.1,0.4-3.6-0.9-2C96.3,229.6,96.9,230.6,97.7,230.8z"/>
						<path class="st6" d="M97.9,226.2c-0.6-0.1-1.3-0.1-1.9-0.1c-0.6,0.1-1.2,0.3-1.7,0.7s-0.8,1-0.8,1.6"/>
					</g>
					<path class="st6" d="M100.5,237.9c3,0.6,6.2-0.2,8.6-2"/>
					<g>
						<path class="st12" d="M94,240.1c0.7,0.7,1.9,0.9,2.8,0.3c0.9-0.6,1.2-1.8,0.8-2.8c-0.3-0.8-0.9-1.5-1.7-1.7
							c-0.8-0.2-2,0.4-2.4,1.2C93,238,93.3,239.4,94,240.1z"/>
					</g>
					<g>
						<path class="st12" d="M109.7,234.4c0.7,0.7,1.9,0.9,2.8,0.3c0.9-0.6,1.2-1.8,0.8-2.8c-0.3-0.8-0.9-1.5-1.7-1.7
							c-0.8-0.2-2,0.4-2.4,1.2C108.7,232.4,109,233.8,109.7,234.4z"/>
					</g>
				</g>
			</g>
			<g>
				<g>
					<g>
						<path class="st8" d="M133.2,317.3c-11.1-3.4-22.5-6.2-33.9-8.2c-4.2,5.9-8.1,11.9-11.8,18.1c14.6,0.7,29.3,1.4,43.9,1.8
							C132,325.1,133,321.1,133.2,317.3z"/>
					</g>
					<g>
						<polygon class="st9" points="94,327.5 99.3,309.1 86.4,327.2 						"/>
					</g>
				</g>
				<g>
					<g>
						<path class="st5" d="M88.1,317.7c-2.4,3-4.8,6-7,9.1c2.1,0.1,4.3,0.5,6.4,0.6c3.7-6.2,7.6-12.6,11.8-18.4c-1-0.2-2-0.4-3-0.5
							C93.3,311.4,90.7,314.6,88.1,317.7z"/>
						<path class="st7" d="M96.3,308.5c-5-0.9-10-1.6-15.1-2.2c1.8-10.4,3.1-45-13.5-42.5c-10.8,5.7-9.2,37.7-10,49.1
							c-1,8.9,5.2,13,14.2,13.5c3,0.1,6.1,0.3,9.1,0.4c2.3-3.1,4.6-6.1,7-9.1C90.7,314.6,93.3,311.4,96.3,308.5z"/>
					</g>
					<g>
						<path class="st10" d="M78.1,268.9c4.4,12.1,5.4,24.8,3.1,37.4l18.1,2.7"/>
						<path class="st10" d="M81,306.3c-2.7,1.2-5,3.1-6.6,5.6"/>
					</g>
				</g>
				<g>
					<g>
						<path class="st8" d="M132.6,317.2c3.5-1.5,7.4-1.9,11.1-1.2c1.6,0.3,3.1,0.8,4.7,1.3c0.6,0.2,1.4,0.5,1.5,1.2
							c0.1,0.5-0.3,1-0.8,1.2c-0.5,0.2-1,0.2-1.5,0.2c1.9,0.6,3.9,1.2,5.8,1.8c0.6,0.2,1.2,0.4,1.7,0.8s0.9,1,0.9,1.6
							c0,0.6-0.6,1.2-1.3,1.1c0.7-0.1,1.5,0.1,2.1,0.6c0.6,0.5,0.9,1.3,0.6,2c-0.3,0.7-1.2,1.1-1.8,0.8c0.7,0.3,1,1.3,0.7,2
							c-0.3,0.7-1.1,1.1-1.9,1.2c-0.8,0.1-1.6-0.1-2.3-0.2c1,0.2,0.7,1.7,0,2c-0.5,0.3-1.2,0.3-1.8,0.2c-7-0.5-13.9-2.3-20.3-5.2
							c0.1,0,0.2,0,0.3,0L132.6,317.2z"/>
					</g>
					<g>
						<path class="st6" d="M152.1,331.5c-3.5-0.7-7-1.5-10.6-2.2"/>
						<path class="st6" d="M155.6,328.6c-3.4-1-6.9-1.7-10.5-2"/>
						<path class="st6" d="M155.1,325.2c-3-0.9-6.1-1.7-9.1-2.3"/>
					</g>
					<path class="st6" d="M147.5,319.8c-1.8-0.8-3.8-1.3-5.8-1.5"/>
				</g>
			</g>
		</g>
		<g>
			<path class="st0" d="M107.5,342H45c-4.3,0-7.7-3.5-7.7-7.7l0,0c0-4.3,3.5-7.7,7.7-7.7h62.6c4.3,0,7.7,3.5,7.7,7.7l0,0
				C115.2,338.6,111.8,342,107.5,342z"/>
			<path class="st2" d="M108.7,326.6H43.9c-3.6,0-6.6,3-6.6,6.6l0,0h77.9l0,0C115.2,329.6,112.3,326.6,108.7,326.6z"/>
		</g>
	</g>
	<g>
		<g>
			<g>
				<rect x="243.2" y="0" class="st3" width="12.2" height="53.2"/>
				<path class="st3" d="M227.9,0c3.9,8.5,12.3,14.1,21.5,14.4c9.8,0.3,19-5.4,23.3-14.4C257.8,0,242.9,0,227.9,0z"/>
			</g>
		</g>
		<g>
			<g>
				<path class="st1" d="M343.5,89c-19.1,32.6-46.6,60.3-79.1,79.5c-32.1,19-69.1,29.8-106.4,31.2c2.1,12.8,4.7,24.5,7.6,35
					c0.4,1.6,1.8,2.6,3.4,2.6h8.7c2,0,3.6,1.6,3.6,3.6v3.6c0,2,1.6,3.6,3.6,3.6h11.7c2,0,3.6-1.6,3.6-3.6v-3.6c0-2,1.6-3.6,3.6-3.6
					h1.7c2,0,3.6,1.6,3.6,3.6v3.6c0,2,1.6,3.6,3.6,3.6h11.7c2,0,3.6-1.6,3.6-3.6v-3.6c0-2,1.6-3.6,3.6-3.6h9.1c2,0,3.6,1.6,3.6,3.6
					v15.6c0,1.9,1.4,3.6,3.4,3.7c2,0.1,3.7-1.5,3.7-3.5v-15.8c0-2,1.6-3.6,3.6-3.6h42.2c2,0,3.6,1.6,3.6,3.6v3.6
					c0,2,1.6,3.6,3.6,3.6h11.7c2,0,3.6-1.6,3.6-3.6v-3.6c0-2,1.6-3.6,3.6-3.6l0,0c6-4.9,10-8.1,15.9-13c2.8-13.7,5.2-28.6,6.7-44.8
					C348.3,145,346.7,114.4,343.5,89z"/>
				<g>
					<path class="st7" d="M221.1,254.4H215c-1.1,0-2-0.9-2-2V248h10.2v4.4C223.1,253.5,222.2,254.4,221.1,254.4z"/>
					<path class="st7" d="M312.3,254.4h-6.1c-1.1,0-2-0.9-2-2V248h10.2v4.4C314.3,253.5,313.4,254.4,312.3,254.4z"/>
					<path class="st7" d="M192.9,254.4h-6.1c-1.1,0-2-0.9-2-2V248h10.2v4.4C194.9,253.5,194,254.4,192.9,254.4z"/>
				</g>
				<path class="st0" d="M343.5,89c-0.4-2.8-0.7-5.6-1.1-8.3c-0.1-0.7-0.4-1.3-0.8-1.8c-1.2-1.4-2.2-2.5-2.7-3
					c-28.4-29-137.5-41-180,3c-0.3,0.5-0.7,1.4-0.9,1.9c-3.9,24.1-6.5,55.2-3.4,91.2c0.9,9.7,2.1,18.9,3.5,27.6
					c37.3-1.3,74.3-12.1,106.4-31.2C296.9,149.3,324.4,121.6,343.5,89z"/>
				<g>
					
						<ellipse transform="matrix(0.3169 -0.9485 0.9485 0.3169 119.6 272.3829)" class="st0" cx="248.9" cy="53.2" rx="13.9" ry="13.9"/>
					<path class="st1" d="M255.4,53.2c0,3.6-2.9,6.5-6.5,6.5s-6.5-2.9-6.5-6.5c0-3.6,2.9-6.5,6.5-6.5S255.4,49.6,255.4,53.2z"/>
				</g>
			</g>
			<g>
				<path class="st7" d="M166.1,90.8c-6.6,32.6-4.8,92.9,6.8,130.8c0.9,3,3.7,5.1,6.8,5.1c40,0.4,101,0.7,141.2,1
					c3.5,0,6.5-2.4,7.1-5.8c7.3-38.8,9.3-93.6,5.4-130.7c-0.2-2.2-1.5-4.2-3.5-5.4c-13.4-8.1-42.5-22.7-81.7-22.3
					c-37.9,0.4-65.8,14.6-78.9,22.6C167.7,87.1,166.5,88.8,166.1,90.8z"/>
				<g>
					<g>
						<defs>
							<path id="SVGID_1_" d="M166.8,87.7c-7.7,33.2-5.6,100.4,7.8,138.9c41.6,0.4,110.7,0.8,152.4,1.1c8.5-40.2,10.8-101.1,6.1-140
								c-11.7-7.4-42.2-24.7-84.8-24.2C207.7,63.9,178.5,80.2,166.8,87.7z"/>
						</defs>
						<clipPath id="SVGID_00000029726540701358961670000009317303931835971741_">
							<use xlink:href="#SVGID_1_"  style="overflow:visible;"/>
						</clipPath>
						<g style="clip-path:url(#SVGID_00000029726540701358961670000009317303931835971741_);">
							<g>
								<path class="st5" d="M217.3,164.2c-1.4-0.5-2.8-1-3.8-1.9c-1.3-1.2-0.8-2.5-1.6-3.8c-0.6-1.1-2.3-1.4-3.4-1.6
									c-2.1-0.3-4.2,0.1-6.2-0.2c-1.3-0.2-2.7-0.8-3.6-1.9c-0.8-1-1.3-2.7-0.4-3.8c0.4-0.6,1-1.1,1-1.8c0.1-0.7-0.5-1.4-1.1-1.8
									s-1.4-0.4-2.1-0.4c-1.2,0-2.4,0-3.6,0.2c-0.2,0-0.5,0.1-0.6,0.3c-0.1,0.3,0.1,0.6,0.4,0.7s0.6,0.1,0.8,0.3
									c0.5,0.3,0.6,1.1,0.3,1.6s-0.9,0.9-1.4,1.2c-1.3,0.7-2.7,1.2-4.1,1.3c-1.4,0.1-3-0.3-4.1-1.2c-1.1-1-1.6-2.6-1.1-4
									c0.7-1.7,2.8-2.7,3.2-4.5c0.1-0.6,0-1.2,0.3-1.8c0.4-0.7,1.3-0.9,2.1-1.1c0.6-0.1,1.4-0.1,1.6,0.4c0.2,0.4,0,0.8-0.1,1.1
									c-0.3,0.6-0.5,1.3-0.8,1.9c-0.1,0.3-0.2,0.7,0.1,0.7c0.2,0.1,0.4-0.2,0.5-0.4c0.6-1.1,1.3-2.2,1.8-3.4
									c0.5-1,1.3-1.9,2.3-2.4c0.5-0.2,0.9-0.4,1.4-0.7c1.2-0.7,0.7-1.8,1.5-2.6c0.9-0.9,2.5-1,3.7-0.6c1.6,0.5,3,1.5,4.5,2.2
									c2.3,1,4.9,1.1,7.4,1.2c0.9,0,1.8,0.1,2.6-0.2s1.6-1,1.7-1.8s-0.6-1.8-1.5-1.7c-0.1-0.8,0.7-1.3,1.4-1.6
									c0.7-0.3,1.6-0.6,1.9-1.3c0.4-1.1-0.7-2.1-1.7-2.5c-1.1-0.4-2.3-0.7-2.9-1.7c-0.6-1.1,0-2.4,0.8-3.3c0.9-0.8,2-1.4,3-2.1
									c1.3-1.1,2.3-2.6,2.6-4.3c0.1-0.8,0.1-1.8-0.6-2.3c-0.5-0.4-1.3-0.4-1.9,0s-1.1,0.8-1.6,1.3c-2.5,2.5-5.5,4.3-8.8,5.5
									c-1.6,0.6-3.3,0.7-5,1.2c-1.4,0.4-2.5,1-3.8-0.3c-0.8-0.8-1-2.1-0.6-3.1c0.5-1.1,1.7-1.9,1.6-3.1c-0.1-1.3-1.5-2-2.8-2.4
									s-2.7-0.9-3-2.2c-0.3-1.7,1.7-2.8,2.1-4.5c-0.5-0.6-1.5-0.3-2.3,0c-4,1.6-8,3.2-11.9,4.8c-1.6,0.6-2.6,0.5-4.2,0.6
									c-2.1,0.2-4.1,0.8-6.1,1.1c-5.5,0.6-11.1-0.5-16.6,0.8c-1.3,0.3-2.6,0.8-3.2,2c-1.3,2.5,2,6.4,4,7.8
									c1.7,1.1,2.2,1.2,1.1,3.1c-0.5,0.9-1.8,1.9-1.2,3c0.4,0.8,1.5,0.9,2.4,0.6c1.4-0.6,2.1-2.1,3.5-2.7c1.6-0.7,3.8-0.4,5.3,0.5
									c2,1.1,3.4,3,4.1,5.1c1.2,3.3,0.9,7,0,10.5c-0.9,3.4-2.3,6.7-3.1,10.2c0.4,0.5,1.3,0.5,1.8,0.1c0.5-0.4,0.7-1.1,0.9-1.7
									c0.7-2.1,1.3-4.1,2-6.2c0.2-0.7,0.6-1.4,1.3-1.5c0.9-0.1,1.3,1,1.5,1.8c0.8,2.9,2,5.7,3.5,8.3c0.8,1.3,1.8,2.7,3.3,3.1
									c2.8,0.8,7.1-2.2,9.5-3.3c0.7-0.3,1.4-0.6,2-0.2c1.1,0.6,0.7,2.2,1.1,3.3c0.9,2.7,5.4,2,6,4.6c0.6,2.5-3.1,6.2-4.7,7.7
									c-2.1,1.9-4.5,3.4-6.3,5.5c-1.8,2.1-3.1,5-2.5,7.7c0.7,2.9,3.4,4.9,6,6.3c2.6,1.5,5.5,2.9,7.1,5.4c0.7,1.1,1.3,2.6,2.6,2.9
									c1,0.3,2-0.2,3-0.1c1.7,0.2,2.8,1.8,3.6,3.3c2.7,5,4.6,10.4,5.5,16c0.1,0.8,0.3,1.7,0.7,2.4s1.2,1.4,2,1.3
									c3.4-0.1,2.4-6.8,2.8-8.9c0.7-3.7,2.3-7.2,4.2-10.5c2.8-5,6.3-9.7,8-15.2c0.6-1.7,0.9-3.6,0.3-5.3
									c-1.6-4.2-8.1-4.5-10.1-8.6c-0.9-1.9-0.6-4.2-1.7-5.9c-0.8-1.3-2.3-2-3.7-2.5C217.5,164.3,217.4,164.2,217.3,164.2z"/>
								<path class="st5" d="M181.6,101.4c-0.5-0.1-1,0.2-1.4,0.5c-0.4,0.3-0.7,0.8-1,1.2c-1,1.4-2.2,2.7-3.5,3.8
									c-0.3,0.3-0.6,0.5-0.8,0.9s-0.3,0.8-0.1,1.2c0.2,0.4,0.8,0.6,1.3,0.5c0.5-0.1,0.9-0.4,1.3-0.7c1.1-0.8,2.3-1.6,3.4-2.4
									c0.7-0.5,1.5-1,2.3-0.6c0.4,0.2,0.7,0.6,1.2,0.5c0.3,0,0.6-0.4,0.7-0.7c0.4-0.7,0.8-1.5,1-2.3c0.1-0.3,0.2-0.6,0-0.9
									c-0.2-0.3-0.7-0.3-1-0.1c-0.6,0.3-1.1,1.2-1.8,0.6C182.8,102.3,182.6,101.5,181.6,101.4z"/>
								<path class="st5" d="M190.9,102.5c-0.2,0.2-0.5,0.4-0.5,0.7c-0.1,0.5,0.3,1,0.7,1.1s1,0.1,1.5,0.1c1.9-0.1,3.7,0.3,5.4,1
									c0.5,0.2,1.1,0.5,1.4,0.9c0.4,0.4,0.6,1.1,0.3,1.6c-0.2,0.4-0.5,0.6-0.7,0.9c-0.3,0.3-0.4,0.7-0.3,1.1
									c0.2,0.5,0.9,0.5,1.4,0.5c1.8,0.1,3.6,1.4,4.1,3.2c0.1,0.4,0.3,1,0.8,1c0.4,0,0.6-0.4,0.7-0.8c0.3-1,0.2-2.2-0.2-3.2
									c-0.3-0.7-0.7-1.3-1-2s-0.4-1.5,0-2.2c0.2-0.3,0.4-0.5,0.6-0.9c0.3-0.7-0.3-1.5-1-1.9s-1.5-0.4-2.2-0.8
									c-0.7-0.3-1.3-1.1-1.1-1.8c0.1-0.4,0.5-0.7,0.8-1s0.5-0.8,0.3-1.2c-0.1-0.2-0.4-0.3-0.6-0.4c-1.3-0.5-2.9-0.4-4.1,0.3
									c-1,0.6-1.9,1.6-3,1.7c-0.7,0.1-1,0.2-1.6,0.6C192,101.6,191.4,102,190.9,102.5z"/>
								<path class="st5" d="M181.1,92.8c0.6-0.9,1.6-1.4,2.7-1.8c3.3-1.3,6.9-1.8,9.9-3.7c1.2-0.8,2.3-1.8,3.7-2.3
									c0.3-0.1,0.8-0.2,1.1,0c0.4,0.3,0.3,1,0,1.4c-0.7,1.2-2,1.9-2.7,3c-0.7,1.1-0.8,2.5-0.5,3.7c0.3,1.3,0.9,2.4,1.6,3.4
									c0.1,0.2,0.2,0.4,0.2,0.6c0,0.2-0.3,0.4-0.5,0.4c-0.2,0-0.4-0.1-0.7-0.2c-1.2-0.7-2.4-1.4-3.8-1.5c-1.9-0.2-3.8,1-5,2.6
									c-0.2,0.3-0.4,0.6-0.7,0.9c-0.3,0.2-0.7,0.4-1,0.3c-0.6-0.2-0.7-1-0.9-1.7c-0.2-0.9-1-1.8-1.9-1.7c-0.9,0-1.5,0.2-1.9-0.7
									C180.4,94.4,180.6,93.5,181.1,92.8z"/>
								<path class="st5" d="M223,75.6c-3.4,0.3-5.9,3.1-8.9,4.6c-3.8,1.9-8.3,1.5-12.5,1.7c-0.8,0-1.8,0.3-1.9,1
									c-0.1,0.8,0.7,1.3,1.5,1.4s1.6,0,2.2,0.4c0.3,0.2,0.4,0.6,0.5,0.9c-1.1,1.1-2.6,1.7-3.9,2.6c-1.5,1.1-2.9,3-2.2,4.7
									c0.4,1.1,1.5,1.7,2.7,2.1c1.1,0.3,2.3,0.4,3.4,0.7c3.3,0.9,5.9,4,6.1,7.4c0.1,0.9,0,1.9,0.2,2.7c0.3,0.9,1.1,1.7,2,1.5
									c0.6-0.1,1.1-0.6,1.5-1.1c3.5-4.5,3.2-10.9,5.2-16.3c1.1-3,3-5.6,5.5-7.7c1.3-1,2.8-2.2,2.8-3.8
									C227.2,76.7,224.9,75.5,223,75.6z M203.2,86.6l0.6-0.7C203.8,86.2,203.6,86.5,203.2,86.6z"/>
								<path class="st5" d="M253.2,158.4c-0.1,0.4-0.3,0.7-0.4,1.1c-0.6,1.8-1,4,0.3,5.3c0.7,0.7,1.8,1,2.8,0.9
									c1-0.1,2-0.5,2.9-0.8c-1.1,1.5-1.2,4,0,5.4c1.2,1.4,4,1.4,5.8,1.3c2.4-0.2,4.8-0.9,7.2-0.9c2.4,0,5.1,0.9,6.2,3.1
									c1.2,2.2,0.3,4.9-0.6,7.3c-1.3,3.5-2.6,7-3.9,10.5c-0.8,2.3-1.3,4.2,1.3,5.2c1.8,0.6,3.9,0.2,5.5-0.8
									c2.3-1.4,3.8-3.9,5.3-6.1c3.1-4.6,6.6-9,10.6-13c2.2-2.3,4.6-4.4,6.3-7.1c1.1-1.7,3.2-5.1,2-7.1c-0.8-1.2-2.2-1.9-3.6-2.3
									c-1.4-0.4-2.9-0.5-4.2-1.1c-3.2-1.3-5.3-4.9-4.8-8.4c0.2-1.4,0.8-2.8,0.9-4.2c0.1-1.4-0.3-3.1-1.6-3.7c-0.9-0.4-2-0.2-3,0
									c-5.4,1.1-10.9,2.3-16.3,3.4c-1,0.2-2,0.4-3,0.3c-1-0.1-2-0.7-2.3-1.7c-0.6-1.6,0.8-3.6-0.2-4.9c-0.6-0.7-1.6-0.9-2.5-0.6
									s-1.6,1-2.2,1.7c-2.5,2.9-4.1,6.5-5.6,10.1C255.1,153.6,254.1,156,253.2,158.4z"/>
								<path class="st5" d="M340.2,101.5c-1.5-1.5-3.5-2.5-5.6-2.8c-0.8-0.1-1.8-0.4-1.7-1.1c0.1-0.8,1.5-0.8,1.8-1.6
									c0.1-0.4-0.1-0.9-0.5-1.1c-0.4-0.2-0.8-0.3-1.2-0.3c-2.2-0.1-4.4,0.5-6.5,0.8s-4.6,0.2-6.4-1c-1.1-0.7-1.8-1.8-2.8-2.6
									c-1-0.8-2.2-1.5-3.5-1.2c-0.1,1.5,2.4,2,2.8,3.4c0.2,0.8-0.3,1.7-1,2.1c-0.7,0.4-1.6,0.6-2.4,0.7c-3.1,0.5-6.3,1.1-8.7,3.2
									c-1.1,1-2,2.2-3,3.3c-1.8,1.9-4.3,3.4-6.9,4c-0.8,0.2-1.8,0.3-2.5-0.2c-0.4-0.3-0.6-1-0.5-1.5c0.1-0.3,0.3-0.4,0.4-0.6
									c0.1-0.2,0-0.4,0.1-0.6c0.2-0.4,0.8-0.5,1.3-0.5c0.8-0.1,1.6-0.2,2.4-0.3c0.7-0.1,1.5-0.3,1.9-0.9c0.5-0.8,0.2-1.9-0.4-2.6
									c-0.6-0.6-1.3-0.7-2-1.1c-0.6-0.3-1.1-0.6-1.7-0.8c-0.8-0.3-1.6-0.6-2.2-1.1c-0.4-0.3-0.8-0.7-0.7-1.2c0-0.3,0.2-0.6,0.2-1
									c0-0.6-0.5-1.1-1-1.3c-0.6-0.2-1.2-0.1-1.8,0c-4.1,0.6-8.2,0.7-12.3,0.4c-1.9-0.2-3.9-0.4-5.6,0.2c-1.1,0.4-2.2,1.4-2,2.5
									c0.1,1,0.9,1.6,1.4,2.5c0.8,1.5,0.3,2.9-0.6,4.1c-1,1.5-1.7,3.2-2.8,4.7c-1.1,1.6-2.3,3.2-3.6,4.7c-2.5,3-5.2,5.9-7.6,9
									c-0.4,0.5-0.8,1-0.9,1.6c-0.1,0.6,0.1,1.3,0.7,1.5c0.6,0.2,1.2-0.1,1.8-0.5c2.6-1.9,5-4.1,6.9-6.7c2.3-3,4.3-6.6,7.8-8.2
									c0.7-0.3,1.5-0.5,2.1-0.1c0.6,0.4,0.7,1.1,0.8,1.8c0,1.5-0.4,3-1.3,4.2c-0.7,0.9-1.6,1.7-2.1,2.8c-0.5,1.1-0.3,2.6,0.8,3.1
									c0.6,0.3,1.3,0.1,1.9,0c1.5-0.4,3.1-1.1,4.3-2c0.8-0.6,2.3-1.8,3.4-1c0.6,0.5,0.5,1.5,0,2c-0.5,0.6-1.2,0.8-1.9,1.1
									c-8.3,2.8-17.1,4.4-25.1,8.2c-1.7,0.8-3.3,1.7-4.7,2.9c-1.1,1-2.8,2.7-2.8,4.3c0,1.2,1,2.3,2.2,2.7c1.2,0.3,2.5,0.1,3.6-0.4
									c2.1-0.9,3.4-2.6,5.6-3.2c2.7-0.8,5.5-1.2,8.3-1.1c1.1,0,2.2,0.1,3.1,0.6s1.7,1.5,1.7,2.5c0,1.2-1,2.4-0.5,3.5
									c0.5,1.2,2.2,1.1,3.4,0.9c5.9-1.2,11.7-2.4,17.6-3.6c1.2-0.2,2.4-0.5,3.7-0.4c1.2,0.1,2.5,0.7,3.2,1.7
									c0.9,1.3,0.6,3.1-0.1,4.5c-0.7,1.4-1.8,2.6-2.7,3.9c-0.9,1.3-1.6,2.9-1.3,4.4c0.4,2,2.2,3.3,4.1,3.9
									c1.9,0.6,3.9,0.7,5.8,1.2c1.9,0.5,3.8,1.7,4.4,3.6c0.2,0.6,0.2,1.3,0.5,1.9s0.9,1.2,1.5,1.1c1-0.1,1.2-1.5,1.1-2.5
									c-0.1-1-0.3-2.2,0.5-2.8c1.1-0.8,2.9,0.6,4-0.2c0.8-0.5,0.7-1.9,0.1-2.6c-0.6-0.7-1.6-1.1-2.5-1.5c-2.1-0.9-4-2.2-5.6-3.8
									c-0.8-0.9-1.6-2.3-0.8-3.2c0.6-0.6,1.6-0.6,2.3-0.1c0.6,0.4,0.8,1.1,1.4,1.7c0.5,0.5,1.2,0.8,1.7,1.2c1.5,1,3.2,1.9,4.9,2.6
									c1.4,0.6,3.1,1.2,3.4,2.7c0.4,1.7-1,3.4-1.9,4.7c-1,1.4-1.5,2.9-1.6,4.7c-0.1,1.6,0.2,3.2,1.3,4.4c1.2,1.4,3.4,2.1,4,3.9
									c0.2,0.5,0.3,1.2,0.8,1.4c0.6,0.2,1.1-0.5,1.3-1.2c0.4-1.8,0-3.6-0.2-5.4c-0.2-1.8-0.2-3.8,1.1-5.2c0.9-1,2.3-1.4,3.6-1.1
									s2.4,1.3,2.7,2.6c0.6,1.9-0.5,3.9-1.3,5.8c-0.8,1.9-1.2,4.3,0.3,5.6c0.8,0.8,2.1,1,2.8,1.9c1.7,2.3-1.4,5.4-1.8,7.7
									c-0.3,1.3-0.2,2.8,0.6,3.9c0.8,1.1,2,1.6,3.3,2.1c2.2,0.9,4.4,1.8,6.6,2.7"/>
								<path class="st5" d="M298.5,188.5c-1.2,0.7-2.7,1.8-2.3,3.1c0.3,0.8,1.2,1.2,2,1.1s1.6-0.5,2.3-0.9
									c-0.3,2.7-0.8,5.5-1.6,8.1c1.5,0.1,3-1,3.7-2.3s1-2.9,1.3-4.4c0.9-4,2.5-7.9,4.8-11.3c1.6-2.5,3.6-4.8,4.2-7.7
									c0.1-0.7,0.2-1.5-0.2-2.2c-0.3-0.7-1.2-1.1-1.8-0.8c-0.5,0.2-0.8,0.8-1.1,1.3c-1.5,3.1-2.8,6.5-4.8,9.3
									c-0.8,1.1-1.7,2.3-2.6,3.3C302.1,185.5,298.5,188.2,298.5,188.5z"/>
								<path class="st5" d="M236.6,216.2c1-1.7,3.3-2.1,5.3-2s4.2,0.2,5.8-1c1.9-1.5,2-4.6,3.9-6.1c1.2-1,2.9-1.1,4.3-0.8
									c1.5,0.3,2.8,1.1,4.1,1.9c4.1,2.3,8.3,4.6,12.8,6.1c4.5,1.5,9.4,2.1,14,1.1c4.2-0.9,8.8-3.2,12.6-1.2
									c0.7,0.4,1.5,1.1,1.3,1.9c-0.2,0.8-1.1,1.2-2,1.5c-10.7,3-22.2,6-32.9,2.6c-3.7-1.2-7.3-3.1-11.2-2.7
									c-2.3,0.3-4.3,1.3-6.5,2c-2.3,0.8-4.3,0.9-6.5-0.1C241.3,219.2,236.4,216.6,236.6,216.2z"/>
								<path class="st5" d="M168.5,103c-0.4,0.3-0.8,0.5-1,1c-0.2,0.4-0.2,1,0.2,1.3c0.3,0.3,0.9,0.2,1.3,0.1
									c1.7-0.6,3.2-1.9,4.8-2.7c0.8-0.4,1.6-0.6,2.3-1.1c0.9-0.6,1.6-1.7,1.1-2.7c-0.4-0.9-1.2-0.8-2-0.4
									C172.9,99.6,170.7,101.5,168.5,103z"/>
								<path class="st5" d="M239.5,104c2.7-1.6,5.6-2.9,8-4.8c2.4-2,4.4-4.9,4.1-8c-0.2-1.7-0.9-3.5,0-5c0.6-1,1.8-1.4,2.8-1.8
									c4.6-1.9,8.8-5,11.9-8.9c0.4-0.5,0.8-1.3,0.4-1.8c-0.5-0.6-1.5,0-2.1,0.6c-3.3,3.1-7.6,5.3-12.1,6.2
									c-0.5,0.1-1.1,0.1-1.4-0.3c-0.2-0.4,0-0.9,0.3-1.2c1.3-1.6,3.5-2.2,5.5-2.7c2-0.5,4.2-1.2,5.2-3c-1.4-1.2-2.8-1.2-4.5-1.1
									c-1.9,0.1-3.9-0.4-5.8-0.4c-2,0-4,0.1-6,0.4c-1,0.2-1.9,0.3-2.9,0.6c-0.7,0.2-2.1,0.3-2.6,0.8c0.4-0.4,0.1-1.1-0.4-1.3
									c-0.5-0.1-1.1,0.2-1.5,0.6c-0.4,0.4-0.7,0.9-1.1,1.2c-0.4,0.3-1.1,0.5-1.6,0.2c-0.2-0.1-0.3-0.3-0.5-0.5
									c-0.5-0.5-1.4-0.5-2-0.1c-0.6,0.4-0.8,1.3-0.5,1.9c-0.6-1-2.2-0.7-2.8,0.2c-0.6,0.9-0.6,2.1-0.5,3.2
									c0.1,1.1,0.3,2.3-0.2,3.3c-0.4,0.9-1.3,1.5-2.3,2c-0.9,0.5-1.9,0.8-2.6,1.5c-0.8,0.7-1.3,1.7-1.1,2.7c0.5-0.2,1-0.4,1.6-0.3
									c1.9,0.2,0.7,2.1-0.2,2.7c-0.4,0.3-0.9,0.6-1.4,0.9c-0.3,0.2-0.5,0.6-0.4,0.9c0.1,0.3,0.4,0.5,0.7,0.5
									c0.3,0,0.6-0.1,0.9-0.3c1-0.4,2-0.8,3-1c0.5-0.1,2.1-0.7,2.5-0.2c0.2,0.3,0.2,0.6,0.2,0.9c-0.1,1.1-0.4,2.1-0.9,3
									c-0.2,0.4-0.6,0.9-0.4,1.4c0.1,0.4,0.6,0.7,1,0.7c0.4,0,0.8-0.2,1.1-0.5c0.6,1,0,2.6-1.2,2.9c-0.3,0.1-0.8,0.2-0.7,0.5
									c0,0.2,0.3,0.3,0.5,0.4c0.9,0.3,1.5,1.3,1.5,2.3c0,1-0.4,1.9-0.8,2.8c-0.4,0.9-0.9,1.8-1,2.8c-0.1,0.8,0.1,1.7,0.6,2.4
									s1.4,1,2.2,0.8c1-0.3,1.1-1.1,1.4-1.9c0.3-0.8,0.9-1.6,1.4-2.3C236.3,106.2,237.8,105,239.5,104z"/>
							</g>
						</g>
					</g>
				</g>
			</g>
		</g>
	</g>
	<g>
		<g>
			<g>
				<path class="st7" d="M332.3,493.9c0.8-2.4,1.4-4.8,3-6.8c1.6-1.9,3.7-3.4,6.1-4c3.1-0.8,6.5-0.3,9.6-1.1
					c4.7-1.2,7.3-4.8,8.7-9.2c6,0.3,12.3,0.7,18.4,1c2.7,6.1,4,12.9,3.8,19.5"/>
				<g>
					<path class="st6" d="M353.4,479.7c2.7,0.1,5.4,1.8,6.5,4.2"/>
					<path class="st6" d="M350,481.5c2.2,1,4.1,2.6,5.4,4.7"/>
					<path class="st6" d="M344.3,482.3c2.5,1.1,4.5,3.1,5.6,5.6"/>
				</g>
			</g>
			<polygon class="st3" points="375.6,284.2 354.1,477.7 381.3,477.7 422.1,284.2 			"/>
		</g>
		<g>
			<g>
				<path class="st5" d="M395.3,493.9c0.8-2.4,1.4-4.8,3-6.8c1.6-1.9,3.7-3.4,6.1-4c3.1-0.8,6.5-0.3,9.6-1.1
					c4.7-1.2,7.3-4.8,8.7-9.2c6,0.3,12.3,0.7,18.4,1c2.7,6.1,4,12.9,3.8,19.5"/>
				<g>
					<path class="st6" d="M403.6,482.7c2.5,0.1,5,1.8,5.9,4.1"/>
					<path class="st6" d="M409.2,481.3c1.3,0.5,2.6,0.9,3.8,1.6s2.2,1.7,2.8,2.9"/>
					<path class="st6" d="M414.2,480.6c2.5,0.2,4.8,1.5,6.4,3.4"/>
				</g>
			</g>
			<g>
				<polygon class="st3" points="399.6,285.9 415.2,477.7 444.9,477.7 442.2,284.2 				"/>
				<polyline class="st4" points="406.2,359.8 402.4,318.2 396.5,318.2 				"/>
			</g>
		</g>
		<g>
			<g>
				<path class="st14" d="M334.8,227.3c2.4,2.7,3.7,6.1,5.1,9.4c-2.5,2.4-5.3,4.5-8.1,6.5c-2.5-2.4-5.2-4.8-7-7.7"/>
				<path class="st15" d="M338.4,237.4c0.7-0.4,1.3-1,1.4-1.7c0.2-0.6,0-1.3-0.1-2c-0.3-2.3-0.1-4.7-0.7-6.9
					c-0.4-1.4-1.1-2.6-1.8-3.8c-0.3-0.6-0.7-1.2-0.9-1.9c-0.2-0.5-0.3-1.3-0.7-1.7c-0.2-0.2-0.5-0.2-0.8-0.1
					c-0.3,0.1-0.5,0.3-0.6,0.6c-0.6,0.9-0.8,2-0.6,3.1c0.1,1.1,0.4,2.1,0.7,3.1c0.1,0.5,0.2,1,0.1,1.4c-0.1,0.6-0.3,1.2-0.6,1.7
					c-0.5,0.9-1,1.8-1.3,2.7s-0.5,2-0.2,2.9c0.4,1.2,1.3,2,2.3,2.6c0.5,0.3,0.8,0.6,1.5,0.6C336.8,238,337.7,237.8,338.4,237.4z"/>
			</g>
			<g>
				<path class="st0" d="M374.4,207.4c-12.8,10.4-19.4,27.5-21.6,43.5c-3.4-5.8-6.9-11.6-10.3-17.4c-4.8,3.6-10.9,5.9-14.9,10.2
					c1.7,13.1,8.5,25.8,14.9,37.3c16.7,27.4,35-19.1,43-31.8"/>
				<path class="st6" d="M352.9,251c2.9,5.2,5.4,10.7,7.5,16.3"/>
			</g>
		</g>
		<g>
			<g>
				<path class="st7" d="M373.3,301.6c-2.1-30-6.9-61.3-2.2-90.9c14.3-8.5,32.1-13.8,49-12.5c9.7,2.9,31.1,5.1,30.9,18
					c1.5,27.9-4,55.8-6.3,83.6L373.3,301.6z"/>
				<path class="st5" d="M429.2,262.7c-13.7,3.7-28.1,7.4-42.3,4.8c0.5,1.5,0.5,7.1,2.9,7.9C403.6,277,418.4,271.4,429.2,262.7z"/>
				<path class="st5" d="M399.4,206.6c1.1,2.5,3.8,9.9,7.1,8.6c10-3.7,19.6-25,1.4-20.6C401.8,195.9,396.9,199.9,399.4,206.6z"/>
				<path class="st5" d="M407.8,282.9c7.3,0.2,14.6,0.1,22,0c-1.9,1-4.8,1.8-8.2,2.1c21.8,4.2-36.9,3.6-40.7,5.5
					c2.3-2.2,6-4.1,10.6-5.7c-3.7-0.5-7.7-1.9-7.9-3.4C391.7,281.1,399.6,283.1,407.8,282.9z"/>
			</g>
			<g>
				<path class="st0" d="M417.6,372.3c-0.1-0.9,15.9-6.5,17.5-7.2c5.2-1.4,10.3-5.9,15.7-5.6c-2-48.8,1.6-97.5,2.2-146
					c-4.9-13.7-26.2-14-38.4-17.6C418.3,254.2,410.8,313.6,417.6,372.3z"/>
				<g>
					<g>
						<path class="st15" d="M432.6,295.6c4-0.2,8-0.5,12-0.7c0.4-1.7,0.6-3.5,0.7-5.3c0-0.6,0.1-0.8,0.6-1.1c0.4-0.2,1-0.4,1.3-0.7
							c0.4-0.4,0.4-1,0.4-1.6c-0.2-1.5-1.3-2.9-2.3-4c-1.3-1.2-2.9-2.2-4.7-2.4c-2.5-0.2-4.1,1.3-5.2,3.3c-0.4,0.7-0.8,1.5-1.1,2.3
							c-1.4,3-2.6,6-3.7,9.1c0,0.1-0.1,0.3-0.1,0.4c0,0.3,0.3,0.6,0.6,0.7c0.3,0.1,0.6,0.1,0.9,0.1
							C432.1,295.7,432.4,295.7,432.6,295.6z"/>
						<path class="st14" d="M445,284.4c0.4,2.6,0.4,5.3,0,7.9c-4.2-2-7.4-5.8-8.8-10.2c1.4-1.1,2.8-2.2,4.3-3"/>
					</g>
					<polygon class="st1" points="425.1,293.8 446.3,293.8 445.3,314 434.6,317.7 425.1,314.3 					"/>
				</g>
			</g>
			<g>
				<path class="st0" d="M386.6,365c-0.2,2.5-0.4,5.1-0.5,7.6c-6.5-3.7-17.5-7-23.3-11.5c3.2-45.8,5.8-91.7,5-137.7
					c-3.5-20.9,21.7-19.9,34.5-27.6C393.6,251.8,390.8,308.5,386.6,365z"/>
				<path class="st6" d="M367.1,279.7c0.5-21.3,3.2-42.9,6.5-64c0,0.4,0,0.7,0,1.1"/>
				<polygon class="st1" points="366.5,293.2 377.8,293.2 377.8,313.3 367.7,318.9 365.6,317.4 				"/>
			</g>
		</g>
		<g>
			<path class="st0" d="M476.8,238c0,0,0.1,0.1,0.1,0.1c3.5,5,6.8,10.6,6.8,16.7c0,4.3-1.6,8.4-3.9,12c-3.4,5.4-8,10.8-12.5,15.2
				c-1.3,1.3-15.3,14.3-16,13.6c-5-5.2-10.3-10-15.9-14.4c8.9-7.4,16.3-15.6,23.2-24.6c-10.4-12.7-25.6-26.8-22.6-44.9
				c0.9-3.8,3.7-9.1,8.2-8.2c6.5,3.3,11.9,10.5,16.9,15.8C466.8,225.2,472.1,231.4,476.8,238z"/>
			<path class="st6" d="M451.6,249.5c-7-7.2-13.2-17.7-16.1-27.3"/>
			<path class="st6" d="M458.9,256.6c2.6-0.4,5.3-0.7,7.9-1.1"/>
			<path class="st6" d="M451.8,265.1c-5.8,6.4-9.5,10.1-16.1,16.8"/>
			<path class="st6" d="M445.5,290.1c1.7,1.8,3.4,3.7,5,5.5"/>
		</g>
		<g>
			<path class="st1" d="M388.7,207.2c-1.6,4.2,4.1,4.6,6.2,6.6c-2.3,0.8-4.7,1.1-7.1,0.9c2.5,12.3,4.9,24.6,7.4,36.9
				c1.7-20.1,6.5-40.1,6.9-60.5C396.1,194.9,391.3,200.5,388.7,207.2z"/>
			<g>
				<path class="st15" d="M414.3,179.4c0.3,3,0.7,5.9,1,8.9c0.3,2.6,0.6,5.3,0.9,7.9c0.1,1.2,0.3,2.2,0,3.3c-0.2,1-0.5,1.9-0.9,2.8
					c-1.6,3.6-4.4,6.6-8,8.2c-0.3,0.1-0.6,0.3-0.9,0.2c-0.5,0-0.9-0.4-1.2-0.8c-0.8-0.9-1.5-1.9-2.2-3c-0.6-0.9-1.1-1.9-1.4-2.9
					c-0.4-1.4-0.3-2.8-0.2-4.2c0.3-4.7,0.7-9.3,0.2-14C405.8,184,410.7,182.1,414.3,179.4z"/>
				<path class="st14" d="M401.8,187c0.3,2.9,0,5.8-0.1,8.7c6.7-0.6,12.4-6.3,12.4-13.1"/>
			</g>
			<path class="st1" d="M415.2,206.5c-0.5,16.3-0.5,32.7-0.1,49c8.3-12.2,13.9-26.2,16.1-40.8c-3.7,0-7.3-0.6-10.7-1.9
				c2.2-1.4,9.7-3,7-6.4c-2.6-6.2-5.7-13.2-11.9-16.4C415.4,195.5,415.5,201,415.2,206.5z"/>
			<path class="st7" d="M425.1,235.2c0.2-1.9,1.9-3.5,3.8-3.8c1.9-0.3,3.9,0.9,4.7,2.6c0.7,1.7,0.3,3.7-0.6,5.3
				c-1,1.6-2.4,2.8-3.8,4c-1.4,1.2-2.9,2.3-4,3.8c-1.1-1.5-2.5-2.6-3.9-3.8s-2.9-2.4-3.8-4c-1-1.6-1.4-3.6-0.6-5.3
				c0.8-1.8,2.8-2.9,4.7-2.6S424.9,233.3,425.1,235.2L425.1,235.2z"/>
		</g>
		<g>
			<g>
				<path class="st15" d="M420.6,176.1c-2.5,16.7-34.1,16.6-29.6-0.5c1.5-6.5,2.9-14.8,8.6-18.8C411,153,423.6,164.5,420.6,176.1z"
					/>
			</g>
			<g>
				<path class="st3" d="M396.8,154c-2.9-0.3-3.9,4.1-1.2,5.1c6.9,2.8,13.9,5.3,20.2,9.5c-7.2,18.6,18.9,11.8,11.7-3.1
					c3,3.5,5.5-1.6,0.8-1.5c3.6-2-1-6.5-2.9-2.8c-1.4-11.9-15-10.5-23.1-14.6C397,142,394.1,149.9,396.8,154z"/>
				<g>
					<path class="st4" d="M416.2,168.4c1.3-1.4,3.1-2.3,5-2.7s3.8-0.5,5.7-0.5"/>
					<path class="st4" d="M424.4,161.3c-4.7,1.7-9.9,1.5-14.7,0.1c-4.8-1.4-9.1-4.1-12.8-7.4"/>
					<path class="st4" d="M419.1,152.3c-1.2,1-2.7,1.6-4.3,1.8c-1.5,0.2-3.1,0-4.6-0.4c-4.3-1.2-8.1-3.7-10-7.8"/>
					<path class="st4" d="M427.5,173.9c-0.2-0.9-0.7-1.8-1.5-2.3c-1-0.6-2.2-0.7-3.4-0.5c-1.8,0.4-3.4,1.6-4.2,3.2s-0.9,3.6-0.1,5.3
						"/>
				</g>
			</g>
			<g>
				<path class="st15" d="M425.1,180.7c-1.2,5.6-11.3,6-9.6-0.9C417.4,168.9,426.8,172.6,425.1,180.7z"/>
				<g>
					<path class="st6" d="M422.1,178.3c-0.6,0.7-1.6,1.1-2.6,1"/>
					<path class="st6" d="M420.1,177c-0.8,1.3-1,2.9-0.7,4.4"/>
				</g>
			</g>
			<g>
				<path class="st6" d="M401.8,169.2c-0.4,1.6-1.4,2.9-2.8,3.7c-0.3,0.1-0.5,0.3-0.8,0.4c-0.2,0.2-0.4,0.4-0.5,0.7
					c0,0.4,0.2,0.8,0.6,1c0.6,0.4,1.5,0.4,2.2,0"/>
				<g>
					<path class="st3" d="M396.3,170.2c-1.9,0.6-1.1-3.5,0.5-2.1C397.5,168.7,397.1,169.9,396.3,170.2z"/>
					<path class="st6" d="M399.6,166.7c-0.3-0.7-1-1.3-1.7-1.5s-1.6-0.1-2.3,0.3"/>
				</g>
				<g>
					<path class="st3" d="M406.3,172.9c-1.9,0.6-1.1-3.5,0.5-2.1C407.4,171.4,407,172.5,406.3,172.9z"/>
					<path class="st6" d="M405.1,168.4c0.6-0.2,1.2-0.4,1.8-0.4c0.6,0,1.3,0.1,1.8,0.4c0.6,0.3,1,0.8,1.2,1.4"/>
				</g>
				<path class="st6" d="M405,180.4c-2.8,1.2-6.1,1.1-8.9-0.3"/>
				<g>
					<path class="st16" d="M411.8,181.2c-0.6,0.9-1.7,1.3-2.7,0.9c-1-0.4-1.5-1.5-1.4-2.6c0.1-0.8,0.6-1.7,1.4-2
						c0.8-0.3,2.1,0,2.6,0.7C412.3,178.9,412.3,180.4,411.8,181.2z"/>
				</g>
				<g>
					<path class="st16" d="M395.3,178.9c-0.6,0.9-1.7,1.3-2.7,0.9c-1-0.4-1.5-1.5-1.4-2.6c0.1-0.8,0.6-1.7,1.4-2
						c0.8-0.3,2.1,0,2.6,0.7C395.9,176.6,395.8,178.1,395.3,178.9z"/>
				</g>
			</g>
		</g>
	</g>
</g>
<g id="TEXTS">
</g>
</svg>
